<?xml version="1.0" encoding="UTF-8" standalone="no"?>
<!-- Created with Inkscape (http://www.inkscape.org/) -->

<svg
   width="536.62592mm"
   height="509.31451mm"
   viewBox="0 0 536.62592 509.31451"
   version="1.1"
   id="svg1"
   xml:space="preserve"
   sodipodi:docname="inkotter_gray.svg"
   inkscape:version="1.4.3 (0d15f75042, 2025-12-25)"
   xmlns:inkscape="http://www.inkscape.org/namespaces/inkscape"
   xmlns:sodipodi="http://sodipodi.sourceforge.net/DTD/sodipodi-0.dtd"
   xmlns="http://www.w3.org/2000/svg"
   xmlns:svg="http://www.w3.org/2000/svg"><sodipodi:namedview
     id="namedview1"
     pagecolor="#ffffff"
     bordercolor="#000000"
     borderopacity="0.25"
     inkscape:showpageshadow="2"
     inkscape:pageopacity="0.0"
     inkscape:pagecheckerboard="0"
     inkscape:deskcolor="#d1d1d1"
     inkscape:document-units="mm"
     inkscape:zoom="0.25228624"
     inkscape:cx="961.20978"
     inkscape:cy="556.90711"
     inkscape:window-width="1920"
     inkscape:window-height="1052"
     inkscape:window-x="1920"
     inkscape:window-y="0"
     inkscape:window-maximized="1"
     inkscape:current-layer="layer1" /><defs
     id="defs1"><filter
       style="color-interpolation-filters:sRGB;"
       inkscape:label="Lightness-Contrast"
       id="filter5"
       x="0"
       y="0"
       width="1"
       height="1"><feColorMatrix
         values="0.21 0.72 0.072 0 0 0.21 0.72 0.072 0 0 0.21 0.72 0.072 0 0 0 0 0 1 0 "
         id="feColorMatrix5"
         result="fbSourceGraphic" /><feColorMatrix
         result="fbSourceGraphicAlpha"
         in="fbSourceGraphic"
         values="0 0 0 -1 0 0 0 0 -1 0 0 0 0 -1 0 0 0 0 1 0"
         id="feColorMatrix22" /><feColorMatrix
         id="feColorMatrix23"
         values="0.353698 0 0 0.40698 0.323151 0 0.353698 0 0.40698 0.323151 0 0 0.353698 0.40698 0.323151 0 0 0 1 0"
         in="fbSourceGraphic" /></filter></defs><g
     inkscape:label="Ebene 1"
     inkscape:groupmode="layer"
     id="layer1"
     transform="translate(-1011.1566,780.15829)"><g
       id="g76123"
       transform="translate(555.8336,9.4386838)"
       style="filter:url(#filter5)"><path
         id="path76140"
         style="fill:#e5c892;fill-opacity:1"
         d="m 600.96875,-536.18945 c -0.49408,0.51409 0.23612,1.18047 0.52176,1.64383 2.7558,3.58919 5.99544,6.75851 9.11691,10.02023 5.48014,5.87537 10.29185,12.59512 13.16797,20.02148 1.1265,2.79961 1.81804,5.64991 2.55085,8.59047 0.63242,2.22799 1.37565,4.64577 3.21266,6.18765 0.81044,0.63806 1.78355,-0.0812 2.66551,-0.13959 6.6476,-1.33741 13.30304,-2.50619 20.03181,-3.37517 11.22818,-1.34743 22.54093,-2.19465 33.82142,-2.84713 4.53113,-0.25902 9.06717,-0.41353 13.60252,-0.57638 0.42515,-0.26914 1.62385,-0.54933 0.54928,-0.79703 -0.86305,-0.50266 -1.91271,-0.1742 -2.86483,-0.28018 -2.88677,-0.0643 -5.85449,0.0594 -8.63228,-0.26276 -2.54251,-0.44133 -4.99033,-1.36408 -7.57611,-1.58429 -3.85974,-0.3663 -7.56581,-1.66559 -11.26579,-2.84796 -6.50406,-2.16184 -13.03838,-4.27853 -19.30359,-7.07903 -11.57169,-5.06359 -22.75083,-11.01688 -33.65891,-17.36775 -4.82952,-2.88461 -9.70225,-5.73316 -14.4064,-8.78563 -0.40333,-0.26121 -1.08653,-1.08965 -1.53278,-0.52076 z m 259.50195,16.6914 c -2.11394,0.52173 -4.10525,1.4593 -6.137,2.23303 -7.93754,3.16415 -15.70341,6.73604 -23.57784,10.05213 -8.99662,3.74583 -18.30468,6.79183 -27.77155,8.95615 -8.6802,2.04185 -17.603,3.44738 -26.43813,4.95426 -0.59952,0.0904 -1.19519,0.19208 -1.68876,0.57201 0.34708,0.66344 1.03871,0.8655 1.72623,0.98791 5.95714,1.25972 11.95156,2.19583 17.92007,3.38976 11.45566,2.22813 22.90372,4.52181 34.23679,7.33677 1.96285,0.52015 3.95845,0.99479 5.82394,1.79728 1.1323,0.0979 1.56172,-1.21237 1.88333,-2.0622 0.98603,-3.18807 1.96523,-6.3886 3.32956,-9.44171 3.09448,-7.13369 7.5755,-13.75315 12.99574,-19.37606 1.85891,-2.01146 4.01671,-3.81725 6.01891,-5.72344 0.83242,-0.90708 1.75396,-1.79132 2.29981,-2.90831 0.15301,-0.40717 -0.19398,-0.83027 -0.6211,-0.76758 z" /><path
         id="path76139"
         style="fill:#f7818b;fill-opacity:1"
         d="m 735.80273,-553.0957 c -6.31753,0.32403 -12.52237,1.76886 -18.5625,3.58398 -2.08155,0.72794 -4.31172,1.29289 -6.08203,2.66602 0.16896,1.10317 0.96154,1.99291 1.48211,2.95382 3.99536,6.26815 10.52699,10.51802 17.42155,13.00277 6.61626,2.33237 13.74392,3.36368 20.74048,2.67017 7.4805,-0.77434 14.94044,-3.33743 20.79785,-8.15248 2.16855,-1.7685 3.98399,-3.93481 5.44278,-6.31803 -2.24484,-2.12971 -4.58095,-4.22096 -7.36386,-5.62761 -4.94687,-2.59367 -10.5537,-3.62876 -16.0795,-4.00716 -1.56335,-0.074 -3.4469,0.13968 -4.35156,1.59961 -0.79916,1.18259 -0.93723,2.64786 -1.53125,3.92188 -0.53627,-1.40405 -0.82349,-2.99132 -1.97483,-4.06446 -1.99176,-1.95966 -4.97278,-2.21802 -7.62243,-2.26939 -0.77291,-0.0175 -1.54449,0.0154 -2.31681,0.0409 z" /><path
         id="path76138"
         style="fill:#919191;fill-opacity:1"
         d="m 742.52539,-635.08203 c -6.62487,0.1391 -13.47454,0.60452 -19.54574,3.5022 -1.42256,0.75754 -3.08002,1.54005 -3.78305,3.08407 -0.4226,0.97692 0.42905,2.00296 1.41272,2.10178 3.78802,0.85795 7.66839,1.21407 11.519,1.68264 11.87715,1.29439 23.79537,2.26432 35.7292,2.84035 5.86788,0.20467 11.74795,0.31561 17.61558,0.0688 0.68637,-0.0133 1.61495,-0.0671 1.7578,-0.913 0.25649,-1.32617 -0.90168,-2.37763 -1.77456,-3.19967 -4.22089,-3.60876 -9.67168,-5.30096 -15.00126,-6.48493 -8.70784,-1.86515 -17.62996,-2.66159 -26.53008,-2.69077 -0.46653,0.003 -0.93307,0.006 -1.39961,0.009 z m 18.66602,189.60937 c -7.9027,0.059 -15.76369,0.8824 -23.65403,1.15562 -1.05133,0.0983 -2.1567,-0.0111 -3.17317,0.22119 -0.7048,0.27637 -1.20405,0.54879 -0.1906,0.79213 0.82764,0.37587 1.79958,0.096 2.68884,0.19179 3.66803,0.0692 7.38925,-0.0671 11.0106,0.24865 0.75316,0.0732 1.72053,0.28115 1.84275,1.1793 0.0709,0.71925 0.44548,1.01732 1.16305,0.83836 7.23768,-0.0755 14.47531,-0.30893 21.71351,-0.24235 0.86259,0.0834 1.84027,-0.0544 2.60295,0.41805 0.3113,0.70868 1.16732,0.89947 1.83353,0.58804 3.12802,-0.98415 6.39529,-1.35081 9.65085,-1.60171 0.83903,-0.16833 1.80302,-0.0722 2.52734,-0.5918 0.37756,-0.52838 -0.2143,-1.01827 -0.74979,-0.99138 -2.90044,-0.26346 -5.83267,0.28531 -8.72091,-0.14534 -1.63393,-0.3942 -3.17423,-1.13534 -4.862,-1.32143 -4.519,-0.70338 -9.11825,-0.7558 -13.68292,-0.73912 z" /><path
         id="path76137"
         style="fill:#3da7dd;fill-opacity:1"
         d="m 727.76172,-790.11328 c -29.5457,0.12271 -59.09829,0.37913 -88.62387,1.5506 -19.07708,0.79325 -38.16462,1.92803 -57.10074,4.43768 -16.64885,2.23555 -33.23366,5.73649 -48.87415,11.97524 -15.7925,6.17799 -30.29464,15.8204 -41.70696,28.40183 -11.62114,12.71947 -19.93667,28.31004 -24.61396,44.85859 -1.26699,4.27289 -2.11088,8.68608 -3.09595,13.00262 -0.27248,0.46773 -0.14807,1.07607 0.45118,1.13477 2.47274,0.28888 4.97662,0.0957 7.46102,0.23302 13.38233,0.41661 26.73233,1.46091 40.06425,2.74982 6.98439,0.66456 13.97429,1.52641 20.92199,2.45568 0.89895,0.12467 2.20223,0.14531 2.47852,-0.95415 0.35042,-2.19452 0.61499,-4.41706 1.26461,-6.5535 2.05166,-7.51074 6.94008,-14.11914 13.3272,-18.52874 7.83437,-5.48706 17.45955,-7.92193 26.8826,-8.34077 4.13357,-0.23274 8.20431,0.11588 12.32246,0.35856 1.57003,0.11269 3.27674,-0.12545 4.42191,-1.31308 3.45099,-3.3443 6.92384,-6.67398 10.62286,-9.74718 12.22455,-10.30533 26.1245,-18.59374 40.86377,-24.66072 24.23124,-10.00503 50.40114,-14.23976 76.45865,-15.34933 24.34247,-0.92161 48.75444,1.72928 72.2284,8.18066 15.57832,4.31647 30.70137,10.29539 44.60586,18.6103 11.36095,6.84405 21.95791,15.30798 29.9231,25.99937 0.88307,1.0577 1.54179,2.6949 3.10787,2.82881 2.03242,0.0619 4.00988,-0.57945 6.02952,-0.73387 7.38532,-0.88283 15.10417,-0.13505 21.99224,2.92114 6.55668,2.84673 12.15675,7.91731 15.72434,14.0432 2.95469,5.03759 4.64667,10.58226 5.36717,16.35461 0.0878,0.6877 0.16295,1.37699 0.24611,2.06531 16.34154,1.31053 32.57844,3.70283 48.6596,6.83001 5.5709,1.10697 11.15312,2.30425 16.62946,3.63874 0.56791,0.0566 0.82353,0.32517 1,0.80078 0.4888,0.51067 1.24608,-0.16008 1.04289,-0.7643 -0.21605,-1.46757 -0.58931,-2.82502 -0.76862,-4.32794 -2.42849,-17.5311 -6.84594,-34.95619 -14.80433,-50.8383 -6.53905,-13.13772 -15.64046,-25.0516 -26.93055,-34.46183 -12.56133,-10.56295 -27.56331,-17.92729 -43.19831,-22.7204 -9.71981,-3.02376 -19.72729,-5.01403 -29.78408,-6.52473 -32.10643,-5.05996 -64.63268,-6.66588 -97.0933,-7.29021 -15.83219,-0.30323 -31.66805,-0.36179 -47.50276,-0.32229 z" /><path
         id="path76136"
         style="fill:#e2813e;fill-opacity:1"
         d="m 728.44141,-750.30273 c -22.84795,0.1933 -45.76546,3.64513 -67.36958,11.18007 -16.59206,5.80801 -32.42099,14.18503 -45.79894,25.67197 -4.28621,3.61502 -8.26468,7.57198 -12.28469,11.47552 -0.96776,0.89409 -2.14925,1.99981 -3.58781,1.61775 -2.60544,-0.65231 -5.15288,-1.53584 -7.79094,-2.06613 -8.61807,-1.8808 -17.81876,-2.17717 -26.26721,0.65851 -6.29499,2.07992 -12.07011,6.23865 -15.30525,12.1138 -2.91534,5.1431 -3.67113,11.26179 -2.97379,17.07078 0.0935,1.02992 0.19615,2.05897 0.29618,3.08827 2.46078,-5.40804 4.47185,-11.05992 7.6364,-16.11664 1.89653,-3.06858 4.61376,-5.69622 7.9889,-7.0655 2.57804,-1.19297 5.46498,-1.67185 8.32665,-1.61278 5.80625,0.0957 11.58986,1.38879 16.92542,3.66873 2.80132,1.26548 5.69707,2.8488 7.31598,5.57541 0.50834,0.79534 1.4368,1.68653 2.44344,1.17732 1.55809,-0.8254 2.8065,-2.12941 4.2062,-3.18434 3.39953,-2.76228 6.72171,-5.62379 9.82012,-8.72358 4.34084,-3.9754 9.27927,-7.20251 14.33032,-10.22733 10.51063,-6.18209 21.6438,-11.26083 33.02182,-15.59205 10.82315,-4.07492 21.94841,-7.48789 33.34217,-9.44611 14.02861,-2.37446 28.27079,-2.96204 42.49347,-2.36967 14.07894,0.61909 28.16374,2.39557 41.88171,5.70938 8.27368,2.03347 16.46164,4.60415 24.13263,8.34974 2.90279,1.44339 5.84097,3.12016 8.4361,5.05459 2.63124,1.94179 5.0311,4.24557 6.80218,7.01182 -0.45348,1.1206 -1.46805,2.23675 -1.12891,3.51953 0.61014,1.1868 2.07934,1.44274 3.21359,1.90947 8.56923,2.83692 17.15879,6.31814 24.10547,12.23265 5.24853,4.38917 9.24872,10.05184 12.58106,15.97817 0.88392,1.50861 2.02641,3.22757 3.9241,3.4383 2.89889,0.34466 5.85803,0.0503 8.69955,-0.57721 1.30673,-0.28457 2.81334,-0.86879 3.22582,-2.28484 0.6246,-1.72672 0.10778,-3.67083 1.31877,-5.17896 2.13246,-2.97921 3.97319,-6.39999 7.24219,-8.30469 3.66538,-2.15923 8.1439,-2.05266 12.20487,-1.69871 3.97187,0.33684 7.85935,1.20307 11.78351,1.80204 0.57808,0.15584 1.47825,-0.16822 1.22647,-0.89435 -0.62478,-1.09169 -1.73379,-1.82511 -2.60449,-2.71816 -4.86836,-4.40239 -11.00895,-7.79239 -17.67224,-8.14847 -5.4015,-0.3535 -10.843,1.67961 -14.80544,5.34098 -1.10488,0.905 -1.92824,2.17016 -3.19618,2.85646 -0.67314,0.0551 -1.01983,-0.77219 -1.42126,-1.19963 -3.89177,-5.49682 -7.9472,-10.90761 -12.68024,-15.71692 -8.36367,-8.79182 -18.28625,-16.00191 -28.93826,-21.7697 -17.10657,-9.25228 -35.91968,-15.05595 -55.03736,-18.37112 -13.22155,-2.27075 -26.64792,-3.3314 -40.0625,-3.23437 z m 12.73047,99.08203 c -4.69741,0.11877 -9.31189,1.10827 -13.95709,1.73029 -4.32643,0.72031 -8.71935,1.17459 -12.94606,2.38329 -2.98301,0.9306 -5.55163,2.78022 -8.26392,4.27535 -1.34856,0.86805 -2.81509,1.58828 -4.03411,2.63646 -0.40044,0.55815 0.10648,0.9302 0.67071,0.80857 6.27807,-1.23472 12.56084,-2.47362 18.90687,-3.31734 17.9687,-2.4882 36.47311,-2.7266 54.24653,1.45048 3.50065,0.7932 6.93229,1.86045 10.36339,2.89618 0.4686,0.12371 0.93845,-0.39698 0.61524,-0.82617 -2.07704,-2.04677 -4.78843,-3.28379 -7.40454,-4.49028 -4.48707,-1.95873 -9.22804,-3.3825 -14.10328,-3.9316 -5.32459,-0.77443 -10.59131,-1.75145 -15.86412,-2.83952 -2.71329,-0.49967 -5.46605,-0.82927 -8.22962,-0.77571 z m -190.72657,149.62109 c -1.52571,0.11472 -2.52701,1.49102 -3.51302,2.50337 -3.85204,4.56678 -7.1326,9.57446 -10.57216,14.45061 -7.4122,10.71354 -13.66291,22.26955 -18.09842,34.53325 -2.49744,6.88257 -4.57281,13.92525 -6.16583,21.07414 -0.26823,1.43293 -0.63134,3.23376 0.58381,4.35269 0.7699,0.36793 1.09382,-0.64687 1.28281,-1.20346 2.4916,-7.1565 4.63511,-14.46512 7.74954,-21.36654 0.68687,-1.60543 1.63987,-3.06656 2.65634,-4.47687 1.22365,-1.98445 2.17931,-4.15122 3.74013,-5.913 2.49161,-3.22085 4.26411,-6.92945 6.77821,-10.13778 1.84815,-2.40783 2.45419,-5.44507 3.8449,-8.0941 3.07131,-5.97354 7.13029,-11.3645 10.44764,-17.19458 1.13317,-2.13083 2.41957,-4.27881 2.81683,-6.69179 0.19357,-0.96877 -0.59208,-1.81606 -1.55078,-1.83594 z m 323.15039,7.07813 c -1.01433,0.19613 -1.38966,1.34109 -1.88672,2.11718 -1.30116,2.45607 -0.84646,5.41745 0.29258,7.84019 2.00005,4.32069 5.10306,7.99933 8.12748,11.63161 4.17912,4.93717 8.80904,9.49403 12.49155,14.80267 4.35006,6.1804 8.21085,12.79332 12.12993,19.29183 4.56778,7.62963 9.04514,15.31223 13.71586,22.87811 0.3424,0.51806 0.71035,1.31924 0.91857,0.27842 0.43154,-0.93607 -0.0502,-1.99792 -0.12338,-2.97014 -0.74844,-3.92044 -1.53017,-7.85991 -2.84854,-11.63558 -2.47036,-6.60227 -5.82405,-12.8276 -9.24274,-18.97603 -7.91165,-13.965 -16.82303,-27.38914 -27.04252,-39.77769 -1.60492,-1.82315 -3.13422,-3.80844 -5.20168,-5.13236 -0.40081,-0.22837 -0.86161,-0.41022 -1.33039,-0.34821 z m -320.24804,69.55078 c -2.83892,0.75187 -5.38862,2.56933 -7.03334,5.00848 -2.92622,4.32005 -3.53494,9.79958 -2.9689,14.88091 0.73917,6.23452 3.24981,12.27494 7.20373,17.156 2.32319,2.86486 5.66392,4.7923 9.24645,5.59307 4.05218,0.95816 8.24471,1.07491 12.39029,1.14541 0.94257,0.0843 1.92461,-0.45773 2.12508,-1.42736 0.40132,-1.38305 -0.44571,-3.06429 -1.92547,-3.31681 -4.33043,-1.53428 -8.77008,-2.69258 -12.83298,-4.87736 -2.12943,-1.13408 -3.97897,-2.87276 -5.11111,-5.07055 -2.08849,-3.77692 -2.61356,-8.18521 -2.70202,-12.39957 -0.0554,-4.95426 0.46358,-9.92985 2.02732,-14.67398 0.16358,-0.61344 0.81086,-1.51736 0.0419,-1.9616 -0.15194,-0.0408 -0.30174,-0.0793 -0.46093,-0.0566 z m 319.92187,20.05078 c -8.03487,0.28412 -16.07404,0.51222 -24.10235,0.93765 -6.31745,0.41688 -12.85775,1.34736 -18.35323,4.71194 -2.59667,1.53214 -4.80312,3.60422 -7.02684,5.61603 8.15922,-0.7918 16.32274,-1.21657 24.5293,-0.86718 8.67053,0.35159 17.31093,1.53862 25.8068,3.46801 3.16587,0.66717 6.69287,0.73809 9.60084,-0.86578 1.49393,-0.79441 2.58984,-2.4939 2.21091,-4.21992 -0.57051,-3.85466 -3.2792,-7.55007 -7.11053,-8.65103 -1.81094,-0.46142 -3.71071,-0.0866 -5.5549,-0.12972 z" /><path
         id="path76135"
         style="fill:#289ad6;fill-opacity:1"
         d="m 464.89258,-685.52539 c -0.47125,0.004 -1.14317,-0.007 -1.18946,0.60742 -1.11218,4.86586 -1.92942,9.7957 -2.75865,14.7169 -1.99127,12.25568 -3.01551,24.64548 -3.64031,37.03926 -0.22686,0.67112 0.14597,1.02877 0.7398,1.26838 7.10763,4.42189 14.94169,7.58453 23.00889,9.76877 11.74284,3.20068 23.80106,5.03214 35.83277,6.76726 9.6013,1.32868 19.21929,2.56641 28.85432,3.62561 0.54557,0.0701 1.292,0.19059 1.46334,-0.49497 1.11401,-3.0013 1.83626,-6.1344 2.615,-9.23569 0.26222,-1.3254 0.73823,-2.65606 0.68401,-4.01474 -0.72401,-2.41275 -2.13629,-4.57709 -3.24448,-6.80406 -3.11685,-5.94113 -6.11299,-12.11482 -8.09179,-18.45703 -1.73675,-5.57927 -2.87321,-11.31794 -3.49153,-17.10915 -0.37786,-3.65044 -0.80965,-7.31604 -0.69597,-10.99827 0.008,-0.53393 0.417,-1.46961 -0.30664,-1.63477 -0.46361,-0.096 -0.80965,0.47055 -1.36915,0.23242 -4.86091,-0.51187 -9.69793,-1.24013 -14.55911,-1.75818 -17.49524,-1.9369 -35.07286,-3.27398 -52.67877,-3.52353 -0.39076,0.001 -0.78152,0.003 -1.17227,0.004 z m 455.73437,10.54297 c -0.60297,0.58147 -0.3875,1.5805 -0.46037,2.35504 -0.13626,5.92988 -1.54452,11.83356 -3.30697,17.50494 -1.42854,4.5812 -3.33058,8.99535 -5.4075,13.3153 -0.26177,0.6721 -0.88026,1.68725 -0.0927,2.22706 10.55631,4.11377 21.29795,7.72752 32.06326,11.25379 7.28443,2.39107 14.62517,4.59455 21.96603,6.79895 8.55037,2.64216 17.13061,5.18893 25.67774,7.84179 0.59828,-0.11018 0.54672,-0.73273 0.41406,-1.20312 -1.26674,-14.75314 -2.22688,-29.53137 -3.41406,-44.29102 -0.21513,-1.63692 -0.17881,-3.35295 -0.7793,-4.91015 -0.37635,-0.83198 -1.37835,-0.46128 -2.06066,-0.73998 -8.13589,-1.84179 -16.30685,-3.62006 -24.53541,-5.04455 -13.21613,-2.33031 -26.53725,-4.04575 -39.90588,-5.21938 l -0.0818,0.0575 z" /><path
         id="path76134"
         style="fill:#218ccd;fill-opacity:1"
         d="m 911.41406,-640.54883 c -0.96324,0.37498 -1.31296,1.50473 -1.7785,2.34399 -0.91053,2.08722 -1.77524,4.27554 -1.89533,6.57203 0.24407,1.71369 1.36539,3.13445 2.17171,4.62161 5.33794,8.8802 9.2632,18.66999 11.01579,28.90378 0.9805,5.78259 1.2884,11.84418 0.77055,17.77251 -0.33916,4.05898 -1.06457,8.08465 -2.13021,12.07463 -0.29143,0.67384 0.0739,1.57583 0.89677,1.53762 2.23333,-0.10041 4.42685,-0.63018 6.64469,-0.89761 12.94947,-1.83842 26.01713,-3.01093 39.11352,-3.1395 4.91638,0.0199 9.82775,0.0369 14.6719,0.93764 2.90885,0.56998 5.49002,2.15494 7.9488,3.7401 1.00913,0.61894 1.68136,1.48137 2.7207,2.07617 0.76879,0.26738 0.76228,-0.3005 0.71319,-0.91164 -0.15359,-14.27248 -0.47337,-28.54314 -0.76958,-42.8134 -0.0702,-2.31877 -0.078,-4.64051 -0.20923,-6.9566 -1.84386,-0.75443 -3.81955,-1.13778 -5.70428,-1.78236 -7.72551,-2.37271 -15.46763,-4.69373 -23.191,-7.07139 -14.41427,-4.26546 -28.73986,-8.98443 -42.88055,-14.08931 -2.64653,-0.93754 -5.25136,-1.98925 -7.89605,-2.93194 -0.0741,-0.0329 -0.1423,-0.0103 -0.21289,0.0137 z m -453.96875,8.04492 c -0.38126,3.57141 -0.4111,7.17159 -0.60919,10.75747 -0.47103,10.25927 -0.85667,20.52257 -1.37323,30.77964 0.10977,0.34425 -0.45651,1.36011 0.14854,1.43379 17.08574,4.25564 34.21636,8.35195 51.49765,11.7383 9.5367,1.87866 19.07993,3.72877 28.6703,5.31508 4.34356,0.71037 8.66862,1.5607 13.03144,2.13255 0.56482,0.17216 1.22408,-0.37216 0.85445,-0.94227 -2.28189,-5.37458 -3.47402,-11.09444 -4.01122,-16.87353 -0.6758,-7.71915 -0.32421,-15.55065 1.63195,-23.08758 -0.037,-0.45161 0.72199,-1.48327 0.0844,-1.49725 -5.52783,-0.33083 -11.09322,-1.15252 -16.63241,-1.82903 -11.28208,-1.48468 -22.586,-3.01673 -33.81879,-4.9198 -8.51607,-1.49654 -16.90351,-3.55372 -24.90529,-6.85047 -4.96558,-2.00044 -9.70136,-4.50479 -14.47877,-6.9069 -0.03,0.25 -0.0599,0.5 -0.0899,0.75 z" /><path
         id="path76133"
         style="fill:#1d81c7;fill-opacity:1"
         d="m 455.87891,-590.29492 c -0.4728,0.5516 -0.26703,1.41574 -0.37145,2.10335 -0.3059,9.60667 -0.26387,19.22067 -0.41996,28.83042 -0.0759,3.67139 -0.0494,7.35053 -0.25086,11.016 -0.27235,0.60535 0.384,1.31927 0.9644,0.8838 0.65722,-0.84206 0.57817,-2.02884 0.7231,-3.04651 0.0525,-0.36128 -0.0181,-1.07173 0.56645,-0.92558 2.30091,0.25379 4.51365,1.02483 6.77108,1.51939 15.65458,3.92298 31.59784,6.62744 47.6482,8.29817 10.96107,1.15221 21.96372,1.91726 32.97255,2.41276 0.83651,0.008 2.10822,0.0851 2.3356,-0.96738 2.51207,-8.75511 3.8867,-17.92298 3.1788,-27.03593 -0.1551,-1.17793 0.19102,-2.68814 -0.71948,-3.66466 -1.14767,-0.91802 -2.73914,-0.83055 -4.10937,-1.13868 -8.22255,-1.32177 -16.4496,-2.70602 -24.62282,-4.23702 -10.94902,-2.13421 -21.88368,-4.2828 -32.7744,-6.68694 -10.20857,-2.29649 -20.35967,-4.78084 -30.51943,-7.26967 -0.42598,-0.0194 -1.03481,-0.41713 -1.37241,-0.0915 z m 512.1875,18.40039 c -12.2489,0.24351 -24.47999,1.19826 -36.64165,2.6569 -4.03544,0.48497 -8.05262,1.10249 -12.07124,1.71224 -1.52546,4.62239 -3.12413,9.15477 -5.1863,13.57804 -3.8584,8.45663 -8.73233,16.44893 -14.47114,23.75841 -0.26917,0.43515 -0.76433,0.90791 -0.6934,1.41984 0.17382,0.53479 0.72225,0.46188 1.1106,0.19683 3.59117,-2.6297 7.46659,-4.91189 11.60168,-6.57745 5.04504,-1.95694 10.54067,-2.09681 15.85561,-2.36761 12.95672,-0.48412 25.96588,-0.37922 38.85039,-2.00681 4.6615,-0.59556 9.37165,-0.97993 13.94504,-2.10378 2.75942,-0.67849 5.61393,-1.97498 7.09497,-4.53342 1.14803,-1.87939 1.64667,-4.05808 2.10934,-6.18632 0.41159,5.95982 0.90032,11.91379 1.39047,17.86729 0.15163,1.04708 0.0116,2.18285 0.41731,3.16856 0.18641,0.87124 0.68481,0.23366 0.93521,-0.21732 0.24147,-2.28512 0.11371,-4.60009 0.16299,-6.89704 -0.003,-8.7096 -0.0675,-17.41903 -0.1052,-26.12852 -3.11356,-3.00996 -7.04196,-5.07687 -11.13695,-6.40684 -3.15993,-0.96104 -6.50991,-0.85848 -9.77782,-0.94599 -1.12999,-0.009 -2.25999,-10e-5 -3.38991,0.013 z" /><path
         id="path76132"
         style="fill:#1976bf;fill-opacity:1"
         d="m 989.2207,-555.71484 c -0.81995,3.22384 -1.07295,6.75215 -3.03125,9.55664 -1.83711,2.51344 -5.04484,3.32188 -7.93253,3.92745 -4.62542,0.87503 -9.29699,1.3253 -13.99977,1.88849 -12.08219,1.39908 -24.30989,1.2728 -36.47715,1.78082 -6.52626,0.35426 -13.26717,0.74408 -19.29641,3.51359 -3.21859,1.42909 -6.05125,3.54577 -8.93428,5.53373 -1.38965,0.4402 -2.07998,1.87888 -2.85447,3.00428 -2.37188,4.0199 -4.32321,8.31567 -5.60442,12.80897 -0.88343,3.65578 -1.63835,7.59711 -0.36093,11.25819 1.40177,4.05718 4.05978,7.505 6.4336,11.02935 1.75451,2.46057 3.36829,5.04063 5.34485,7.33392 0.88238,1.13222 2.42643,0.89445 3.68696,0.97331 6.7628,0.12914 13.53349,0.1024 20.29188,-0.17093 15.02889,-0.77088 30.04513,-3.23975 44.25111,-8.29119 6.23701,-2.17283 12.26667,-4.88681 18.18266,-7.8127 0.50591,-0.24203 1.01822,-0.46988 1.53257,-0.6933 0.47438,2.47418 0.26228,5.0172 0.49964,7.51097 0.12635,0.2932 0.091,1.84677 0.33629,1.21286 0.36105,-0.83683 0.8144,-1.65893 0.71435,-2.60049 0.23031,-10.38769 0.37096,-20.77861 0.35554,-31.16903 -0.0332,-3.76488 -0.061,-7.53535 -0.49216,-11.28039 -0.55375,-6.05523 -0.912,-12.12699 -1.43905,-18.18368 -0.12535,-0.54239 0.0162,-1.40587 -0.70142,-1.50958 -0.43742,-0.30502 -0.34402,0.0868 -0.50561,0.37872 z m -532.85156,3.14843 c -0.79498,0.14961 -0.76025,1.19157 -0.90235,1.82648 -0.44466,4.21616 -0.33918,8.46861 -0.38984,12.70281 -0.006,7.44278 0.0625,14.88543 0.091,22.32814 24.91854,2.13226 49.83085,4.33893 74.74766,6.48946 0.96316,-0.0206 1.901,0.49653 2.8832,0.14725 1.0953,-0.44893 1.50049,-1.69869 2.13225,-2.60806 2.5959,-4.59224 5.01476,-9.30223 7.0264,-14.18222 1.69283,-4.36419 3.32625,-8.76196 4.60897,-13.26557 0.15304,-0.46199 0.17655,-1.03733 -0.35942,-1.23126 -1.34829,0.17281 -2.73984,-0.0439 -4.10345,-0.0492 -22.4892,-1.04939 -44.98655,-3.24301 -67.0061,-7.99232 -5.67561,-1.17191 -11.27701,-2.67773 -16.92951,-3.94282 -0.59413,-0.098 -1.19351,-0.26078 -1.79883,-0.22266 z" /><path
         id="path76131"
         style="fill:#106bb7;fill-opacity:1"
         d="m 455.0332,-516.22461 c 0.0838,10.96894 0.37328,21.93583 0.55399,32.90367 0.22969,10.35803 0.37441,20.71935 0.68039,31.07485 0.008,0.51759 0.32954,1.36611 0.97265,1.0625 0.51471,-0.38771 0.96992,-0.90587 1.57032,-1.20899 7.5977,-4.52647 15.86855,-7.9367 24.48242,-9.96289 8.24144,-1.99507 16.73738,-2.87338 25.19141,-3.55859 3.20253,-6.61635 6.49606,-13.20066 10.27485,-19.52065 4.61907,-7.80717 9.41183,-15.56121 14.3034,-23.22153 0.4169,-0.61497 0.87986,-1.19571 1.25182,-1.84181 -0.58961,0.006 -1.22986,-0.12613 -1.66601,0.36328 -0.98224,0.24168 -2.00781,-0.15423 -3.00679,-0.15885 -16.82175,-1.47935 -33.64601,-2.93399 -50.46855,-4.40576 -8.04468,-0.69912 -16.09031,-1.38762 -24.13404,-2.0975 -0.002,0.19076 -0.004,0.38152 -0.006,0.57227 z m 535.51953,14.99609 c -2.8993,1.1355 -5.62032,2.68742 -8.47349,3.93733 -11.07118,5.07046 -22.75702,8.6551 -34.75697,10.69158 -13.89247,2.37645 -28.07053,2.82571 -42.17875,2.36492 -0.72116,-0.0824 -1.54391,0.0172 -2.13961,-0.4782 -0.70799,0.0491 -0.85016,0.5738 -0.4043,1.09375 4.13793,4.91808 7.66061,10.31379 11.19172,15.67369 2.86357,4.37674 5.51793,8.88449 8.13953,13.4081 0.53636,0.74816 0.91882,1.7113 1.71953,2.20532 1.18967,-0.003 2.3904,-0.41848 3.57682,-0.61224 16.10555,-3.47861 32.52121,-5.50835 48.97495,-6.14737 4.8033,-0.22863 9.62073,-0.0631 14.41893,-0.37711 0.46167,-0.0332 0.68467,-0.40492 0.54297,-0.8418 0.23719,-7.90197 0.82044,-15.79222 0.86698,-23.70046 0.0182,-5.14589 0.11404,-10.3117 -0.40775,-15.43715 -0.12009,-0.62394 -0.14844,-1.9218 -1.07056,-1.78036 z" /><path
         id="path76130"
         style="fill:#a15827;fill-opacity:1"
         d="m 723.00781,-734.44531 c -17.4501,0.1466 -34.88565,2.76653 -51.55621,7.94134 -15.57565,4.78833 -30.43566,11.68586 -44.60517,19.69141 -5.97775,3.45801 -11.89195,7.20338 -16.75444,12.16183 -3.9177,3.56947 -7.95259,7.0213 -12.17438,10.22698 -0.32055,0.34267 -0.79522,0.45301 -1.13695,0.0619 -1.3107,-1.25241 -1.80401,-3.26011 -3.49447,-4.14255 -3.98439,-2.23532 -8.23962,-4.02204 -12.65614,-5.20412 -5.78327,-1.53819 -12.16921,-1.89169 -17.76638,0.53615 -4.27122,1.81602 -7.66209,5.33411 -9.7257,9.45167 -2.10082,4.02673 -3.97913,8.18968 -5.36453,12.51951 -0.33108,0.98136 -0.4755,2.02652 -0.1508,3.03227 1.58276,8.87799 4.74732,17.53478 9.7953,25.04125 1.62353,2.34733 3.24564,4.92419 5.82548,6.31934 1.35754,0.75905 3.11147,0.54929 4.285,-0.45827 0.75835,-0.36996 0.77192,-1.32826 0.36089,-1.96761 -1.94457,-3.6489 -3.99452,-7.24773 -5.7483,-10.99653 -2.30404,-4.85569 -4.34902,-9.85295 -5.77187,-15.04272 -1.1274,-4.32853 -2.03716,-9.12202 -1.20508,-13.68945 0.50687,-2.95846 2.19639,-5.86323 4.98784,-7.17467 4.32389,-2.16462 9.44537,-2.12218 13.99654,-0.72572 4.89468,1.49864 9.4009,4.08256 13.51172,7.09766 0.84857,0.63967 1.81195,1.63865 1.37291,2.79537 -0.79976,2.17381 -2.37365,3.94624 -3.49709,5.95193 -4.85438,7.83195 -8.06317,16.51358 -11.22795,25.12291 -1.18562,3.22591 -2.27541,6.48749 -3.12311,9.81938 -1.52332,5.6584 -4.54069,10.75062 -6.78735,16.16756 -4.05847,9.6299 -6.06508,20.12119 -5.71071,30.57223 0.12914,3.46752 0.36782,6.95055 0.99087,10.36554 0.24329,0.55437 0.98582,0.85058 1.05379,0.0108 2.94847,-7.08788 5.21101,-14.50323 9.07434,-21.17975 3.71553,-6.58075 8.84908,-12.42045 15.20664,-16.55433 6.82508,-4.51168 14.77518,-7.18596 22.75342,-8.97469 7.3647,-1.55395 14.86456,-2.03791 22.3625,-2.26597 8.04344,-0.16909 16.12348,0.001 24.05908,1.1846 2.89409,0.44385 5.67912,1.22542 8.53516,1.88086 12.04646,-4.47812 24.07438,-9.01036 36.14648,-13.41797 1.73226,-0.37873 3.11584,-1.55002 4.5992,-2.4516 4.15934,-2.68745 8.49579,-5.4094 13.42584,-6.44849 4.69468,-1.01837 9.47842,-1.54396 14.21673,-2.31636 5.27906,-0.82056 10.67549,-1.65354 16.00271,-0.74653 4.1607,0.67464 8.26227,1.66783 12.42822,2.31559 5.25818,0.97913 10.67886,1.28162 15.7485,3.10691 3.96834,1.36338 7.59742,3.44495 11.0589,5.8219 3.08119,1.84162 6.42933,3.18323 9.68637,4.67546 8.86364,3.88718 17.75396,7.74584 26.61673,11.60367 2.60423,1.11468 5.44403,0.26617 8.0957,-0.17339 5.60877,-1.12392 11.28133,-2.06548 16.97071,-2.31294 8.77223,-0.43734 17.66062,0.60117 25.98594,3.20878 6.34663,1.97473 12.4766,4.78188 18.20245,8.22026 3.46299,2.11955 6.31782,5.01434 9.24699,7.84199 0.83579,0.77514 1.61185,1.64419 2.66814,2.12545 0.028,-2.23964 -1.05767,-4.27327 -1.89286,-6.29046 -1.30333,-2.83157 -2.66986,-5.69273 -4.7642,-8.03845 -4.01448,-5.10065 -7.75393,-10.43462 -10.47185,-16.35663 -0.47482,-0.89184 -0.73809,-1.94295 -0.30927,-2.90726 0.41647,-1.10782 -0.75868,-1.82392 -1.20636,-2.67087 -0.7684,-1.86089 -1.00873,-3.88943 -1.63859,-5.79851 -2.22077,-7.53431 -4.94531,-14.92028 -8.09109,-22.11655 -1.073,-2.24137 -1.97694,-4.63458 -3.61211,-6.54197 -1.03214,0.005 -1.05521,1.3392 -1.72358,1.88269 -1.66714,1.52185 -4.05714,1.78096 -6.21249,1.98795 -1.90467,0.0637 -3.91593,0.28885 -5.7319,-0.41947 -1.88411,-0.98779 -2.57074,-3.16102 -3.63672,-4.86114 -3.51414,-6.25668 -8.20584,-11.92076 -14.09061,-16.07771 -7.36896,-5.29521 -15.97609,-8.44621 -24.50314,-11.33263 -0.30117,-1.25998 0.42906,-2.39551 0.82422,-3.5332 0.30879,-1.37822 -1.03757,-2.29323 -1.86925,-3.15517 -6.23486,-5.95092 -13.98873,-10.03029 -21.92172,-13.23773 -10.95014,-4.39094 -22.54002,-6.95149 -34.19787,-8.58684 -11.83655,-1.72213 -23.79739,-2.6918 -35.76507,-2.57495 z m -73.0957,30.79101 c 2.27221,0.0602 4.51815,-0.0116 6.74805,0.5 0.62463,0.21762 0.73105,1.26175 -0.0394,1.32671 -4.48031,0.14362 -8.80602,1.56526 -12.9714,3.12264 -3.69359,1.42333 -7.2765,3.21746 -10.55368,5.40417 -0.54984,0.24409 -1.3188,0.7511 -1.87304,0.3125 -0.29773,-1.11201 0.45702,-2.18326 1.02478,-3.08538 1.50522,-2.05327 3.46024,-3.63604 5.56971,-5.01657 2.67452,-1.73014 5.90671,-2.47547 9.02888,-2.50718 1.02142,-0.0448 2.04377,-0.0573 3.06608,-0.0569 z m 237.22851,14.63672 c -3.36857,0.0398 -6.87594,0.89431 -9.43359,3.19922 -2.14897,1.87913 -3.65399,4.34005 -5.31445,6.63086 2.84042,-1.34301 5.65491,-2.78624 8.70215,-3.6138 3.11924,-0.90001 6.2866,-1.61273 9.56737,-1.68035 1.30185,-0.088 2.5932,0.24757 3.67626,0.97874 3.96382,2.27582 6.20583,6.73932 6.66284,11.17884 0.58902,5.10482 -0.80289,10.24676 -3.12257,14.76933 -1.42114,2.9275 -2.14935,6.1439 -3.74639,8.99327 -1.83809,3.56875 -4.32875,6.79083 -6.56974,10.13959 -0.47975,0.48639 -0.0313,1.30246 0.63086,1.1836 1.55642,-0.24342 3.00171,-1.03282 4.26771,-1.94549 2.07465,-2.057 3.77741,-4.45744 5.50275,-6.80658 6.33869,-8.85466 9.9663,-19.76773 9.47454,-30.6997 -0.11209,-3.33794 -0.71117,-6.63233 -1.45008,-9.88222 -6.23467,-1.07923 -12.48839,-2.50098 -18.84766,-2.44531 z m -226.15429,1.78125 c 4.1946,-0.0178 8.42417,0.85487 12.18874,2.56626 6.08941,2.70744 11.01203,7.85014 13.49909,14.02751 1.34852,3.28174 2.16425,6.91258 2.17768,10.50233 0.0516,4.77325 -1.11278,9.58768 -3.05874,13.82334 -2.96432,6.50456 -8.20588,12.54802 -14.90833,15.43017 -4.0664,1.77629 -8.67943,2.16402 -13.01172,1.25977 -2.55422,-0.51843 -5.26473,-1.53446 -7.63895,-2.85209 -6.56508,-3.62635 -11.91299,-9.64465 -14.79256,-16.62107 -2.17256,-5.17381 -2.85834,-11.12397 -1.59957,-16.66744 0.88922,-4.26655 2.8128,-8.42715 5.65412,-11.80081 1.14121,-1.34548 2.55204,-2.72783 4.02062,-3.84313 4.02,-3.11796 9.03003,-5.02358 14.00087,-5.61195 1.15524,-0.13362 2.26654,-0.20019 3.46875,-0.21289 z m 158.52148,2.92383 c 5.86627,-0.0675 11.63059,1.78687 16.35066,5.27233 7.97342,5.89701 12.46014,16.12045 11.6432,25.93525 -0.2968,3.75706 -1.27754,7.31296 -2.96837,10.70103 -2.75403,5.52058 -7.44472,10.10266 -13.16807,12.46834 -6.76843,2.82384 -14.87274,2.60766 -21.49556,-0.6846 -8.50024,-4.09987 -14.53028,-12.66875 -15.88139,-21.96774 -0.52968,-3.58601 -0.40211,-7.38659 0.4457,-11.01712 1.25391,-5.58262 4.22804,-10.98892 8.69612,-14.70743 3.83081,-3.24569 8.54978,-5.21705 13.52615,-5.81647 0.87457,-0.0984 1.87395,-0.16881 2.85156,-0.18359 z m -251.00586,95.78906 c -1.03744,0.27994 -1.46251,1.43781 -2.01304,2.25646 -1.61268,2.76643 -2.87841,5.72942 -4.58266,8.44081 -0.45492,0.5655 -1.30563,0.28765 -1.93947,0.44527 -0.36217,0.24997 0.13672,1.15666 0.11957,1.66843 0.46372,2.18005 0.68285,4.44603 1.51131,6.52888 0.25453,0.69693 1.01807,0.79354 1.66069,0.78739 2.80358,0.47202 4.74269,2.90261 6.01608,5.26913 2.77104,5.43597 6.92775,10.00781 11.22822,14.27251 6.26716,6.06491 13.20575,11.47888 20.78307,15.81236 0.50061,0.38121 1.50217,0.34555 1.49553,-0.44999 -0.20908,-1.22599 -1.20935,-2.13722 -1.97057,-3.06335 -2.09388,-2.22201 -4.52878,-4.08739 -6.66898,-6.26627 -8.40503,-8.22353 -15.79348,-17.72454 -20.40167,-28.61081 -1.87496,-4.455 -3.14827,-9.16304 -3.67102,-13.97097 -0.21753,-1.00789 -0.17523,-2.26165 -1.00651,-2.98899 -0.16309,-0.11191 -0.36626,-0.16115 -0.56055,-0.13086 z m -7.04883,50.53516 c -0.85543,0.3096 -0.47317,1.40018 -0.66625,2.08426 -0.6126,3.85711 -1.92325,7.51493 -3.20376,11.18141 -2.1591,6.11975 -4.88094,11.98654 -7.48155,17.93355 -1.02871,2.37981 -2.00084,4.78261 -2.93945,7.19922 1.25959,-0.54721 2.41436,-1.50836 3.82051,-1.61103 0.68544,0.13358 0.41752,1.06187 0.36308,1.56025 -0.72791,2.96706 -2.32201,5.65308 -3.79317,8.25204 -2.90433,5.01061 -6.50595,9.77738 -9.19165,15.00597 -1.51248,2.95829 -2.17845,6.37729 -4.40385,8.9412 -2.50419,3.45563 -4.38677,7.33558 -7.15039,10.60743 -1.41385,1.80651 -2.20125,4.00286 -3.58818,5.8223 -1.32083,1.66599 -2.02692,3.71806 -2.89379,5.63781 -2.52469,6.0377 -4.5518,12.26398 -6.60592,18.47348 -0.248,0.51123 -0.36246,1.2104 -0.81836,1.55078 -0.45472,-0.38474 -1.29136,-0.59759 -1.53906,0.13281 -0.57072,1.94787 -0.80874,3.98364 -1.16883,5.9798 -0.27376,2.20757 -0.68392,4.48378 -0.22375,6.69208 0.11863,0.75261 0.90383,1.21269 1.61133,0.91211 0.91586,-0.21891 0.51145,-1.31451 0.69311,-1.98368 0.36098,-2.49653 1.12045,-5.02456 2.62684,-7.07745 0.23776,-0.37175 0.94916,-0.92663 1.22692,-0.31973 0.41348,2.13913 0.16367,4.34594 0.35164,6.51118 0.50403,9.43778 3.85659,18.72934 9.67794,26.19559 5.89363,7.67328 14.06287,13.35761 22.88955,17.17822 0.78456,0.32953 1.52586,0.8436 2.4175,0.71298 7.09592,0.30149 14.19912,0.32656 21.30009,0.27117 2.03737,-0.92547 4.16134,-2.02656 5.3418,-4.02149 1.52257,-2.3293 1.2908,-5.53179 -0.37885,-7.72266 -0.81839,-1.08645 -1.83329,-2.03744 -2.92584,-2.83984 -0.60277,-0.40989 -1.21429,0.28767 -1.04297,0.9043 0.26613,0.77642 -0.4733,1.3229 -1.13913,1.49608 -2.18519,0.69156 -4.47231,0.58114 -6.71447,0.43541 -3.46466,-0.3129 -7.01068,-1.00994 -10.17655,-2.46396 -3.46105,-1.65054 -5.8505,-4.87436 -7.67738,-8.1412 -2.86684,-5.34457 -4.43986,-11.42412 -4.35041,-17.49762 0.0906,-3.70095 0.91277,-7.67755 3.62044,-10.38926 1.64781,-1.66449 3.52963,-3.26449 5.80377,-3.96303 1.41676,-0.30369 2.17541,-1.71772 2.97888,-2.78902 2.4448,-3.7491 4.18463,-7.96869 5.87165,-12.04482 1.74202,-3.68471 4.21282,-6.85389 6.98052,-9.84029 3.13753,-3.42069 6.76898,-6.32885 10.43977,-9.14942 1.62786,-1.24786 3.09394,-2.84848 3.59572,-4.89131 0.93053,-3.40259 1.3958,-6.90506 2.54258,-10.19906 0.94074,-2.88919 2.50938,-5.8415 5.333,-7.26268 3.42068,-1.75725 7.35793,-1.81437 11.0586,-2.55955 4.76725,-0.85027 9.5554,-1.66706 14.22754,-2.95511 0.56111,-0.12244 1.30959,-0.50047 0.95704,-1.17969 -1.30505,-2.89825 -2.9771,-5.64412 -4.95899,-8.13086 -3.69928,-4.38456 -8.21375,-7.97421 -12.5645,-11.67666 -6.2141,-5.19775 -12.61051,-10.1812 -18.80483,-15.40551 -4.766,-4.12531 -9.148,-8.69592 -14.16105,-12.53029 -1.49455,-1.04513 -2.92371,-2.23754 -4.58485,-3.00668 -0.18685,-0.0485 -0.39745,-0.0903 -0.58204,-0.0195 z m 307.01368,37.10937 c -6.4312,3.40203 -11.85513,8.48081 -16.30621,14.18929 -2.44221,3.27103 -4.77569,6.80842 -5.68006,10.84667 -0.12217,0.85298 -0.34791,1.75419 -0.32197,2.58785 2.23962,3.68504 4.66797,7.26212 6.72099,11.056 1.33269,2.71319 1.91795,5.71072 2.71225,8.60819 2.93717,11.67592 4.20106,23.67269 5.73828,35.60458 0.2352,1.40737 0.28436,3.0087 1.4043,4.05274 1.87663,1.77855 4.6541,2.13744 6.57332,3.87001 1.82795,1.48042 3.21385,3.289 4.41496,5.28233 0.35228,0.50283 1.18294,0.12351 1.74139,0.24549 1.72598,-0.0386 3.66869,0.0545 5.14533,0.85803 2.43373,1.30687 3.63993,3.98595 4.49115,6.52863 0.56028,1.69772 0.0369,3.75111 -1.52328,4.7304 -2.45388,1.60072 -5.5826,1.46224 -8.3585,1.00268 -10.35482,-2.21842 -20.89418,-3.7528 -31.49987,-3.84604 -5.73863,-0.0596 -11.48819,0.1889 -17.19017,0.83842 -1.17784,0.22343 -2.70039,0.35682 -3.32363,1.54278 -0.42575,1.25573 0.72662,2.30434 1.52574,3.10314 1.22642,1.24582 2.83385,2.10757 3.88051,3.52381 0.20329,0.39704 -0.0523,1.21476 -0.60102,1.0482 -4.32603,0.18281 -8.69236,0.0468 -12.97556,0.76438 -2.30828,0.47196 -4.85812,1.32739 -6.14608,3.45305 -1.24074,2.09353 -0.43939,4.76149 1.0168,6.52736 2.45998,3.11102 6.37229,4.74353 10.24101,5.16209 2.86473,0.79948 5.40322,2.42542 8.11532,3.60686 9.79385,4.61875 20.44492,7.54134 31.27953,8.07474 9.13575,0.35097 18.31957,-0.64382 27.18667,-2.85086 4.90498,-1.23904 9.74237,-2.9548 14.02591,-5.69207 6.78842,-4.27175 12.72796,-10.09264 16.53906,-17.19531 1.61295,-3.24194 1.45847,-6.96132 1.83887,-10.47364 0.36717,-3.92424 0.63407,-7.9322 2.60644,-11.41894 0.77366,-2.15137 0.38689,-4.53771 -0.24991,-6.67443 -0.35517,-1.23346 -1.07331,-2.30517 -1.92565,-3.24564 -2.35253,-3.46838 -4.37593,-7.14925 -6.5526,-10.72926 -4.98695,-8.32051 -9.83378,-16.72539 -14.94514,-24.96753 -3.41057,-5.50634 -7.29836,-10.70983 -11.58762,-15.56072 -4.40895,-5.06493 -9.14496,-9.93916 -12.64825,-15.7125 -1.55426,-2.61826 -2.87354,-5.7904 -1.92091,-8.85601 0.36557,-1.18997 1.00878,-2.26591 1.53321,-3.38867 -1.45289,-1.36847 -2.60633,-3.01426 -3.48188,-4.80383 -0.33875,-0.65196 -0.67841,-1.30346 -1.01617,-1.95594 -0.15885,0.0879 -0.31771,0.17578 -0.47656,0.26367 z" /><path
         id="path76129"
         style="fill:#085faf;fill-opacity:1"
         d="m 507.79102,-466.74414 c -1.19386,0.31517 -2.47609,0.10548 -3.70123,0.2738 -7.15822,0.60326 -14.25855,1.81088 -21.26343,3.38633 -6.67685,1.52113 -13.07257,4.08368 -19.25014,7.00263 -2.24129,1.13865 -4.58947,2.19608 -6.49224,3.87044 -0.73438,1.11559 -0.64616,2.5476 -0.73001,3.83191 -0.0345,2.69115 0.14456,5.40863 0.7808,8.02942 0.88972,-1.81382 1.14093,-3.85891 1.99609,-5.68164 0.32078,-0.74974 1.10723,-0.0308 1.5293,0.23242 0.59872,0.44782 1.23783,0.90127 1.90429,1.20508 0.0984,0.52188 0.78774,0.36252 0.90019,0.77694 0.86389,1.09643 2.28646,1.53744 3.50643,2.12697 6.27168,2.56039 12.81733,4.39894 19.40784,5.93203 3.36724,0.71675 6.75885,1.39085 10.18982,1.69904 0.53862,-0.10894 1.48837,0.36501 1.54147,-0.43634 3.42958,-10.20374 6.95116,-20.37892 10.23264,-30.63039 0.15418,-0.51632 0.34389,-1.03054 0.33294,-1.57762 -0.29544,-0.0231 -0.65076,-0.34603 -0.88476,-0.041 z m 482.74804,6.42578 c -9.58432,0.18349 -19.17478,0.43168 -28.72519,1.3048 -12.20127,1.04975 -24.35431,2.94083 -36.29263,5.57967 -0.69849,0.0981 -1.51693,0.46356 -2.13257,-0.0505 -0.46993,0.24883 -0.62644,0.67846 -0.35547,1.14844 1.43102,3.01999 3.10382,5.92361 4.47542,8.97494 4.33209,9.27092 7.79319,18.93348 10.10857,28.88639 0.68167,2.77877 1.05966,5.61866 1.66016,8.41259 0.0919,0.51051 0.38711,1.41165 1.0664,1.06397 2.92318,-1.28856 5.7336,-2.83178 8.71741,-3.98873 7.12371,-2.87648 14.62138,-4.87298 22.33646,-4.84223 2.63786,0.0225 5.18538,0.30826 7.743,0.96182 1.96785,0.51085 4.04409,1.47001 5.87962,2.39093 0.79403,0.32429 1.43565,0.9418 2.23171,1.24188 0.64624,0.11656 0.6585,-0.54101 0.57211,-0.99683 0.27481,-4.07342 0.95465,-8.2133 1.32943,-12.32728 1.27238,-12.54636 2.03578,-25.15588 1.92659,-37.77159 -0.18034,0.004 -0.36068,0.008 -0.54102,0.0117 z" /><path
         id="path76128"
         style="fill:#46515f;fill-opacity:1"
         d="m 717.44922,-489.56055 c -2.96968,0.0834 -5.97594,-0.0949 -8.9132,0.42162 -0.63852,0.17435 -1.69531,0.47223 -1.59071,1.29323 0.32043,0.82707 1.40361,0.88371 2.14641,1.1261 4.93769,1.07022 9.98542,1.51169 15.00002,2.06893 13.5588,1.30732 27.16075,2.1828 40.77843,2.53102 4.60764,0.11232 9.21672,0.0812 13.82514,0.0532 0.0714,-0.78726 0.42974,-1.8503 -0.43279,-2.34738 -1.46564,-0.86518 -3.22524,-1.01543 -4.86367,-1.35747 -7.75147,-1.25535 -15.5689,-2.06233 -23.36198,-3.02094 -2.59172,-0.24983 -5.16619,-0.78028 -7.77942,-0.67875 -8.26939,-0.0318 -16.53875,-0.0995 -24.80823,-0.0896 z m -133.18945,39.51172 c -4.04522,5.14341 -7.11432,10.97816 -9.78249,16.93084 -1.4276,3.36796 -2.89048,6.79048 -3.44314,10.43064 -0.14632,1.02347 0.0157,2.05423 0.0498,3.07993 2.72993,0.01 5.49753,-0.379 8.20164,0.13074 2.67221,0.66971 5.36853,1.3022 8.13105,1.43683 6.82598,0.39729 13.66903,0.41501 20.50277,0.62998 44.24192,1.13001 88.48008,2.40213 132.71966,3.61866 1.93258,0.0527 3.86521,0.10286 5.7984,0.12715 1.3607,-1.42937 2.86868,-2.73686 4.06641,-4.31055 0.40547,-0.61192 -0.24734,-0.7803 -0.71534,-0.95981 -1.00113,-0.28907 -2.10205,-0.68794 -2.5249,-1.74136 -1.06721,-2.43824 -0.73265,-5.23832 -0.41237,-7.76483 0.63517,-4.15784 1.86565,-8.20599 3.36745,-12.1258 0.36761,-0.8903 -0.0155,-2.00891 -0.96913,-2.32003 -2.04801,-0.75024 -4.28426,-0.65446 -6.43276,-0.78568 -9.55007,-0.22632 -19.10468,-0.14269 -28.65654,-0.25366 -17.20375,-0.1498 -34.41043,-0.27906 -51.60713,-0.82412 -6.33793,-0.22151 -12.66805,-0.63513 -19.00922,-0.77771 -13.71903,-0.38664 -27.44388,-0.6661 -41.1689,-0.61053 -1.76286,0.0495 -3.54213,-0.0332 -5.29109,0.21822 -0.67151,0.13434 -0.58146,0.64277 -0.15039,1 0.99272,0.52294 1.6015,1.59222 1.4668,2.71875 -0.22977,2.76676 -1.0544,5.44462 -1.78575,8.11096 -1.12282,3.54658 -2.45116,7.19176 -5.00526,9.97693 -1.128,1.2304 -2.95583,2.21225 -4.60191,1.4021 -0.98968,-0.43752 -1.94746,-1.25166 -1.95877,-2.41969 -0.25462,-3.04578 0.60065,-6.05051 1.40922,-8.95648 1.13421,-3.85738 2.75302,-7.54496 4.44357,-11.18439 0.28696,-0.78652 0.90272,-1.89693 0.14148,-2.59545 -0.8387,-0.40321 -1.725,0.22798 -2.59211,0.25153 -1.0265,0.0985 -2.36982,0.31256 -3.10125,-0.59137 -0.31212,-0.98327 -0.0575,-2.06472 -0.14063,-3.08594 -0.3164,0.41471 -0.63281,0.82943 -0.94921,1.24414 z m 202.31054,7.75977 c -3.2188,0.21082 -6.44577,0.68831 -9.53125,1.64648 -0.71602,0.18262 -1.31622,0.69614 -1.41794,1.45677 -0.71926,2.33813 -1.08621,4.76472 -1.68753,7.13308 0.0894,0.79475 1.12301,0.63047 1.70703,0.7207 2.92234,0.11353 5.84772,0.0523 8.77149,0.0684 1.41053,-3.41599 2.89555,-6.80911 4.23828,-10.24805 -0.11348,-0.96683 -1.40152,-0.74266 -2.08008,-0.77734 z m -7.57226,62.75586 c -1.43756,0.22712 -2.12489,1.74422 -2.6667,2.9301 -0.60378,1.25867 -0.86738,2.63108 -0.91443,4.0194 -0.48715,8.24737 -0.50315,16.51573 -0.57354,24.77541 0.0192,3.88244 -0.11084,7.77002 0.0704,11.649 0.16878,3.89832 1.39518,7.70999 3.4429,11.02488 1.05407,1.76081 2.20357,3.46299 3.30156,5.19691 0.046,-18.96159 0.0944,-37.92317 0.13868,-56.88477 -0.65685,-1.07641 -1.26069,-2.78721 -2.79883,-2.71093 z" /><path
         id="path76127"
         style="fill:#91242d;fill-opacity:1"
         d="m 752.17773,-561.50781 c -1.21309,0.17341 -1.58489,1.61735 -1.69657,2.65594 -0.21222,1.71011 0.26445,3.41939 1.08559,4.9097 0.32422,0.49611 0.10409,1.07125 0.277,1.58475 0.6529,0.73337 1.78141,0.53867 2.66323,0.71226 4.48377,0.37889 8.90952,1.14725 13.07672,2.92213 2.86921,1.1872 5.46396,2.95538 7.72083,5.07862 0.53305,0.34615 1.10724,1.1322 1.81461,0.8241 1.18915,-1.35564 1.6256,-3.18274 2.18109,-4.85746 0.54977,-2.06774 1.17633,-4.18979 1.05634,-6.3489 -0.0286,-1.03398 -1.21519,-1.17882 -1.97745,-1.46365 -6.38255,-1.90859 -12.88131,-3.39074 -19.38107,-4.8339 -2.26145,-0.43326 -4.5177,-1.04182 -6.82032,-1.18359 z" /><path
         id="path76126"
         style="fill:#01469a;fill-opacity:1"
         d="m 459.45117,-447.09375 c -1.17308,0.0739 -1.45927,1.46081 -1.77803,2.36663 -0.31945,1.07338 -0.72343,2.14338 -0.96416,3.22712 1.59501,18.09951 2.97275,36.28144 6.60161,54.11261 1.95938,9.48055 4.59876,18.83473 8.07932,27.87032 5.61147,14.44999 14.03812,27.92682 25.30083,38.64732 10.7109,10.29263 23.85612,17.88867 37.86332,22.72668 1.61882,0.56427 3.23666,1.13136 4.8561,1.69385 4.41866,-3.86022 9.65226,-6.62986 15.28147,-8.23455 1.73237,-0.56241 3.57883,-0.93181 5.31933,-1.53939 1.16071,-0.38977 1.54754,-2.23471 0.40115,-2.86278 -2.91751,-1.84591 -6.12801,-3.16387 -9.136,-4.85153 -10.48885,-5.64547 -20.55054,-12.23896 -29.66114,-19.95453 -5.39609,-4.61756 -10.52881,-9.70621 -14.16368,-15.86245 -4.99046,-8.23526 -8.16256,-17.51036 -10.23913,-26.90478 -2.88263,-13.3247 -3.57532,-27.07354 -2.18975,-40.63633 0.50997,-5.16197 1.47178,-10.33735 2.59738,-15.43426 0.11664,-0.61086 0.27468,-1.22297 0.22982,-1.85026 -3.59385,-0.6386 -7.23121,-1.03209 -10.80351,-1.80157 -7.2308,-1.50007 -14.43412,-3.5237 -21.02319,-6.91973 -1.96125,-0.95448 -3.68435,-2.29945 -5.5151,-3.46424 -0.32807,-0.17537 -0.67873,-0.32554 -1.05664,-0.32813 z m 509.8125,32.38867 c -8.46303,0.43429 -16.56178,3.33787 -24.2547,6.71283 -1.88189,0.83955 -3.75075,1.7078 -5.62616,2.56256 1.37032,11.67572 1.09912,23.59461 -1.68359,35.05274 -2.38816,9.93069 -6.74956,19.54273 -13.06329,27.69514 -6.02505,7.85761 -13.90454,14.38649 -22.62705,19.05899 -1.20738,0.76135 -2.70311,1.12957 -3.69638,2.19118 -0.76456,1.03247 0.18604,2.21302 0.87667,2.98963 2.99231,3.16317 6.32731,5.97034 9.49852,8.95039 3.29959,3.02336 6.58776,6.05925 9.90801,9.05998 1.18666,-0.0928 2.19503,-0.8615 3.25612,-1.34096 5.20113,-2.81492 10.32532,-5.79023 15.24626,-9.07247 11.15116,-7.6629 20.96584,-17.35124 28.38064,-28.69492 9.30774,-14.10922 14.89613,-30.32988 18.39433,-46.77251 1.53351,-7.25719 2.71251,-14.59189 3.58203,-21.95703 0.1381,-0.98868 -0.23756,-2.07873 -1.20646,-2.49991 -3.72526,-2.02934 -7.81597,-3.44011 -12.05739,-3.81047 -1.63653,-0.16517 -3.28444,-0.19049 -4.92756,-0.12517 z" /><path
         id="path76125"
         style="fill:#703e1e;fill-opacity:1"
         d="m 565.32031,-688.98633 c -3.22703,0.16245 -6.4401,1.71814 -8.22656,4.47071 -2.38879,3.64383 -2.63573,8.21577 -2.26258,12.43547 0.75606,7.57639 3.45285,14.80818 6.63076,21.67422 2.00937,4.34036 4.38548,8.49165 6.76659,12.63445 0.13747,-1.90362 0.5837,-3.80952 0.41015,-5.72071 -0.27163,-1.382 0.92881,-2.52436 1.97016,-3.2344 0.50318,-0.27078 1.05325,-0.72245 1.63726,-0.66989 0.76438,0.85154 0.52166,2.13964 0.63957,3.19701 0.013,0.74858 0.17836,1.48319 0.26668,2.22486 1.27062,-2.42424 2.03461,-5.06935 3.08014,-7.5927 3.06506,-7.78788 6.09987,-15.62233 10.65134,-22.68541 0.91062,-1.59875 2.4681,-2.97241 2.60446,-4.90744 0.048,-1.99568 -1.69631,-3.35949 -3.16992,-4.40429 -3.14787,-2.05287 -6.53035,-3.73964 -9.98814,-5.20213 -3.4843,-1.39379 -7.22206,-2.44571 -11.00991,-2.21975 z m 322.5918,4.23828 c -3.06921,0.11379 -6.0078,1.12157 -8.93799,1.95024 -2.30031,0.77337 -4.8155,1.52666 -6.45264,3.43062 -1.41626,1.71452 -1.00139,4.12337 -0.28789,6.04313 1.29488,3.49476 3.24383,6.69774 4.68692,10.13062 2.97881,6.61453 5.19181,13.48959 6.89884,20.51655 0.40364,1.48938 0.75123,3.10193 1.91021,4.20974 0.45334,0.47996 0.29652,1.38885 1.07062,1.57774 0.42793,0.23639 0.92735,0.20261 1.11193,-0.3059 -0.30113,-0.65221 0.44273,-1.18698 0.68059,-1.7541 2.76994,-4.29633 6.06092,-8.36102 7.75065,-13.25041 0.90585,-2.60804 1.91471,-5.18679 3.24996,-7.60748 2.42079,-4.97701 3.43804,-10.94189 1.49541,-16.25055 -1.38422,-3.92864 -4.69891,-7.1656 -8.76672,-8.19918 -1.43248,-0.39357 -2.9272,-0.53831 -4.40989,-0.49102 z m -326.39453,115.29493 c -0.69998,0.13852 -0.21294,0.9428 -0.0371,1.36328 0.66465,2.53268 0.66816,5.18543 0.79698,7.75517 0.15119,6.09263 0.0313,12.19971 -0.65496,18.20427 -0.15161,1.31807 -0.40799,2.62075 -0.70257,3.9136 3.57144,2.33296 7.01472,4.76145 10.16998,7.64467 3.44331,3.16042 6.82004,6.39557 10.33588,9.47447 8.72233,6.97401 17.43718,14.01303 25.77358,21.41779 3.37973,3.04138 6.20612,6.67921 8.51353,10.58807 0.37624,0.83631 1.10241,1.72166 0.76172,2.67774 0.0205,0.57679 0.60511,0.65105 0.98633,0.32226 0.69922,-0.54899 1.66436,-0.24155 2.48242,-0.46289 3.0401,-0.53009 6.06135,-1.27469 8.94536,-2.38051 0.49347,-0.17143 1.21427,-0.59923 0.94602,-1.18938 -1.39278,-1.03873 -1.88765,-2.81251 -2.4589,-4.37622 -1.08791,-3.26413 -1.5134,-6.72482 -2.90284,-9.89254 -2.79563,-6.83244 -6.9474,-13.04489 -11.67982,-18.68225 -3.90806,-4.57966 -8.32662,-8.83347 -13.60259,-11.80749 -8.40817,-5.2312 -16.19052,-11.50284 -22.74918,-18.92442 -2.75383,-3.12247 -5.19256,-6.52883 -7.13792,-10.21271 -1.19178,-2.09349 -2.86499,-4.22586 -5.35622,-4.73565 -0.7818,-0.10294 -1.53266,-0.36997 -2.21512,-0.77514 -0.068,-0.0183 -0.14501,0.0725 -0.21457,0.0779 z m 300.41211,51.67773 c -1.78987,0.21388 -3.17377,1.53881 -4.53276,2.60928 -10.17254,8.54923 -17.55863,20.26335 -21.22087,33.01317 -0.26835,0.92003 -0.66192,1.7959 -1.0784,2.64903 -0.20417,0.94535 0.96897,1.12124 1.65017,1.16058 2.62124,0.17942 5.52355,0.45593 7.50586,2.3842 0.98468,0.97786 1.49304,2.3056 2.22873,3.46108 0.50664,-2.96503 0.91649,-6.02762 2.42028,-8.68964 1.96028,-3.5926 4.72806,-6.61017 7.49227,-9.57713 3.02974,-3.023 6.29594,-5.81508 9.79374,-8.19995 0.78343,-0.56457 1.66736,-0.97575 2.54176,-1.34773 0.65568,-0.64536 -0.009,-1.58968 -0.2433,-2.29071 -1.13612,-2.63154 -2.42649,-5.32655 -3.44615,-7.92804 -0.71692,-1.7057 -0.96615,-3.54169 -1.189,-5.361 -0.15223,-0.97701 -0.8249,-1.96023 -1.92233,-1.88314 z m -346.35547,95.59766 c -1.01803,0.11275 -1.36156,1.29985 -1.79217,2.07296 -0.89763,1.88809 -1.68463,3.85202 -1.91774,5.94633 -0.15259,0.68249 -0.16248,1.45274 -0.45415,2.0725 -0.52702,0.10005 -1.11738,-0.13398 -1.09189,-0.75891 0.006,-0.40074 -0.32286,-1.15153 -0.73022,-0.92577 -0.73013,0.43684 -0.54709,1.441 -0.71977,2.17024 -1.50166,13.18496 -0.8106,26.81776 3.60438,39.41679 3.18546,9.04602 8.37597,17.52104 15.64648,23.85156 3.49802,2.66886 7.9441,3.56638 12.19407,4.24906 3.52898,0.55578 7.10811,0.8257 10.67859,0.58286 3.63691,-0.23751 7.31798,-0.52017 10.8331,-1.53866 1.17225,-0.2639 2.22499,-1.41861 2.0208,-2.6624 -0.44527,-1.34034 -1.95901,-1.83205 -3.12039,-2.38559 -2.49321,-1.087 -5.17061,-1.7192 -7.62179,-2.90152 -0.41376,-0.21437 -0.6978,-1.09373 -0.0195,-1.14453 2.25372,-0.48998 4.51176,-0.41938 6.82877,-0.59233 3.4305,-0.22924 6.90635,-0.22274 10.28061,-0.94674 2.036,-0.49393 3.85594,-1.90234 4.8468,-3.74499 0.96062,-1.80275 0.24999,-4.06109 -1.22235,-5.3587 -1.61277,-1.57131 -3.80801,-2.29261 -5.92719,-2.87873 -0.60762,-0.17261 -0.73652,-0.98034 -0.14141,-1.26533 0.94525,-0.53489 1.93839,-0.99082 2.88946,-1.51982 -6.1853,-0.28156 -12.43325,-0.14945 -18.57782,-0.61967 -2.39099,-0.14444 -4.50309,-1.38322 -6.643,-2.33603 -8.13478,-3.92919 -15.37268,-9.87127 -20.39051,-17.42126 -4.15671,-6.1847 -6.79576,-13.54391 -7.65945,-20.978 -0.43088,-2.96635 -0.22122,-5.94623 -0.7248,-8.9108 -0.12654,-0.58802 -0.3336,-1.43299 -1.06887,-1.47252 z m 406.21484,16.32031 c -0.9276,0.11123 -1.09357,1.28085 -1.40039,1.99414 -1.26575,4.25171 -1.73309,8.74429 -2.10937,13.10937 -0.47113,4.43905 -1.95828,8.84568 -4.59178,12.42518 -2.79965,3.85606 -6.43311,7.03889 -10.27723,9.81991 -7.80954,5.46957 -17.28503,8.46219 -26.68373,9.70609 -13.43768,1.73176 -27.28735,0.15852 -40.15369,-4.19635 -4.38207,-1.46786 -8.59312,-3.34133 -12.67639,-5.40912 -1.72477,-0.72984 -3.45696,-1.58971 -5.32849,-1.84191 -0.50361,-0.11124 -0.98408,0.48528 -0.77679,0.89628 1.18186,1.03546 2.67455,1.75537 3.63458,3.01594 -1.8504,0.40887 -3.76133,-0.0575 -5.63771,0.0866 -2.74726,0.11818 -5.75514,0.49864 -7.88482,2.40602 -1.50388,1.30271 -1.79846,3.58191 -0.96631,5.33627 1.34949,2.99371 4.16926,4.99687 6.97871,6.50963 3.65996,1.95996 7.72901,2.94516 11.77924,3.71805 0.5739,0.18657 1.31424,0.208 1.75823,0.62508 -0.38704,1.64424 -2.62208,1.86298 -3.08398,3.45313 -0.3241,1.5205 0.98699,2.66906 2.0425,3.52341 2.82744,2.18535 6.24779,3.50295 9.75791,4.07842 11.03225,2.04553 22.30784,2.91991 33.52027,2.29149 9.98926,-0.59129 20.12494,-2.49808 28.98864,-7.33217 7.20427,-3.87272 13.20584,-9.87275 17.17602,-17.01632 4.12684,-7.33594 6.38704,-15.58876 7.55958,-23.88273 0.53509,-5.78129 0.42297,-11.61278 -0.0205,-17.39642 -0.20664,-1.85248 -0.28719,-3.76941 -0.96585,-5.5235 -0.13614,-0.21185 -0.37138,-0.42773 -0.63867,-0.39648 z" /><path
         id="path76124"
         style="fill:#2d3746;fill-opacity:1"
         d="m 706.00391,-489.48242 c -7.50843,0.16042 -15.01654,0.33642 -22.52539,0.47656 -0.10337,0.74912 -0.75778,1.74515 0.0254,2.33398 1.25036,0.6685 2.73982,0.63311 4.11258,0.85305 9.27809,0.92164 18.58519,1.53416 27.87948,2.27456 12.26894,0.93541 24.53684,1.8981 36.80481,2.83724 8.02963,0.17387 16.06116,-0.11076 24.08657,-0.35536 3.66636,-0.17044 7.34895,-0.21869 10.99375,-0.66699 0.53888,-0.0393 1.02015,-0.60187 0.44586,-0.98894 -1.58659,-0.82482 -3.36512,-1.2359 -5.05352,-1.81488 -5.26979,-1.67131 -10.76953,-2.67577 -16.29883,-2.82618 -0.67827,0.0371 -0.87913,0.46092 -0.42814,0.96991 1.58185,0.4884 3.30557,0.56842 4.94624,0.87183 2.29786,0.40057 4.66406,0.55913 6.88424,1.3067 0.5147,0.0925 0.63973,0.89633 0.0294,0.94722 -2.32311,0.68043 -4.78917,0.55654 -7.18606,0.63862 -8.47914,-0.0234 -16.96309,-0.47999 -25.41172,-0.99599 -11.09714,-0.78566 -22.1853,-1.70804 -33.22462,-3.05084 -1.5133,-0.22762 -3.07726,-0.34799 -4.50389,-0.75776 -0.46275,-0.53557 0.42318,-0.91388 0.85414,-1.02451 0.94299,-0.15749 0.53392,-0.53166 -0.0396,-0.93099 -0.75498,-0.19016 -1.60851,-0.0626 -2.39069,-0.0972 z m 137.30273,30.6543 c -4.73292,0.4982 -9.3579,1.70372 -13.96476,2.85941 -6.18491,1.65078 -12.36398,3.41307 -18.295,5.84176 -4.69371,1.87391 -8.43323,5.59645 -10.99483,9.88753 -3.89757,6.4776 -5.77289,13.94276 -6.89012,21.35556 -0.77016,5.21471 -1.12434,10.48641 -1.08174,15.75768 -0.15741,26.86213 -0.0236,53.72479 -1.1e-4,80.58712 0.74131,0.66879 1.75431,1.50748 2.80277,0.95863 6.74172,-2.31621 13.40048,-4.86999 20.03551,-7.47569 0.92644,-0.43765 1.98946,-0.67193 2.81602,-1.27982 0.92495,-0.96407 0.4448,-2.45768 -0.41572,-3.28615 -1.91477,-2.03238 -4.58161,-3.08454 -6.75385,-4.79489 -5.20516,-3.80566 -9.84582,-8.64533 -12.57013,-14.55082 -0.84487,-1.73635 -1.3122,-3.62833 -1.39029,-5.55718 -0.30914,-4.30325 -0.21749,-8.85054 0.014,-13.25482 0.2285,-3.17252 0.36429,-6.461 1.21536,-9.56852 1.31575,-4.23893 4.7992,-7.39362 8.59061,-9.47565 1.61574,-0.8521 3.38925,-1.68043 4.34449,-3.3304 0.83241,-1.33372 1.44599,-2.82646 2.35186,-4.02521 3.64702,-5.11377 9.28881,-8.38424 15.05178,-10.60174 5.48573,-2.09355 11.30079,-3.28165 17.16348,-3.92766 2.0204,-0.26006 4.066,-0.27164 6.08403,-0.52325 1.22721,-0.13726 2.01223,-1.2986 2.07269,-2.46609 0.25211,-2.91122 -0.29852,-5.8168 -0.60722,-8.70434 -1.15314,-8.51895 -2.27516,-17.04782 -3.53755,-25.5539 -0.43636,-2.4196 -0.66285,-4.9341 -1.65166,-7.20842 -0.43452,-1.08874 -1.58856,-1.58004 -2.68842,-1.65533 -0.56454,-0.076 -1.1349,-0.042 -1.70117,-0.008 z m -65.62109,26.71093 c -1.22264,0.0906 -2.57745,-0.0572 -3.67774,0.56055 -0.473,0.57404 -0.52855,1.41859 -0.81559,2.10805 -0.90176,2.64566 -1.54109,5.39067 -2.67074,7.9525 -0.53131,1.30481 -1.80805,2.14128 -3.1875,2.2832 -3.32398,0.41881 -6.68777,0.18806 -10.02929,0.25195 -2.17253,0 -4.34505,0 -6.51758,0 -1.559,1.58906 -3.26594,3.05125 -4.67969,4.77149 -0.32574,0.65464 0.33672,0.93518 0.91387,0.85093 7.15177,0.78469 14.3598,0.70835 21.54344,0.62748 3.35966,-0.10564 6.74407,-0.07 10.07394,-0.57021 1.25715,-0.39908 1.52448,-1.89634 1.92597,-2.98131 1.4015,-4.8229 2.46127,-9.73655 3.87091,-14.54994 -0.0709,-0.84259 -1.17163,-0.8885 -1.82759,-1.02531 -1.62787,-0.23653 -3.27916,-0.29021 -4.92241,-0.27938 z m -36.04102,24.05274 c -3.38535,0.25407 -6.83937,0.42395 -10.09342,1.4671 -0.76292,0.25263 -1.8926,0.81837 -1.59017,1.79462 0.53896,1.05209 1.87294,1.24855 2.90106,1.57585 4.91644,1.07608 9.48248,3.25235 13.96417,5.47688 0.32903,7.4034 0.54317,14.81234 0.76172,22.21875 0.1035,1.63887 0.2949,3.67116 1.92487,4.5301 1.91569,0.91804 4.121,0.68713 6.18411,0.75318 5.45835,-0.0431 10.91692,-0.0266 16.3754,-0.0294 1.11167,0.85003 1.05749,2.40475 0.98426,3.66583 -0.0549,0.84313 -0.42903,1.9316 -1.45497,1.89471 -3.16468,0.23281 -6.34143,-0.0705 -9.5084,-0.14474 -3.54404,-0.0826 -7.087,-0.47711 -10.63253,-0.32664 -1.37043,0.0402 -2.9484,0.58655 -3.4079,2.0163 -0.66456,2.12712 -0.4164,4.39973 -0.55158,6.5955 -0.13052,2.96164 -0.10628,5.9085 -0.51677,8.83029 -0.15939,1.48315 -1.59219,2.5001 -2.97461,2.73047 -0.80345,0.0639 -1.72111,-0.24857 -2.22217,-0.87856 -0.53134,-1.51674 -0.44537,-3.06591 -0.5622,-4.62038 -0.3315,-9.09462 -0.32837,-18.20087 -0.72514,-27.29241 -0.15528,-1.31717 -0.0136,-2.80952 -0.80495,-3.94694 -0.66285,-0.64299 -1.76709,-0.51469 -2.55469,-0.1914 -2.24844,1.26964 -3.96074,3.27865 -5.66459,5.17791 -2.42518,2.86238 -4.71132,5.95913 -5.87853,9.56921 -2.31272,6.65507 -3.6103,13.6117 -4.70721,20.55476 -0.98844,6.78431 -1.7977,13.63057 -1.67494,20.49782 0.11849,1.94605 0.0855,4.02858 1.02488,5.79209 0.63411,1.10891 2.08368,0.81595 3.14454,0.96875 9.01045,0.30743 18.02859,0.2804 27.04191,0.46947 5.48334,0.0493 10.96107,0.30368 16.44203,0.44071 3.84355,0.016 7.75438,0.16688 11.52024,-0.73122 1.06668,-0.33506 2.27546,-0.66793 3.03293,-1.53052 0.36329,-0.89495 -0.57077,-1.64445 -0.95251,-2.36955 -2.42179,-3.46045 -4.18455,-7.38232 -4.83209,-11.59873 -0.40779,-2.96904 -0.12973,-5.97656 -0.17718,-8.96244 0.11491,-9.94066 0.25739,-19.88096 0.40123,-29.82123 0.73549,-1.83171 1.15018,-4.0212 2.79927,-5.28405 0.81632,-0.51925 1.52028,0.41588 1.8687,1.05163 0.23172,0.59066 1.17336,0.57387 1.20581,-0.12094 0.10244,-2.3201 0.14825,-4.65259 0.37855,-6.96927 0.34353,-5.13722 0.83656,-10.29207 0.52794,-15.443 -0.1936,-2.10893 -0.48066,-4.58311 -2.31825,-5.93873 -1.8803,-1.26908 -4.27236,-0.88309 -6.41073,-1.05875 -10.06868,-0.3362 -20.13818,-0.68977 -30.20978,-0.90806 -0.6861,0.0317 -1.37221,0.0633 -2.05831,0.095 z" /><path
         id="path76123"
         style="fill:#000000;fill-opacity:1"
         d="m 726.40039,-765.44727 c -15.76396,0.27315 -31.52449,1.86221 -46.97211,5.03276 -21.06732,4.33325 -41.57065,11.99175 -59.72621,23.61288 -9.44759,6.0086 -18.19497,13.09233 -26.1647,20.95448 -0.90197,0.86312 -1.94126,1.79431 -3.31862,1.7866 -2.70215,-0.0303 -5.46634,-0.42304 -8.21168,-0.45702 -9.35047,-0.26525 -18.97057,0.90173 -27.44958,5.06408 -6.66212,3.22671 -12.33616,8.55301 -15.68999,15.17862 -4.00083,7.76307 -4.92331,16.75582 -4.12756,25.35626 1.10597,11.64626 5.0356,22.84525 10.07418,33.33859 1.37298,2.9304 2.9737,5.74685 4.43158,8.63201 0.75002,1.58285 0.25806,3.32344 -0.0743,4.90215 -1.82573,8.07321 -4.30867,16.10464 -4.45862,24.44538 -0.13964,6.07882 -0.0846,12.2629 1.61754,18.1505 0.84555,3.12731 2.04696,6.14368 2.53058,9.31849 1.31315,7.50372 0.53341,15.2411 -1.02499,22.69594 -1.40841,6.463 -3.3163,12.88762 -5.68399,19.10448 -3.63846,9.58287 -9.15053,18.32894 -14.60809,27.01183 -5.08419,8.24921 -10.31506,16.42731 -14.77809,25.03507 -4.87194,9.37081 -8.00597,19.49311 -11.38921,29.46111 -2.74051,8.41597 -5.65298,16.84827 -6.93699,25.63698 -0.96305,6.84278 -0.93809,13.77702 -0.84224,20.67279 0.36814,13.59817 2.49095,27.28064 7.5249,39.97145 2.99807,7.4915 7.03424,14.6825 12.6709,20.51693 6.9302,7.28663 15.02875,13.35662 23.42171,18.84913 6.47297,4.21818 13.24244,7.95758 20.15225,11.40686 1.0601,0.61895 2.282,1.11047 3.06455,2.08728 -0.10984,0.41214 -0.7621,0.5 -1.11632,0.68601 -2.53986,0.77773 -5.15874,1.30008 -7.63893,2.27991 -4.44277,1.66372 -8.67621,3.98991 -12.29358,7.07314 -0.52849,0.34151 -0.61579,1.2873 0.12305,1.41211 1.87197,0.34637 3.66399,1.07191 5.49101,1.60807 5.49045,1.8161 10.99449,3.62192 16.65816,4.82541 10.71081,2.49616 21.59221,4.2237 32.53579,5.29376 17.0749,1.66662 34.21479,2.4538 51.34603,3.26399 7.39207,0.30803 14.78007,0.7276 22.17454,0.96851 12.87064,0.26835 25.74657,0.10894 38.61684,0.36425 3.32698,0.23058 6.67244,0.11204 10.00693,0.15172 17.04789,-0.0483 34.09672,-0.17331 51.1412,-0.52917 5.38099,-0.1483 10.75176,-0.56076 16.13545,-0.64524 17.45131,-0.28253 34.90475,-0.80935 52.31754,-2.02649 12.64694,-0.91291 25.30206,-2.04105 37.79664,-4.24884 9.81639,-1.84122 19.48612,-4.40941 29.06897,-7.20689 4.82334,-1.48365 9.69378,-2.88325 14.3269,-4.90141 0.77389,-0.42698 1.98279,-0.75727 2.00509,-1.82001 -4.19252,-4.02843 -8.53597,-7.89928 -12.82413,-11.82777 -2.37139,-2.22208 -4.90991,-4.28837 -7.05282,-6.74059 -0.30188,-0.37611 -0.85584,-1.07392 -0.18939,-1.39305 1.97727,-1.08476 4.04835,-2.00682 5.98682,-3.17082 10.59738,-6.01798 19.74642,-14.69547 25.87975,-25.26019 6.60568,-11.23025 9.727,-24.26772 10.03877,-37.23048 0.40472,-16.54046 -3.38387,-32.94857 -9.38785,-48.28237 -6.71541,-17.12863 -16.25197,-33.03814 -27.26882,-47.73283 -3.93889,-5.41752 -7.85914,-10.86095 -11.39938,-16.55009 -1.21275,-2.03705 -1.83748,-4.39532 -2.00718,-6.68101 -0.39983,-5.88412 1.7671,-11.61228 4.60422,-16.66504 1.71013,-3.08155 3.86317,-5.93961 6.01644,-8.74998 8.34364,-11.18047 15.33981,-23.61718 18.80084,-37.21383 2.78307,-10.82304 3.03834,-22.30202 0.56717,-33.20967 -2.11939,-9.62137 -6.21419,-18.71222 -11.31015,-27.11066 -0.88325,-1.4391 -1.42397,-3.19855 -0.89524,-4.86518 1.01071,-3.50561 2.96084,-6.63566 4.44092,-9.94922 4.14297,-8.90094 7.30456,-18.4542 7.70815,-28.33071 0.30501,-7.12071 -1.12968,-14.43716 -4.8777,-20.56374 -4.45223,-7.51914 -11.8356,-13.11714 -20.12494,-15.77399 -7.18542,-2.36546 -14.95221,-2.61719 -22.36814,-1.28667 -1.14577,0.19756 -2.55027,0.4163 -3.38611,-0.61022 -1.85093,-2.05237 -3.46754,-4.30775 -5.3491,-6.33605 -11.75053,-13.11252 -26.75087,-22.95999 -42.67518,-30.27253 -19.8286,-9.06361 -41.22975,-14.3801 -62.8432,-16.89403 -10.88608,-1.25358 -21.85351,-1.77289 -32.81031,-1.61374 z m 1.95313,15.96485 c 20.2406,0.0137 40.4283,2.5651 59.98549,7.81625 9.81407,2.66021 19.49761,6.00937 28.76255,10.28336 10.83951,5.04207 21.01111,11.79822 29.79102,20 6.62468,6.15209 12.4563,13.11354 17.66992,20.48828 0.58143,0.75892 1.40155,1.92955 2.50781,1.47461 1.32182,-0.75773 2.13775,-2.0889 3.31493,-3.02598 3.73192,-3.38874 8.75726,-5.27203 13.82597,-5.01794 4.76235,0.17667 9.52701,2.12914 13.41965,4.77439 2.78184,1.83909 5.26076,4.24993 7.65234,6.64257 1.09571,5.18368 1.69861,10.51174 1.21094,15.80665 -0.37308,4.30306 -1.46014,8.7136 -3.12325,12.7996 -2.12692,5.25028 -5.31998,10.36679 -8.91139,14.95111 -1.60619,2.08993 -3.75585,3.91406 -6.32278,4.65554 -0.55308,0.22364 -1.05675,-0.0748 -1.57813,-0.15821 -1.20328,0.2031 -1.57705,1.73988 -1.10937,2.73633 1.22071,3.20254 3.12066,6.09192 4.93592,8.97996 2.36055,3.65401 4.95143,7.15452 7.72228,10.50637 2.6397,3.72299 3.71769,8.2255 5.44743,12.38261 1.13456,1.9104 1.48935,4.16149 1.98703,6.29905 0.62267,3.24186 1.17347,6.54093 1.05755,9.85135 0.119,0.77181 -0.45587,0.55809 -0.83456,0.20304 -2.19812,-1.76657 -4.31976,-3.63805 -6.64022,-5.24975 -9.33703,-6.7295 -20.45423,-11.08835 -31.96095,-11.96466 -8.8515,-0.70489 -17.83107,0.53536 -26.21879,3.4116 -2.0535,0.84933 -4.22927,2.16135 -5.01327,4.35973 -0.38881,1.14934 0.12247,2.77058 1.39453,3.07031 1.55899,0.0802 3.05165,-0.55675 4.55794,-0.87393 9.08855,-2.38233 18.52675,-3.48736 27.88543,-2.40684 10.36694,1.13591 20.25998,4.89 29.45897,9.68162 2.41344,1.28683 4.97803,2.36428 7.15054,4.04882 0.84944,0.59883 0.99628,1.70882 0.73862,2.65272 -1.98727,10.74861 -6.1627,21.09852 -12.3373,30.12806 -5.88609,8.66901 -13.38968,16.09995 -21.55828,22.64682 -3.72139,3.16837 -7.10561,6.70308 -10.55803,10.15593 0.25726,2.66929 0.61734,5.36755 1.71954,7.8397 1.70728,4.0274 3.51508,8.02467 5.60244,11.87101 0.78522,1.25385 1.45141,2.78255 2.83232,3.4807 1.31359,0.11767 2.35251,1.07641 3.29297,1.84961 3.44428,3.06184 6.08622,6.86652 8.94282,10.47643 9.40405,12.3225 18.03177,25.30741 24.91308,39.21913 3.0706,6.29108 5.8185,12.868 7.56793,19.60522 0.70744,2.56763 0.99844,5.22102 1.5599,7.81774 0.18708,1.15865 1.19802,1.91713 1.4401,3.05726 0.87734,2.86481 0.79741,5.81962 1.36523,8.75781 1.63169,9.59032 1.1792,19.47681 -1.00391,28.90039 -1.95447,8.29039 -5.40716,16.40556 -11.14067,22.80423 -5.59729,6.36776 -13.20659,10.72052 -21.27235,13.15337 -11.21274,3.41888 -23.2001,3.80394 -34.87909,3.09837 -6.29149,-0.41567 -12.53925,-1.05026 -18.65906,-2.47784 -3.14093,-0.72178 -6.23605,-1.97638 -8.68554,-4.11328 -0.63269,-0.54828 -1.29569,-1.58697 -0.55079,-2.32618 0.97064,-0.89033 2.39552,-1.59084 2.60938,-3.03124 0.13544,-1.07515 -0.98267,-1.66077 -1.8926,-1.78315 -3.24828,-0.61927 -6.43738,-1.22262 -9.48774,-2.47027 -3.22737,-1.31895 -6.49647,-3.08106 -8.5514,-5.9908 -1.01231,-1.3763 -1.4589,-3.48043 -0.20046,-4.85709 1.65719,-1.80824 4.24437,-2.26063 6.57028,-2.53566 2.35334,-0.22389 4.7272,-0.10037 7.08145,-0.24975 0.86753,-0.13976 0.80595,-1.24102 0.27512,-1.72628 -1.81876,-2.07984 -4.36793,-3.3277 -6.86143,-4.41149 -2.58142,-1.28073 -5.20224,-3.182 -6.10047,-6.04899 -0.61326,-1.8331 0.33528,-3.87235 1.95977,-4.82875 2.6474,-1.72621 5.95779,-1.68822 8.96373,-1.86346 2.84753,-0.13578 5.72154,-0.0451 8.54648,-0.45697 0.94638,-0.32396 1.08121,-1.60565 0.42579,-2.2832 -1.49421,-1.87737 -4.05699,-2.87433 -4.92383,-5.23829 -0.37136,-1.29201 0.96129,-2.09416 1.84407,-2.73257 2.66126,-2.05164 5.38832,-4.06713 8.4761,-5.43904 3.23947,-1.49863 6.72592,-2.55709 10.31142,-2.69429 9.36842,-0.62951 18.7664,-1.01134 28.16603,-1.13716 0.63798,0.0843 1.63779,-0.0442 1.56761,-0.89928 -0.24542,-1.29518 -1.35064,-2.21166 -2.19267,-3.15382 -2.16219,-2.16143 -4.65997,-4.00287 -7.46379,-5.2431 -1.13736,-0.49697 -2.13568,-1.41314 -2.37461,-2.67563 -0.72996,-3.13974 -0.89207,-6.37845 -1.34806,-9.56444 -1.25794,-9.8042 -2.69757,-19.60872 -5.03827,-29.22005 -0.81983,-3.06708 -1.54915,-6.24305 -3.29097,-8.94583 -1.92329,-3.26688 -3.9072,-6.50844 -5.98499,-9.67564 -0.20792,-1.19104 -0.80852,-2.29653 -1.74814,-3.07302 -2.03802,-1.81002 -4.79029,-2.52093 -7.45303,-2.69456 -2.59516,-0.29783 -4.8909,-1.66855 -7.43489,-2.18452 -9.45171,-2.29858 -18.99508,-4.21745 -28.52621,-6.1593 -8.47333,-1.67365 -16.93923,-3.39138 -25.47361,-4.71964 -8.0885,-1.12598 -16.23939,-1.71512 -24.36395,-2.52506 -8.54196,-0.78578 -17.08212,-1.61269 -25.62594,-2.36492 -9.79238,-0.12815 -19.58856,-0.26162 -29.37859,0.0747 -16.51818,0.53165 -33.03082,1.67502 -49.41751,3.85527 -7.27208,1.03563 -14.57788,2.15225 -21.59479,4.39253 -3.83572,1.01403 -7.76156,1.62802 -11.61167,2.58278 -5.56358,1.33172 -11.15971,2.35823 -16.82131,3.19496 -3.40707,0.54741 -7.10619,1.36531 -9.50324,4.05633 -2.41584,2.76585 -3.31099,6.44902 -4.18465,9.92427 -0.65049,2.38955 -0.87959,4.90562 -1.8336,7.20388 -1.09939,2.19306 -3.34148,3.43554 -5.16272,4.95628 -5.47364,4.26669 -10.47988,9.27839 -14.09662,15.2378 -1.55561,2.56879 -2.43858,5.46041 -3.79297,8.13086 -1.21742,2.5652 -2.59112,5.14798 -4.14595,7.56288 -2.23599,4.13763 -3.06996,8.87215 -3.44507,13.51365 -0.30113,4.83792 -0.10338,9.82723 1.55033,14.42819 1.01368,2.74943 2.61486,5.40834 5.14373,7.00537 3.70799,2.37786 8.00748,3.56019 12.12017,5.03003 1.84631,0.66086 3.85207,1.18711 5.25583,2.64936 1.76216,1.41519 3.42502,3.4011 3.31344,5.796 -0.10373,2.82462 -2.48602,4.94191 -4.94299,5.94944 -2.14166,1.01521 -4.68278,0.89827 -6.71081,2.17641 -0.79575,0.45769 -0.76647,1.61021 -0.0391,2.11718 1.77776,1.36884 4.08076,1.8005 5.90676,3.10412 1.11462,0.67641 2.25127,1.89916 1.82371,3.3158 -0.48252,1.74296 -1.70982,3.36042 -3.50179,3.88021 -3.14498,0.98741 -6.50584,1.0355 -9.75432,1.26953 -2.7159,0.19376 -5.45571,0.16272 -8.15209,0.5573 -1.26726,0.10907 -2.08822,1.96215 -0.96656,2.78825 1.58517,1.1464 3.5525,1.58166 5.35562,2.27639 1.68093,0.63606 3.47921,1.10496 4.92613,2.2401 0.72475,0.56254 -0.06,1.55592 -0.71567,1.77183 -2.17021,0.84575 -4.5116,1.07282 -6.73309,1.34437 -4.23917,0.408 -8.51801,0.57966 -12.77268,0.0166 -3.10852,-0.50992 -6.26843,-0.93872 -9.27344,-1.94532 -3.52249,-1.16027 -6.1353,-3.94388 -8.57969,-6.59814 -3.86061,-4.35077 -6.89142,-9.55092 -9.16963,-14.90071 -3.97533,-9.38869 -5.95031,-19.59115 -6.24455,-29.73465 -0.20794,-6.85393 0.44003,-13.71963 1.85898,-20.41047 0.93964,-5.14572 1.78777,-10.31619 3.13469,-15.37685 2.69806,-10.51864 6.41221,-20.83848 11.10511,-30.63325 5.50346,-11.39579 12.99029,-21.66256 20.3783,-31.88373 1.32932,-1.69837 2.49838,-3.51888 3.36055,-5.50054 1.97855,-4.48087 3.84823,-9.01146 5.84281,-13.48517 2.80293,-6.40449 5.38825,-12.96299 6.70056,-19.85631 2.03933,-9.8479 2.76813,-20.03104 1.44278,-30.02749 -0.60068,-5.03771 -1.97356,-9.89011 -2.53286,-14.9275 -1.5114,-11.77171 -0.73524,-23.92905 3.11771,-35.24341 1.29594,-3.93347 3.07851,-7.68074 4.99067,-11.3454 2.48489,-5.26267 4.36337,-10.84462 5.28841,-16.59773 0.12678,-1.53211 0.27442,-3.33423 -0.78563,-4.58607 -0.81904,-0.82836 -2.03159,-0.19319 -2.90169,0.19733 -1.70393,0.80866 -2.16198,2.83279 -2.2266,4.55134 -0.14021,1.59924 0.0877,3.22861 -0.18617,4.81188 -0.95264,1.25831 -2.85886,1.33999 -4.16489,0.58668 -2.18019,-1.16114 -3.7346,-3.12687 -5.13336,-5.06928 -3.80484,-5.55814 -6.30394,-11.90641 -8.16826,-18.3481 -1.63439,-5.9804 -2.72003,-12.10645 -2.22489,-18.31383 0.545,-6.38263 3.58398,-12.5779 8.5679,-16.65617 4.20889,-3.54094 9.62254,-5.60928 15.02176,-6.4794 7.32106,-1.17904 14.88301,-0.4234 22.08314,1.43083 2.0101,0.46917 3.87779,1.21317 5.89316,1.67076 1.69487,0.35957 3.05055,-0.98597 4.17398,-2.04283 3.99211,-3.97905 7.99792,-7.9589 12.35572,-11.54335 10.94808,-9.19401 23.42303,-16.54539 36.69669,-21.98803 13.18863,-5.42412 27.02993,-9.07984 41.04724,-11.55465 11.42373,-1.95542 22.99254,-2.82766 34.59791,-2.84888 z m -79.45508,45.12304 c -2.43647,0.10151 -4.94005,0.0183 -7.29492,0.73633 -3.66101,1.28424 -6.97805,3.56716 -9.52005,6.49366 -0.9364,1.18192 -2.0554,2.68122 -1.57761,4.27392 0.26831,0.77687 1.18719,1.36621 1.95745,0.88078 2.15562,-1.18127 4.14042,-2.6652 6.36118,-3.73828 5.15201,-2.69202 10.79855,-4.36867 16.55442,-5.12492 0.94108,-0.24387 2.21319,-0.26173 2.72851,-1.21875 0.24484,-0.89621 -0.73537,-1.54099 -1.43862,-1.85584 -2.38577,-0.52092 -4.85874,-0.42293 -7.2887,-0.45088 -0.16055,0.001 -0.32111,0.003 -0.48166,0.004 z m 11.39648,16.35547 c -8.68823,0.31324 -17.32226,4.45408 -22.49758,11.52914 -5.22208,7.03176 -6.61991,16.58484 -4.03379,24.90822 3.25643,10.78846 12.27794,19.81496 23.29163,22.51632 4.80433,1.2709 10.02197,0.80168 14.52767,-1.29118 7.12871,-3.25972 12.46806,-9.67146 15.43277,-16.82567 3.09022,-7.44541 3.59626,-16.14697 0.44247,-23.65923 -2.66027,-6.41231 -7.71487,-11.85738 -14.08947,-14.68152 -4.08182,-1.84558 -8.6033,-2.66204 -13.0737,-2.49608 z m 158.29492,2.79493 c -9.84495,0.43771 -19.11311,6.86222 -23.09669,15.8584 -5.15307,11.35544 -2.23836,25.69803 6.73225,34.30635 4.79885,4.65004 11.27894,7.5829 17.95729,7.99021 8.39256,0.45354 16.64499,-3.73394 21.83442,-10.2334 4.17723,-5.13318 6.42326,-11.76918 6.25463,-18.38406 -0.0684,-8.39104 -3.80189,-16.66894 -10.07405,-22.24868 -5.29783,-4.79288 -12.42645,-7.63032 -19.60785,-7.28882 z M 668.9082,-678.25 c 4.95286,-0.0992 9.55885,3.84088 10.33442,8.71365 0.70462,3.62873 -0.79305,7.81003 -4.16172,9.59362 -3.38553,1.85556 -7.77033,1.15551 -10.6834,-1.27844 -3.2256,-2.50686 -4.96307,-6.98263 -3.73021,-10.95717 0.85662,-3.18813 3.78327,-5.59148 7.03708,-5.98056 0.39876,-0.0585 0.80133,-0.0787 1.20383,-0.0911 z m 158.13868,4.05273 c 5.4567,0.0964 10.34719,5.19129 9.97775,10.64275 -0.12329,2.96421 -1.94082,5.94257 -4.62722,7.36775 -2.91451,1.25208 -6.42078,0.87221 -9.01443,-0.86541 -3.59176,-2.3033 -5.77581,-7.02184 -4.40172,-11.19099 1.117,-3.3766 4.43534,-6.04921 8.06562,-5.9541 z m -79.00391,33.66993 c -9.71709,0.13774 -19.45063,1.34497 -28.82192,3.95142 -4.90587,1.47609 -9.81404,3.80601 -13.12092,7.84385 -2.48873,2.98094 -3.56172,7.08783 -2.73052,10.89297 0.71751,3.49216 2.5516,6.71525 5.10457,9.19497 4.59026,4.62037 9.87162,8.48851 15.21055,12.19333 5.54022,3.82348 11.33746,7.25593 17.24019,10.48448 1.31813,0.84619 2.96087,1.52805 3.66102,3.02101 0.45919,1.2935 -0.0369,2.67765 -0.91016,3.66992 -2.03575,2.42194 -4.72116,4.09566 -7.41968,5.64986 -6.39297,3.57393 -13.44471,5.89009 -20.61418,7.12408 -7.54382,1.35088 -15.30005,1.60541 -22.81545,0.28583 -7.63086,-1.31115 -14.98639,-4.35061 -21.32061,-8.7961 -6.35146,-4.42778 -11.65066,-10.14486 -16.07483,-16.45839 -1.23321,-1.62473 -2.34887,-3.45016 -4.08351,-4.591 -1.28608,-0.81973 -3.08654,-0.1023 -3.8358,1.11189 -0.5644,1.37358 0.12912,2.84558 0.50847,4.17793 0.41944,1.48208 1.18835,2.89077 1.347,4.42949 -0.3465,0.46434 -1.1216,0.32084 -1.65121,0.4165 -5.36451,0.13192 -10.84777,0.54893 -16.1231,1.7818 -11.14433,2.47812 -21.51186,8.52775 -28.95616,17.20795 -0.78176,1.02829 -1.80269,2.01288 -2.07813,3.31446 -0.005,0.88926 1.19729,0.83753 1.77956,0.53669 2.44284,-1.87846 5.16957,-3.53213 7.82131,-5.19357 6.24009,-3.71679 13.19745,-6.39282 20.18804,-8.36091 6.13651,-1.67541 12.44859,-2.88177 18.80484,-2.92362 1.16395,-0.0868 2.3803,0.15717 3.22883,1.012 2.77155,2.52481 5.17683,5.42789 7.99607,7.90588 6.20098,5.72988 13.55415,10.16919 21.45736,13.12297 3.0467,1.20862 6.21337,2.06417 9.3197,3.09196 2.12484,0.88274 3.28021,3.01748 4.6467,4.73807 3.48427,4.70301 6.75966,9.57274 10.56111,14.03056 5.92482,6.79559 13.48998,12.27068 22.07348,15.15374 8.41567,2.87025 17.55,3.39525 26.30552,2.01371 9.0071,-1.43577 17.57681,-5.48618 24.36888,-11.57923 5.97187,-5.26798 10.56963,-11.91852 14.14426,-18.99567 0.68251,-1.39094 1.75163,-2.66687 3.28748,-3.12198 3.98631,-1.32694 8.08905,-2.28919 12.05723,-3.67788 4.70729,-1.52676 9.16827,-3.77369 13.18964,-6.65706 4.57674,-3.32826 8.71565,-7.31287 11.9543,-11.97007 0.86289,-1.16443 1.6599,-2.54044 3.12952,-3.00904 2.63149,-0.98457 5.49854,-0.81205 8.21739,-0.52107 6.02586,0.74463 11.79887,2.61077 17.42619,4.8808 7.07878,2.9113 13.83284,6.66093 19.92249,11.29821 0.62334,0.36172 1.43606,1.20135 2.17089,0.63176 0.41352,-0.84657 -0.41966,-1.64053 -0.78179,-2.35069 -4.04518,-6.41532 -10.07142,-11.44663 -16.88878,-14.70139 -7.99039,-3.86833 -16.79362,-5.67186 -25.54819,-6.75652 -0.59468,-0.13638 -1.87844,-0.11164 -1.78189,-1.07851 0.0518,-2.05678 0.94232,-4.19256 0.18815,-6.21055 -0.37735,-1.00232 -1.67039,-1.0547 -2.44727,-0.50195 -2.42856,1.57822 -3.96441,4.12918 -5.77424,6.32323 -5.67199,7.13864 -12.1604,13.92404 -20.47242,17.92149 -5.20087,2.51317 -10.7633,3.82549 -16.54695,4.23208 -10.42676,0.67657 -21.09746,-1.56427 -30.22181,-6.70076 -3.69486,-2.11694 -7.15416,-4.7258 -9.97872,-7.92643 -0.84806,-0.99824 -1.71198,-2.50211 -0.82617,-3.74805 1.40556,-1.87286 3.64774,-2.82162 5.63091,-3.94653 11.87411,-6.29136 23.06807,-13.92232 33.04075,-22.93924 3.0889,-3.13349 4.72176,-7.7615 4.03445,-12.13273 -0.68292,-3.72563 -3.38407,-6.71727 -6.31744,-8.93463 -5.30774,-3.89752 -11.67767,-6.01884 -18.02879,-7.50344 -7.81063,-1.76625 -15.8465,-2.43212 -23.84621,-2.35788 z m -2.28516,6.36914 c 7.89583,0.0493 15.7636,0.61867 23.45779,2.40775 4.88231,1.16027 9.7476,2.59375 14.22449,4.9671 1.29633,0.77583 2.7982,1.53669 3.50913,2.93765 0.3235,0.94417 -0.88078,1.52176 -1.6543,1.58008 -4.36427,0.40266 -8.75663,0.12122 -13.12824,-0.0176 -12.66365,-0.59105 -25.3378,-1.60242 -37.93444,-2.9699 -4.45873,-0.5396 -8.87164,-0.98322 -13.24396,-1.99098 -0.57734,-0.15462 -1.35683,-0.29617 -1.36319,-1.05191 -0.058,-1.31131 1.43796,-2.00669 2.35799,-2.49939 3.79655,-1.69838 8.02691,-2.27406 12.08373,-2.76554 3.85641,-0.42349 7.77223,-0.59133 11.691,-0.59722 z m -121.45898,27.38086 c -14.13506,0.12966 -27.85801,5.15076 -39.73508,12.60553 -3.27952,2.00568 -6.51336,4.29057 -8.79374,7.43795 -0.45146,0.57578 -0.78719,1.54977 -0.0454,2.05222 0.86687,0.24402 1.43071,-0.70971 2.07864,-1.11686 6.11798,-5.00167 13.62877,-7.96012 21.23565,-9.92171 9.72847,-2.442 19.7206,-3.20559 29.72379,-2.83874 5.39493,0.17498 10.74706,0.814 16.08464,1.58459 2.09798,0.19201 4.23919,0.69378 6.33822,0.28491 1.10381,-0.2254 1.41995,-1.51013 1.15039,-2.4668 -0.42717,-1.33602 -1.94325,-1.76473 -3.06472,-2.3494 -7.79906,-3.58447 -16.39375,-5.36819 -24.97239,-5.27169 z m 128.14453,45.86523 c 3.26142,0.38276 6.50792,0.98191 9.67969,1.83399 4.65465,1.44624 9.41902,2.51839 14.11459,3.82732 1.09042,0.37941 2.37898,0.521 3.23892,1.3426 0.1881,1.12787 -0.13464,2.29746 -0.28641,3.42398 -1.06185,5.68835 -4.51548,10.85999 -9.09667,14.43805 -4.57841,3.60484 -10.16671,5.8695 -15.91575,6.72 -3.94731,0.37614 -7.90963,0.59247 -11.89256,0.43828 -7.4955,-0.83962 -14.91992,-2.85497 -21.1487,-7.21774 -3.86556,-2.71083 -7.12378,-6.32076 -9.34545,-10.48812 3.20691,-1.57324 6.6078,-2.75175 10.0332,-3.76367 5.6357,-1.56008 11.53431,-2.63207 17.3951,-2.02968 2.43044,0.32633 5.15762,0.8808 6.78654,2.8871 0.86282,1.25561 0.99887,2.83873 1.51568,4.24558 0.17937,1.04007 0.3454,0.65977 0.50733,-0.1565 0.61905,-1.95033 0.88489,-4.12854 2.19183,-5.77463 0.59356,-0.72297 1.96796,-0.74226 2.0625,-1.86523 -0.005,-1.36679 -1.12799,-2.43183 -1.20037,-3.80016 -0.14922,-1.32913 -0.1699,-2.88939 0.75115,-3.95765 0.16187,-0.17338 0.40214,-0.10268 0.60938,-0.10352 z m -0.3457,73.2168 c 5.48595,0.6442 10.98772,1.14988 16.50097,1.49194 4.90417,0.36318 9.70548,1.30987 14.34692,2.83242 0.78092,0.24128 1.55682,0.49805 2.33179,0.75767 -6.78195,0.62847 -13.60676,0.65788 -20.42964,0.8032 -4.62537,0.0289 -9.25785,0.18874 -13.8792,-0.0475 -19.40426,-1.55306 -38.82097,-2.94918 -58.22219,-4.53919 -2.79819,-0.27484 -5.53556,-0.38949 -8.27365,-0.98804 -0.63321,-0.11685 -0.005,-0.84764 0.44178,-0.62262 8.61925,-0.1471 17.23409,-0.50174 25.85518,-0.55939 11.04145,-0.12739 22.0857,-0.1185 33.12656,-0.0992 2.73383,0.32356 5.46765,0.64711 8.20148,0.97067 z m 60.52148,10.13281 c 5.40735,-0.0213 10.85283,0.12951 16.176,0.91865 2.2459,0.30719 4.48702,0.64944 6.73806,0.91533 -4.6802,1.186 -9.46382,1.77048 -14.23402,2.41647 -6.9925,0.88755 -13.97752,1.51861 -21.01402,1.7515 -0.37021,-1.42382 -1.09731,-2.84095 -0.94276,-4.34167 0.33016,-1.08982 1.70757,-1.15506 2.64672,-1.34205 3.38577,-0.38934 7.11559,-0.28983 10.63002,-0.31823 z m -215.14258,0.77539 c 21.14803,0.12926 42.29434,0.45609 63.4413,0.69779 37.57222,0.46519 75.14504,0.88398 112.71691,1.37659 5.63121,0.12561 11.27426,0.0947 16.89189,0.54221 0.73136,0.11359 1.76862,0.0737 1.98789,0.96532 0.71644,2.3676 1.04026,4.93017 1.45811,7.43958 0.19404,1.65221 0.55106,3.40654 0.48437,5.11328 -0.19737,1.32542 -1.3597,2.44384 -2.73242,2.42773 -3.02612,0.15479 -6.06087,-0.0423 -9.09031,-0.0351 -56.92369,-0.75002 -113.84876,-1.39125 -170.77302,-2.09524 -6.25843,-0.10962 -12.52134,-0.10798 -18.77534,-0.37745 -0.55432,0.1186 -0.7689,-0.26706 -1.14649,-0.55664 -1.23484,-0.76221 -0.9378,-2.35246 -0.81054,-3.56641 0.51323,-3.30091 0.96215,-6.62807 1.82617,-9.85937 0.24616,-1.0487 1.0493,-2.15478 2.2435,-2.05111 0.75918,-0.0128 1.5187,-0.013 2.27798,-0.0212 z m 247.01953,18.98242 c 0.89407,0.0545 1.98833,0.23111 2.30469,1.2168 0.98383,2.556 1.22096,5.32168 1.6885,8.00301 1.24582,8.72819 2.45102,17.46281 3.58299,26.20011 0.20554,2.34315 0.69115,4.72899 0.27148,7.07227 -0.17739,1.08047 -1.46229,1.13415 -2.26648,1.16242 -8.88491,0.51334 -17.85042,2.11982 -25.94277,5.94822 -5.37098,2.57518 -10.48061,6.34222 -13.28325,11.72627 -0.73627,1.55989 -1.71768,3.12596 -3.34776,3.86987 -4.00794,2.00922 -7.89091,4.8242 -9.88106,8.96373 -1.49771,2.97453 -1.593,6.37653 -1.91827,9.62457 -0.37336,5.62853 -0.56794,11.29942 -0.0273,16.92323 0.32744,2.9551 1.77221,5.64354 3.29186,8.14692 3.78911,5.9217 9.23541,10.64384 15.2632,14.18742 1.11812,0.78135 2.44418,1.56406 2.93407,2.90633 0.19984,0.96906 -0.97613,1.1222 -1.60684,1.4516 -6.30256,2.55709 -12.74046,4.80527 -19.11909,7.1278 -0.88607,0.26089 -1.77587,0.71748 -2.69009,0.75459 -0.48337,-0.32443 -0.7636,-0.71092 -0.61267,-1.32344 -0.0199,-27.19298 -0.17345,-54.38659 0.0241,-81.57918 0.054,-6.46795 0.77316,-12.9355 2.13153,-19.25949 1.51736,-6.65513 3.83752,-13.35965 8.28199,-18.65842 2.30577,-2.78086 5.3487,-4.90673 8.73286,-6.16312 6.32879,-2.47063 12.92264,-4.33205 19.52815,-6.01111 3.97742,-0.93255 7.964,-1.97721 12.05004,-2.28372 0.20302,-0.0139 0.40677,-0.003 0.61008,-0.007 z m -248.10351,3.76758 c 12.57731,0.0632 25.15123,0.41058 37.7261,0.64646 26.46958,0.59503 52.94343,1.00849 79.4195,1.15037 25.06921,0.16829 50.14052,0.11626 75.20791,0.49614 2.33279,0.063 4.69096,0.079 6.98438,0.25781 -2.17395,2.96799 -4.93929,5.45894 -7.06641,8.46094 -0.25598,0.4254 -0.25161,0.93757 -0.64392,1.27814 -1.45027,2.74556 -2.4878,5.69252 -3.62952,8.57537 -1.08929,2.83825 -2.06794,5.71962 -2.74008,8.68747 -0.86369,3.11195 -1.46435,6.30994 -2.61055,9.3352 -0.17309,0.55245 -0.60609,0.98041 -1.21765,0.90687 -5.99806,0.61197 -12.03938,0.50917 -18.07778,0.51199 -3.41463,-0.0127 -6.82964,-0.10047 -10.23044,-0.42007 -11.23482,-0.66545 -22.49239,-0.85606 -33.74093,-1.18919 -36.74986,-0.92471 -73.49755,-1.9321 -110.24518,-2.9403 -6.21309,-0.19906 -12.46014,-0.1806 -18.63931,-0.60722 -2.67701,-0.14437 -5.25204,-0.91588 -7.85881,-1.46349 -2.23237,-0.47278 -4.55019,0.3027 -6.75538,-0.30608 -0.93793,-0.21751 -0.9065,-1.34343 -0.63648,-2.06339 1.45444,-3.7253 2.47539,-7.61534 4.13122,-11.26558 2.28799,-5.31353 5.32424,-10.26862 8.69385,-14.95898 0.51351,-0.64568 0.68389,-1.50696 1.40213,-1.98113 1.30622,-1.09365 2.72625,-2.11072 4.30274,-2.75977 2.03955,-0.42065 4.15421,-0.28961 6.22461,-0.35156 z m 147.43359,46.93164 c 11.44752,0.26015 22.89067,0.69342 34.33553,1.0394 0.96848,0.076 1.92514,-0.15583 2.76603,0.38834 0.61501,0.83229 0.48584,1.85516 0.55063,2.81093 -0.0707,5.52575 -0.40142,11.0458 -0.45586,16.57264 -0.23894,16.5689 -0.0519,33.13998 -0.0121,49.70965 0.0213,5.02296 0.0426,10.04592 0.0638,15.06889 -2.1022,1.13931 -4.52057,1.86081 -6.875,1.89453 -7.55986,0.31997 -15.11563,-0.285 -22.67496,-0.33503 -8.00978,-0.1621 -16.0212,-0.20329 -24.03178,-0.28838 -1.95164,-0.0885 -3.97604,0.008 -5.84804,-0.71009 -1.34433,-0.50911 -1.34715,-2.15676 -1.33971,-3.36298 0.2074,-5.48472 0.25819,-10.9509 0.84914,-16.40613 0.82587,-7.9991 2.17342,-16.00414 4.64385,-23.70624 1.22383,-3.65744 2.68147,-7.39671 5.2382,-10.27477 1.98506,-2.26048 4.06422,-4.50361 6.55747,-6.21111 0.37327,-0.24882 1.00006,-0.34296 1.35973,-0.0666 0.48446,1.24731 0.4095,2.56832 0.52301,3.83509 0.37346,9.25867 0.35765,18.53069 0.74501,27.78815 0.15295,1.43195 0.0227,3.03098 0.83745,4.28691 1.06113,1.04891 2.78414,1.45711 4.16993,0.81836 1.38702,-0.58695 2.65017,-1.75298 2.80273,-3.32812 0.44277,-3.23438 0.41962,-6.51286 0.54979,-9.77063 0.11149,-1.84511 -0.0987,-3.76803 0.50603,-5.54271 0.56368,-1.31037 2.23603,-1.22054 3.4309,-1.28072 4.71505,0.0786 9.42192,0.43208 14.13682,0.54438 1.92118,0.007 3.89058,0.25301 5.77848,-0.18712 1.41141,-0.43844 1.70407,-2.1432 1.72103,-3.42961 0.0112,-1.38621 -0.19763,-2.96526 -1.40163,-3.8485 -0.38735,-0.48217 -1.11737,-0.13304 -1.6597,-0.239 -5.76657,-0.0233 -11.53369,0.035 -17.29977,0.01 -1.45013,-0.0937 -3.15155,0.0413 -4.29906,-1.00977 -0.92402,-1.24922 -0.79071,-2.90349 -0.89683,-4.35099 -0.16865,-7.24856 -0.43034,-14.49495 -0.73989,-21.73885 -4.67738,-2.30579 -9.40959,-4.63664 -14.53166,-5.77804 -0.82399,-0.24543 -1.95294,-0.4644 -2.5367,-1.24149 0.63942,-0.59702 1.63967,-0.40382 2.44075,-0.606 3.53324,-0.41767 7.04657,-0.81675 10.59636,-1.05416 z m -128.36328,10.60938 c 8.03267,0.0998 16.05299,0.61942 24.07997,0.9081 28.94248,1.19802 57.88954,2.29128 86.82678,3.6117 3.36458,0.17316 6.84364,0.29172 10.13231,0.53098 -1.30376,0.31208 -2.48605,1.0296 -3.70769,1.57373 -4.75873,2.2816 -9.00986,5.70415 -11.96251,10.10474 -3.98078,5.8654 -6.21671,12.68206 -8.24332,19.41283 -3.39711,11.26135 -4.86734,22.99921 -5.51715,34.71454 -0.19604,2.98555 -0.21599,5.92793 -0.63378,8.88166 -2.70193,0.31952 -5.4379,0.0634 -8.15144,0.014 -33.29561,-1.4257 -66.59788,-2.69902 -99.88921,-4.22352 -3.46071,-0.18444 -6.90676,-0.29368 -10.34802,-0.59912 -0.67166,-0.52803 -0.45698,-1.55 -0.54193,-2.30937 0.0562,-6.95999 0.46512,-13.89312 1.25468,-20.78492 1.50974,-12.84902 4.5794,-25.72873 10.90017,-37.11463 2.27982,-4.14462 4.99705,-7.95959 8.02184,-11.60553 0.87536,-1.17443 1.83187,-2.51414 3.38856,-2.76475 1.48822,-0.33257 2.86454,-0.32475 4.39074,-0.35048 z m 2.75586,17.08203 c -1.13254,0.0119 -2.43475,0.44617 -2.82617,1.62304 -0.45596,1.33237 -0.83718,2.66206 -1.48739,3.93111 -0.44625,0.79142 -0.13194,1.87761 0.76654,2.17068 1.95298,0.77032 4.1006,0.80814 6.1644,1.04759 10.5001,0.83933 21.02245,1.36634 31.53205,2.07202 13.93393,0.88046 27.86599,1.80782 41.79784,2.70829 0.97626,-0.0599 2.1996,0.30745 2.98242,-0.44531 0.91489,-1.58675 1.35801,-3.40718 1.83725,-5.16379 0.18052,-0.82818 0.64228,-2.12118 -0.39194,-2.57059 -1.97775,-0.51411 -4.05495,-0.48137 -6.08075,-0.68651 -16.2043,-1.11196 -32.41768,-2.09008 -48.62544,-3.15123 -7.615,-0.46838 -15.22638,-1.00243 -22.8387,-1.5027 -0.9424,-0.0504 -1.88688,-0.0746 -2.83011,-0.0326 z m -8.82227,23.77734 c -1.18673,0.0356 -2.74558,0.30908 -3.1026,1.64922 -0.4225,1.53026 -0.31903,3.14644 -0.51849,4.71211 -0.14603,1.15496 0.77862,2.10081 1.84566,2.35692 2.80324,0.79794 5.74985,0.84682 8.63665,1.10262 12.04547,0.77095 24.10381,1.35678 36.15398,2.06799 11.44264,0.6246 22.88529,1.33991 34.33349,1.94278 1.18313,-0.0469 2.51036,0.30215 3.58881,-0.31601 0.9136,-0.74741 0.86868,-2.076 1.06067,-3.14248 0.12248,-1.63226 0.31697,-3.33453 -0.15051,-4.92784 -0.31016,-0.78699 -1.33663,-0.56444 -2.01656,-0.72436 -9.36497,-0.87727 -18.7589,-1.41836 -28.14397,-2.0378 -16.02151,-0.9859 -32.03912,-1.98038 -48.07878,-2.6181 -1.20241,-0.0374 -2.40518,-0.0775 -3.60835,-0.0651 z" /></g></g></svg>
