<?xml version="1.0" encoding="UTF-8" standalone="no"?>
<!-- Created with Inkscape (http://www.inkscape.org/) -->

<svg
   width="638.56635mm"
   height="248.22923mm"
   viewBox="0 0 638.56634 248.22923"
   version="1.1"
   id="svg1"
   xml:space="preserve"
   inkscape:version="1.4.3 (0d15f75042, 2025-12-25)"
   sodipodi:docname="Inkotter-Claim.svg"
   xmlns:inkscape="http://www.inkscape.org/namespaces/inkscape"
   xmlns:sodipodi="http://sodipodi.sourceforge.net/DTD/sodipodi-0.dtd"
   xmlns="http://www.w3.org/2000/svg"
   xmlns:svg="http://www.w3.org/2000/svg"><sodipodi:namedview
     id="namedview1"
     pagecolor="#ffffff"
     bordercolor="#000000"
     borderopacity="0.25"
     inkscape:showpageshadow="2"
     inkscape:pageopacity="0.0"
     inkscape:pagecheckerboard="0"
     inkscape:deskcolor="#d1d1d1"
     inkscape:document-units="mm"
     inkscape:zoom="0.17839331"
     inkscape:cx="-126.12581"
     inkscape:cy="-490.48925"
     inkscape:window-width="1920"
     inkscape:window-height="1052"
     inkscape:window-x="0"
     inkscape:window-y="0"
     inkscape:window-maximized="1"
     inkscape:current-layer="svg1" /><defs
     id="defs1" /><g
     inkscape:label="Ebene 1"
     inkscape:groupmode="layer"
     id="layer1"
     transform="translate(411.85246,68.761265)"><g
       id="g1518"><path
         id="path1529"
         style="fill:#c1c0be"
         d="m -364.70312,95.208984 c -1.03453,1.096172 -2.23919,2.055261 -3.12696,3.277344 -0.46746,0.719121 0.42183,1.399238 1.11174,1.282284 11.84778,0.414728 23.70437,0.552718 35.55638,0.824108 15.44741,0.32482 30.89243,0.75369 46.34027,1.06109 6.49066,0.1182 12.97641,0.39728 19.46417,0.60589 0.59095,-0.0425 1.26795,0.12941 1.80909,-0.0374 1.36446,-1.25711 2.39158,-2.852835 3.18905,-4.515229 0.36766,-0.700521 -0.15566,-0.804466 -0.7541,-0.803134 -8.26652,-0.344933 -16.54413,-0.364702 -24.81571,-0.548909 -25.87203,-0.439358 -51.74351,-0.921374 -77.61665,-1.289381 -0.3604,0.07244 -0.9059,-0.179918 -1.15728,0.143377 z m 134.03906,68.816406 c -5.54231,2.59951 -11.2237,4.93219 -17.16811,6.3011 -8.4177,1.98959 -17.1207,2.62214 -25.76158,3.25945 -20.73523,1.44586 -41.61999,1.33264 -62.35742,0.13867 -10.03201,-0.6399 -20.0554,-1.44169 -30.01079,-2.82285 -2.02069,-0.35738 -4.09218,-0.61545 -5.91695,-1.6791 -1.05633,-0.56243 -1.3987,-1.77474 -2.20507,-2.57227 -0.92849,-0.6338 -2.12511,-0.19063 -3.16407,-0.19141 -3.90358,0.50999 -7.80247,1.37339 -11.42934,2.93134 -0.7748,0.39131 -2.03523,0.91046 -1.76988,1.99054 0.50948,1.22454 1.93345,1.65666 3.05802,2.13684 5.80215,2.04502 11.99719,2.4603 18.06966,3.09987 13.7515,1.35996 27.55865,2.00644 41.36669,2.43879 8.68394,0.37373 17.37671,0.46735 26.06768,0.38269 16.11238,-0.16615 32.22949,-0.55789 48.31491,-1.51327 10.189,-0.7154 20.38563,-1.53516 30.48359,-3.09879 4.43294,-0.75803 8.94161,-1.49821 13.09255,-3.29943 0.90077,-0.35713 2.12913,-1.12986 1.76565,-2.26975 -0.63023,-1.30816 -2.17667,-1.74411 -3.43164,-2.23437 -4.66149,-1.49555 -9.55452,-2.09337 -14.40318,-2.6333 -1.51642,-0.12374 -3.05887,-0.36402 -4.56285,-0.38196 z" /><path
         id="path1528"
         style="fill:#d5b584"
         d="m -354.67383,44.248047 c 0.8999,1.338989 2.17867,2.40883 3.21221,3.655605 3.67442,4.121764 6.33323,9.23604 7.0685,14.744895 0.46963,2.94492 0.32362,5.931897 0.20562,8.896375 -0.0729,0.646978 0.25894,1.588324 1.07372,1.34659 5.77319,-0.815078 11.49918,-1.754821 17.29893,-2.315773 18.17299,-1.868231 36.64124,-1.887748 54.80421,0.182694 7.0839,0.783514 14.07687,2.034544 21.06715,3.477541 0.89458,0.177164 1.78869,0.356718 2.68372,0.531604 0.15652,-2.927873 0.20746,-5.913391 1.19997,-8.709268 1.74287,-5.296276 5.02187,-9.903061 8.97754,-13.762 2.37246,-2.340325 5.16701,-4.370494 8.04645,-6.122012 0.43152,-0.226032 0.59823,-0.677208 0.32134,-1.097421 -0.59843,-0.274114 -1.34376,0.24758 -1.95288,0.458321 -6.09698,2.759401 -11.97182,5.992629 -18.30745,8.133579 -6.96525,2.565493 -14.17643,4.360552 -21.47442,5.624192 -8.80264,1.473095 -17.68895,2.354573 -26.61719,1.86914 -3.9792,-0.260523 -8.01998,-0.950589 -11.98597,-1.625173 -9.68561,-1.696861 -19.21053,-4.61546 -28.28966,-8.432181 -5.69929,-2.311449 -11.19862,-5.075653 -16.80699,-7.588944 -0.76504,-0.448836 -1.06095,-0.390447 -0.61084,0.474573 0.0287,0.08589 0.0574,0.171775 0.086,0.257663 z" /><path
         id="path1527"
         style="fill:#d87075"
         d="m -292.7207,31.9375 c -4.09807,0.211684 -8.19402,1.304013 -11.73821,3.393984 -0.76921,0.46755 -0.46552,1.471675 0.059,2.003468 2.18686,3.12872 5.64833,5.16259 9.31507,6.059873 5.56856,1.476755 11.72451,1.080803 16.89329,-1.546275 1.6945,-0.929195 3.432,-2.159847 4.2013,-3.993081 0.10991,-1.239832 -1.14547,-1.99572 -2.02684,-2.61659 -3.03399,-1.850297 -6.565,-2.852601 -10.10087,-3.055783 -1.06732,-0.100658 -1.88251,0.811289 -1.97776,1.818857 -0.13531,0.247233 -0.0868,1.592902 -0.36,1.162869 -0.68531,-1.127377 -0.99684,-2.854011 -2.51118,-3.154724 -0.57421,-0.139261 -1.16983,-0.08596 -1.75382,-0.0726 z" /><path
         id="path1526"
         style="fill:#89746b"
         d="m -290.11133,-7.2480469 c -3.62902,0.033625 -7.26666,0.7584263 -10.5826,2.2438968 -0.57893,0.2111228 -1.31163,0.9321386 -0.69332,1.4975523 1.25699,1.1769866 3.08973,1.3438518 4.70706,1.6642291 5.94377,0.88212243 11.95406,1.20705572 17.94204,1.66358426 2.76396,0.20459683 5.6002,0.35921867 8.31235,-0.31114251 0.76597,-0.182462 0.91812,-1.16342205 0.38992,-1.68237555 -1.53223,-1.8652941 -3.95889,-2.6106842 -6.17809,-3.3145072 -4.50614,-1.2705309 -9.2195,-1.8183329 -13.89736,-1.7612372 z m -12.50976,79.5175779 c -9.1108,0.135241 -18.19936,0.928701 -27.22266,2.175781 -0.31676,0.263464 -1.72273,0.594338 -0.69495,0.774588 1.07667,0.51973 2.30651,0.195547 3.45936,0.295561 15.09739,0.04733 30.18932,0.550628 45.23245,1.745838 4.55711,0.395313 9.11422,0.788349 13.61251,1.695732 3.7866,0.277714 7.59544,0.06399 11.37248,-0.25547 0.94285,-0.14678 1.97745,-0.118682 2.81893,-0.617577 0.50123,-0.588232 -0.26278,-1.118486 -0.82514,-1.193855 -3.90449,-1.037203 -7.91323,-1.629093 -11.89765,-2.270757 -11.85877,-1.741615 -23.87069,-2.514054 -35.85533,-2.349841 z" /><path
         id="path1525"
         style="fill:#b46536"
         d="m -300.58008,-61.181641 c -11.09557,0.280127 -22.16392,2.270527 -32.61753,6.011279 -6.25501,2.464894 -12.11445,5.888153 -17.50472,9.893407 -2.7535,2.00076 -5.18177,4.390795 -7.61408,6.759377 -5.05826,-1.575293 -10.4088,-2.968506 -15.73563,-2.09899 -3.53814,0.526134 -6.94504,2.519268 -8.69813,5.705071 -0.60818,1.162529 -1.23673,2.361505 -1.52717,3.643919 -0.0441,0.532663 0.54368,0.891581 0.95117,0.486328 0.90204,-0.986308 1.57281,-2.200147 2.68868,-2.990603 3.28194,-2.576603 7.75576,-2.847843 11.7284,-2.18273 2.5405,0.454087 5.06165,1.179258 7.38161,2.31684 0.78069,0.392125 0.0719,1.299097 -0.16069,1.834025 -0.40413,0.872085 -1.06143,1.676062 -1.16535,2.65528 0.11774,0.727765 1.01652,0.605459 1.39431,0.154096 2.0615,-1.808178 3.85562,-3.921783 6.10512,-5.51683 4.22178,-3.121327 9.03193,-5.296734 13.55871,-7.920442 2.8707,-1.627548 5.81146,-3.282198 8.94648,-4.26261 4.96766,-1.606583 10.0213,-3.051049 15.09114,-4.393108 4.20942,-1.135959 8.56219,-1.596599 12.88967,-1.645938 5.25527,-0.05298 10.56853,-0.142016 15.78518,0.162291 5.87383,0.323045 11.49499,2.136079 17.04887,3.859309 4.5912,1.537826 9.31711,3.214166 13.36216,6.004639 1.54199,1.086148 2.94619,2.499205 3.52031,4.341213 0.12887,0.596609 0.47184,0.980889 1.08069,1.097873 3.55802,1.577379 7.45824,2.545665 10.56893,4.988648 2.46757,1.850617 4.47386,4.462439 6.18359,7.085938 1.01952,1.369395 2.12254,3.109991 3.97852,3.30664 1.79056,0.05693 3.64357,-0.06474 5.33984,-0.675781 0.79381,-0.325168 0.38435,-1.189147 0.15288,-1.757009 -0.54252,-1.524273 -1.23833,-2.990186 -1.83843,-4.487132 -0.414,-1.44847 0.94423,-2.584602 2.14098,-3.068132 3.05935,-1.266216 6.56982,-1.206064 9.71767,-0.297065 1.87128,0.535275 3.55639,1.634877 4.77243,3.15781 0.36096,0.322068 0.90641,1.112531 1.15213,1.14059 0.017,-1.543318 0.15029,-3.233362 -0.81463,-4.555411 -1.70721,-2.512429 -4.72717,-3.709869 -7.59048,-4.335145 -4.10405,-0.852543 -8.58425,-0.450528 -12.22904,1.729075 -0.40049,0.104583 -0.89785,0.723193 -1.22196,0.217797 -3.17553,-2.957801 -6.17079,-6.123755 -9.64034,-8.749211 -13.15488,-10.298881 -29.5914,-15.876018 -46.13848,-17.277526 -3.67137,-0.313078 -7.35875,-0.420753 -11.04281,-0.337782 z m 9.11914,47.390625 c -6.8254,0.221596 -13.747,1.348205 -19.96202,4.2848878 -0.75863,0.4135454 -1.61106,0.7199673 -2.24306,1.3244876 -0.3265,0.4894162 0.19743,0.9528546 0.69336,0.796875 5.76206,-1.5467553 11.58878,-2.9676724 17.5586,-3.5429684 5.67463,-0.574956 11.5201,-0.395287 17.15292,0.661257 2.34139,0.417603 4.64525,1.018485 6.93692,1.6473364 0.63556,-0.2070754 1.10889,-0.4486059 0.34766,-0.9277344 -1.43488,-1.059995 -3.16708,-1.668516 -4.83789,-2.267578 -5.03453,-1.615705 -10.38246,-2.079914 -15.64649,-1.976563 z M 15.503906,22.8125 c -2.611253,0.839329 -5.278641,1.611635 -7.7812498,2.761719 -2.436737,1.185471 -3.9846514,3.518823 -5.6492975,5.556969 -1.71655945,2.264388 -3.2082436,4.786943 -3.7201043,7.61953 -0.4491201,1.021985 0.1989884,0.49875 0.74684137,0.116705 1.12453333,-0.831228 2.49865183,-1.37509 3.41357613,-2.457267 0.2830997,-0.874902 1.2884417,-1.210323 1.9947226,-1.693586 4.2496664,-2.390835 9.0815595,-3.955414 14.0007795,-3.736598 5.584798,0.170173 10.849449,2.832926 14.853898,6.6334 3.718195,3.422589 6.467884,7.712154 8.993151,12.048498 0.255953,0.260174 0.790547,1.680461 0.832722,1.050583 0.165474,-1.935074 0.333968,-3.893063 -0.07719,-5.812052 -0.82719,-4.619607 -2.216213,-9.153711 -4.176207,-13.419932 -0.867379,-1.993341 -2.312667,-3.708058 -4.153036,-4.869456 -4.172337,-2.689557 -9.216575,-3.710035 -14.123129,-3.809909 -1.718427,-0.0083 -3.437017,0.0096 -5.155476,0.0114 z M -234.47266,64.113281 c -0.58721,0.442435 -0.26265,1.35677 -0.32812,2.003907 0.21785,5.137184 0.70283,10.405258 2.91732,15.120077 2.69179,5.930597 7.20484,10.724865 11.00986,15.93044 1.80825,2.344729 2.84994,5.140075 4.15679,7.748975 1.61365,3.45574 3.23168,6.9178 4.65213,10.45476 0.20148,0.5785 1.08707,0.57177 1.14866,-0.0785 0.003,-1.76232 -0.57111,-3.47794 -0.95898,-5.18555 -1.98558,-7.61337 -6.12884,-14.400604 -10.16697,-21.068031 -3.85852,-6.318312 -8.14984,-12.539089 -10.24319,-19.724936 -0.55049,-1.636663 -0.8364,-3.364167 -1.43554,-4.976562 -0.12722,-0.233932 -0.52866,-0.454832 -0.75196,-0.22461 z m -149.58203,1.417969 c -1.44382,0.106338 -2.17179,1.579721 -2.91471,2.625572 -4.10747,6.5211 -7.93489,13.233161 -11.22011,20.20915 -1.6926,3.54443 -2.52636,7.406403 -3.60309,11.16245 -0.44131,1.818408 -1.04738,3.613548 -1.28357,5.471578 0.28029,0.46135 0.69677,0.5633 1.02148,0.0898 1.03978,-1.94172 1.70464,-4.06577 2.67487,-6.045256 3.79138,-8.227163 8.11978,-16.203637 12.81466,-23.953427 1.42414,-2.410252 3.12306,-4.694824 4.16632,-7.306032 0.0286,-0.506852 0.63832,-1.276149 0.27935,-1.606358 -0.62582,-0.257053 -1.23298,-0.668948 -1.9352,-0.647517 z m 0.28321,43.37305 c -1.73267,0.0597 -2.72327,1.78722 -3.25586,3.23242 -1.04931,3.07005 -1.13924,6.54893 0.0508,9.5918 1.27614,2.68684 3.98828,4.30604 6.58934,5.51356 2.34953,1.02425 4.82261,1.83242 7.35988,2.213 0.6626,0.11023 0.95413,-0.81704 0.3457,-1.10156 -2.51453,-1.32003 -5.58417,-1.56835 -7.72122,-3.58854 -2.53639,-2.2022 -3.2196,-5.77163 -3.03122,-8.98141 0.0425,-2.03805 0.59503,-3.99535 0.82298,-6.00111 0.0659,-0.69043 -0.56936,-0.96441 -1.16038,-0.87816 z m 158.27929,3.41406 c -1.14973,0.0607 -2.29952,0.12028 -3.44922,0.18164 -0.20081,2.33646 -0.0784,4.73421 -0.69336,7.01367 -0.1834,0.5704 -0.99552,0.15457 -1.44412,0.30215 -5.02024,0.0573 -10.21532,0.0632 -14.94406,1.97161 -1.58234,0.68275 -3.41548,1.73181 -3.6958,3.59929 -0.0355,0.53188 -0.0927,1.44639 0.58994,1.52581 3.00704,-0.68976 6.03129,-1.38793 9.1282,-1.49787 2.45027,-0.19957 4.97695,-0.0143 7.41328,0.45939 1.53625,0.25991 3.06985,0.53621 4.60491,0.80368 1.31561,-0.50259 2.64618,-1.16701 3.42085,-2.40063 1.6807,-2.52146 2.14847,-5.81712 1.3458,-8.72789 -0.32599,-1.26441 -1.15974,-2.29312 -2.0147,-3.24452 -0.0872,0.005 -0.17448,0.009 -0.26172,0.0137 z" /><path
         id="path1524"
         style="fill:#236b93"
         d="m -75.982422,16.837891 c -1.963397,0.04828 -3.943025,-0.04553 -5.896484,0.138671 -0.626806,0.110125 -0.337132,1.030901 -0.552434,1.504872 -4.833479,28.984458 -9.772894,57.951419 -14.564078,86.942806 -0.222478,0.51457 -0.0046,1.14033 0.614559,1.16365 3.198247,0.28442 6.419732,0.0999 9.627326,0.13213 3.010291,-0.0234 6.020593,-0.0454 9.030877,-0.0696 1.584063,-9.173431 3.012499,-18.375941 4.804687,-27.511718 3.734235,7.237502 7.159105,14.630207 10.636872,21.992638 1.000803,1.90192 1.928162,4.13149 3.954472,5.14962 2.083978,0.91027 4.42636,0.49358 6.62821,0.50927 4.726406,-0.12127 9.455301,-0.0898 14.18279,-0.14176 -4.638384,-9.017928 -9.338721,-18.052244 -13.958984,-27.048831 -0.861202,-1.882633 -1.92662,-3.612113 -2.269313,-5.66935 -0.210232,-1.475655 1.252005,-2.326549 2.107302,-3.274343 6.921515,-7.016249 13.202523,-14.892853 17.095927,-24.019386 0.332365,-0.830071 1.104771,-1.951134 0.301857,-2.740223 -1.024361,-0.718553 -2.385899,-0.499703 -3.570147,-0.599961 -4.606981,0.0087 -9.216594,-0.06812 -13.821929,0.06176 -1.149629,0.05078 -2.665093,0.210917 -3.084259,1.496337 -1.404982,4.076859 -3.499929,7.964141 -6.163486,11.40599 -2.942134,3.822428 -6.198555,7.400713 -9.611577,10.805969 -0.599897,0.717415 -0.649712,0.368628 -0.447212,-0.381734 2.605848,-16.204221 5.469706,-32.368718 7.980415,-48.587016 0.05229,-0.516784 0.310201,-1.291124 -0.495607,-1.142122 -4.171016,-0.173347 -8.354824,-0.105183 -12.529784,-0.117643 z m 90.496094,0.0098 c -0.530858,-0.06499 -0.936935,0.285757 -1.38851,0.412841 -2.599866,0.164932 -5.2325778,0.01627 -7.7981622,0.566145 -5.97601328,1.063846 -11.2860109,4.466142 -15.5077708,8.726642 -3.4126,3.453108 -6.471979,7.484751 -7.861104,12.198528 -0.618746,2.200716 -0.814869,4.910345 0.826501,6.72864 1.193116,1.230216 3.011163,1.824333 4.707338,1.696789 2.40744,-0.293492 4.0127173,-2.396019 5.2692092,-4.270295 3.0822776,-4.720535 4.9323328,-10.279398 8.8877259,-14.365108 3.1933319,-3.21573 7.4422346,-5.021109 11.4608459,-7.02599 0.879634,-0.582627 1.972494,-0.198366 2.961495,-0.285061 3.295265,0.04798 6.590527,0.09618 9.885791,0.144213 0.04287,-0.699474 0.08739,-1.551219 -0.657325,-1.913039 -2.128985,-1.2481 -4.607553,-1.728233 -6.996519,-2.231753 -1.250652,-0.2157 -2.516254,-0.413751 -3.789515,-0.382552 z m -179.714842,0.572266 c -3.49805,0.02497 -6.99611,0.04788 -10.49414,0.07422 -4.88877,29.091622 -9.86005,58.171288 -14.64085,87.279843 -0.14108,0.66345 -0.1439,1.33815 -0.14431,2.01313 7.16602,0 14.33203,0 21.49805,0 4.5307,-26.993881 9.11504,-53.98034 13.61888,-80.977724 0.35915,-2.6158 0.93015,-5.215727 1.05104,-7.856265 -0.0292,-0.671643 -0.73478,-0.470045 -1.20262,-0.523425 -3.2284,-0.04703 -6.45745,-0.02349 -9.68605,-0.0098 z m 50.94531,26.714844 c -6.5466,0.145823 -12.71515,3.267829 -17.5,7.603515 -0.6687,0.778033 -0.38857,-0.279619 -0.37747,-0.768533 0.0843,-1.569352 0.45046,-3.154346 0.22903,-4.721701 -0.2889,-0.946546 -1.46661,-0.632129 -2.21485,-0.7516 -4.98239,-0.118437 -9.97437,-0.158672 -14.95305,0.08246 -0.46891,0.021 -1.146,0.09311 -1.07936,0.713097 -2.85912,16.19222 -5.57039,32.411168 -8.32258,48.622214 -0.63274,3.818833 -1.30129,7.633117 -1.88524,11.458827 0.99806,0.5025 2.17752,0.22939 3.25586,0.35547 5.31912,0.0943 10.63934,0.0468 15.95899,0.0586 0.83675,-2.06353 0.91026,-4.3289 1.29876,-6.50046 1.24477,-8.485642 2.50413,-16.977431 4.51765,-25.296413 1.04762,-4.039241 2.19623,-8.249437 4.49218,-11.824218 0.55173,-0.839472 1.26717,-1.696047 1.99191,-2.317075 2.15112,-1.899469 5.23569,-2.496612 8.01549,-2.052185 1.64496,0.253376 2.6625,1.807734 2.90862,3.351682 0.55907,3.145767 0.13569,6.27764 -0.22283,9.397865 -0.90414,6.40952 -2.09864,12.834473 -3.17443,19.256188 -0.87611,4.986363 -1.68731,9.986686 -2.65488,14.955406 -0.19308,0.58376 -0.56352,1.30146 0.39276,1.02921 6.32657,0 12.65313,0 18.97969,0 0.85999,-4.089 1.41956,-8.236396 2.15058,-12.350326 1.42779,-8.752491 3.066114,-17.473601 4.289115,-26.256505 0.542643,-4.132504 0.975188,-8.412311 -0.184959,-12.484588 -0.993516,-4.243761 -3.886686,-8.039448 -7.858346,-9.897528 -2.4934,-1.211597 -5.29142,-1.719892 -8.05264,-1.663394 z" /><path
         id="path69"
         style="fill:#854924"
         d="m -222.33008,-33.550781 c -3.00223,0.146192 -5.92987,1.367263 -8.10758,3.448153 -0.77118,0.298965 -0.14646,0.882575 0.055,1.379307 0.4991,0.804231 0.7618,2.025971 1.79283,2.29168 1.04087,-0.39155 1.84522,-1.268647 2.79322,-1.854697 1.99644,-1.333753 4.19827,-2.596856 6.67522,-2.382262 1.86741,0.150811 3.12205,1.875356 3.42196,3.605728 0.65459,3.513806 -0.36569,7.084683 -1.59953,10.357014 -1.02058,2.598579 -2.28226,5.115849 -3.07798,7.7957018 -0.0692,0.6703061 0.75837,0.9669903 1.19531,0.4902343 1.61836,-1.6222871 2.75136,-3.6552521 3.96289,-5.5839841 1.91324,-3.126644 3.44501,-6.545423 3.9428,-10.204351 0.16197,-1.538016 0.45373,-3.269898 -0.35686,-4.676509 -0.40878,-0.569659 -1.21752,-0.590844 -1.61939,-1.194661 -2.2127,-2.599792 -5.75163,-3.657354 -9.07788,-3.471354 z" /><path
         id="path68"
         style="fill:#854924"
         d="m -300.49219,-53.503906 c -5.57428,0.13611 -11.2278,0.135802 -16.65018,1.605742 -5.0653,1.319772 -10.09092,2.801077 -15.0913,4.346821 -4.65584,1.372795 -8.76677,4.017096 -13.01025,6.293242 -3.1958,1.84235 -6.60183,3.341811 -9.55432,5.581618 -2.33877,1.664174 -4.40871,3.735196 -6.48692,5.642589 -0.21071,0.124518 -1.0763,1.039651 -0.94756,0.649591 0.47334,-1.273068 1.45421,-2.343202 1.69756,-3.695775 -0.0297,-1.206825 -1.42504,-1.483955 -2.33407,-1.833369 -4.35464,-1.503196 -9.11295,-2.633118 -13.69543,-1.532333 -2.71256,0.622459 -5.09667,2.341997 -6.64823,4.639139 -0.55311,0.80288 -1.54391,1.358455 -1.61719,2.421875 -0.27299,2.539749 0.48129,5.05264 1.15667,7.474712 1.21506,3.886733 2.69243,7.753817 4.95115,11.164632 0.6965,0.9132735 1.55377,2.1907265 2.86288,2.0403439 0.78201,-0.084113 1.19887,-1.0148995 0.72587,-1.6500139 -0.99237,-1.641448 -2.3782,-3.023192 -3.27109,-4.735519 -2.20185,-3.883264 -3.38273,-8.487698 -2.36884,-12.895717 0.54071,-2.362707 2.12169,-4.786822 4.64842,-5.281399 2.63809,-0.550195 5.0949,0.901642 7.32969,2.095476 1.49703,0.879009 3.18417,1.656866 4.22694,3.096305 0.57986,0.879909 -0.46898,1.563434 -0.85961,2.253242 -1.80318,2.799246 -3.0616,5.909387 -4.86842,8.710174 -0.92429,1.330209 -1.40727,2.897952 -1.54,4.502798 -0.33084,4.3459745 -2.29693,8.296909 -3.93219,12.26141729 -1.78087,4.69348731 -2.84978,9.71620601 -2.74061,14.75115171 0.10166,1.084416 0.008,2.354284 0.72211,3.243647 0.54804,0.481374 1.13461,-0.251073 1.03822,-0.824704 -0.0114,-2.377832 0.55779,-4.725608 1.68059,-6.768352 2.27191,-4.2075186 6.41624,-7.1558354 10.56582,-9.08037485 6.68406,-3.05788635 14.09396,-4.12912375 21.3876,-4.01338625 4.46007,0.059888 8.88844,0.7089721 13.25923,1.5887157 0.78001,0.1864636 1.48429,-0.447018 2.23064,-0.623162 5.30107,-2.0482073 10.64147,-4.0254627 15.74794,-6.531569 5.84531,-2.5753056 12.12912,-4.0923206 18.45715,-4.6260736 4.80718,-0.372236 9.6557,-0.176284 14.32525,1.219684 2.76031,0.820763 5.55775,1.646133 8.11297,2.9949937 1.60813,1.0674877 3.47861,1.6679854 5.23315,2.4521434 1.38025,0.5186891 2.71624,1.2151605 4.12354,1.6253778 0.71284,0.3402946 0.55333,-0.5740785 0.34349,-0.945358 -1.05739,-1.3450129 -2.30665,-2.5655304 -3.07654,-4.1202129 -1.66777,-3.002758 -2.14166,-6.642553 -1.21027,-9.995714 1.16328,-4.474049 4.96978,-8.205888 9.57219,-8.975583 2.35512,-0.452578 5.01864,-0.124451 7.24419,0.674357 3.87767,1.336959 6.90501,4.729468 7.87958,8.702098 0.42335,1.635146 0.54662,3.118151 0.42901,4.813527 -0.24247,3.244813 -1.66702,6.6246013 -4.18244,8.8455169 -2.44648,2.2557268 -5.85487,3.137677 -9.12214,3.0203776 -1.09198,0.00304 -2.18271,0.051882 -3.27354,0.096996 2.08812,1.1431249 4.235,2.17302686 6.35742,3.25000005 5.17949,-1.51811505 10.65463,-2.02818335 16.01758,-1.375 3.74026,0.44547879 7.71891,1.49863355 11.18527,3.09635325 3.17244,1.4015702 6.0241,3.426528 8.61334,5.6983972 0.48623,0.4740149 1.07881,0.7764769 1.73068,0.9532964 -0.0708,-1.8568357 -1.17947,-3.427751 -2.07065,-4.9856294 -0.97986,-1.7058395 -2.23346,-3.22009909 -3.53071,-4.68823016 -1.45557,-1.86160464 -2.95271,-3.98322604 -3.23209,-6.43771694 -0.15753,-2.8575369 -1.17893,-5.5814549 -2.08887,-8.2686589 -0.96216,-2.701201 -2.11318,-5.334071 -3.45658,-7.867812 -1.99908,0.564047 -4.16063,1.66814 -6.24024,0.81836 -2.43325,-1.209583 -3.4694,-3.899081 -5.16081,-5.868924 -2.74259,-3.54675 -6.55594,-6.189067 -10.77311,-7.676928 -1.57015,-0.600368 -3.14006,-1.203492 -4.67936,-1.87993 -0.71089,-1.582838 -1.35342,-3.345685 -2.88584,-4.32992 -3.62001,-2.607072 -7.64617,-4.619096 -11.87932,-6.018801 -6.61704,-2.221061 -13.37372,-4.262276 -20.36844,-4.806065 -3.65994,-0.3158 -7.33762,-0.345676 -11.00898,-0.292479 z m -34.5664,13.330078 c 1.28618,0.04285 2.79095,0.397352 3.53711,1.521484 -0.547,0.725207 -1.61062,0.809571 -2.44512,1.024748 -3.38433,0.576999 -6.61405,1.883403 -9.53433,3.673453 -0.36195,0.161329 -0.78631,0.474353 -1.17095,0.415081 -0.2994,-1.871455 1.25993,-3.383791 2.65094,-4.376097 2.03231,-1.38799 4.484,-2.280698 6.96235,-2.258669 z m 4.55859,8.630859 c 4.04274,-0.143526 8.11551,1.707463 10.5397,4.969233 3.80729,4.883067 4.06662,12.356748 0.18624,17.2768807 -1.82447,2.2875844 -4.37705,4.1135598 -7.26305,4.7441209 -4.72895,0.8611812 -9.76659,-0.9807184 -13.09504,-4.3869437 -2.13402,-2.1547909 -3.5083,-5.1728359 -3.72332,-8.1247749 -0.25455,-3.213307 0.71437,-6.552357 2.70928,-9.180923 1.33482,-1.756976 3.01549,-3.114941 5.00752,-4.03978 0.86552,-0.394175 1.87256,-0.741162 2.84765,-0.94336 0.91869,-0.190318 1.85294,-0.297061 2.79102,-0.314453 z" /><path
         id="path67"
         style="fill:#854924"
         d="m -374.9375,14.181641 c -1.11933,2.114428 -2.05158,4.373105 -2.42383,6.746093 0.0272,1.073577 0.85722,1.92529 1.36524,2.820313 2.77157,3.882978 5.90344,7.5184 9.35877,10.808605 1.09251,1.010052 2.29158,1.963252 3.66076,2.560536 0.64932,0.152444 0.91464,-0.68074 0.49356,-1.09897 -1.93705,-2.4954 -4.11488,-4.812427 -5.80912,-7.492763 -2.53213,-3.787709 -4.30202,-8.134305 -5.24965,-12.51005 -0.24873,-1.037618 -0.49733,-2.07527 -0.74534,-3.113061 -0.2168,0.426432 -0.43359,0.852864 -0.65039,1.279297 z" /><path
         id="path66"
         style="fill:#854924"
         d="m -288.2168,27.585938 c -5.24524,1.273243 -10.49745,2.565739 -15.83008,3.419921 -0.85022,0.11189 -2.16102,0.07673 -2.375,1.148438 -0.0289,1.027499 0.29661,2.069266 0.71534,2.999917 0.46018,0.88106 1.57635,0.550041 2.24365,0.130942 3.34616,-1.642391 7.03243,-2.932631 10.80859,-2.746094 1.11423,0.08885 2.7187,0.436572 3.15191,1.731103 0.26768,0.555217 0.70159,1.564567 1.46171,1.183455 0.76356,-0.549672 0.19108,-1.900002 1.23404,-2.232917 1.70641,-0.639457 3.6015,-0.240623 5.27045,0.155525 2.57352,0.666529 5.10018,1.966129 7.10234,3.797294 0.3969,0.57168 1.13378,0.214249 1.29127,-0.361022 0.63161,-1.533288 0.67384,-3.216741 0.4961,-4.84375 -4.37384,-1.430346 -8.67461,-3.164763 -13.19727,-4.076172 -0.78844,-0.08625 -1.58897,-0.287597 -2.37305,-0.30664 z" /><path
         id="path65"
         style="fill:#854924"
         d="m -376.36914,40.029297 c -0.8468,4.515646 -1.83088,9.071982 -3.44081,13.352352 -1.59782,4.467908 -3.75247,8.665901 -5.85802,12.919132 0.90867,0.09508 1.93686,-0.203611 2.76367,0.242188 0.23166,0.929041 -0.45478,1.82211 -0.80468,2.646484 -1.75119,3.109563 -3.81396,6.03322 -5.55982,9.146937 -4.29448,7.447652 -8.3488,15.050716 -11.77517,22.93977 -0.66247,1.54961 -1.23903,3.13336 -1.83298,4.71017 0.56115,-0.0377 1.34422,-0.30345 1.19525,0.55747 0.30724,4.65421 1.02658,9.3551 2.94893,13.64202 2.26946,5.31405 6.47964,9.80892 11.76979,12.18879 2.99785,1.37189 6.24796,2.22651 9.53525,2.47695 2.42463,-0.0133 4.91364,-0.23048 7.19038,-1.1129 1.16292,-0.46232 1.01492,-2.01228 0.51907,-2.92181 -0.33371,-0.55464 -0.66264,-1.22486 -1.12843,-1.63003 -4.62559,-0.68182 -9.38158,-1.85735 -13.14726,-4.76538 -1.64491,-1.18889 -2.69661,-3.04724 -3.01034,-5.03823 -0.48111,-2.84714 -0.25013,-5.97088 1.25822,-8.49063 0.52502,-0.90979 1.48989,-1.48609 2.54534,-1.47593 0.75465,0.12715 0.85506,-0.6354 1.12944,-1.16225 1.05098,-2.35308 2.16558,-4.71414 3.87597,-6.67246 2.4628,-3.068659 5.27086,-5.830502 7.73831,-8.890534 1.4655,-1.777212 1.34265,-4.19201 1.74305,-6.333472 0.44723,-2.524356 0.7903,-5.195537 2.39889,-7.300106 1.71135,-2.1194 4.56145,-2.651125 7.08403,-3.180666 5.08881,-0.942786 10.1694,-1.928585 15.24473,-2.941615 -2.05381,-4.125789 -4.06022,-8.370857 -7.22459,-11.787368 -2.89393,-3.18846 -6.04989,-6.132816 -9.23234,-9.03069 -3.97877,-3.414505 -8.34794,-6.35147 -12.24776,-9.863673 -1.16614,-1.032369 -2.3298,-2.087934 -3.49648,-3.136628 -0.0605,0.304036 -0.12109,0.608072 -0.18164,0.912109 z" /><path
         id="path64"
         style="fill:#854924"
         d="m -234.85938,62.039062 c -1.71277,0.06054 -3.01126,1.370777 -4.31482,2.32832 -2.99476,2.409079 -5.21231,5.641511 -6.80993,9.111042 -0.11399,0.446556 -1.01422,1.332656 -0.0802,1.192935 2.65335,0.24259 5.33433,0.29315 7.77672,1.528693 2.16469,1.044568 3.33685,3.328283 3.88359,5.568253 1.87052,6.78484 3.10097,13.721191 4.16377,20.655525 0.55663,3.74142 0.96244,7.49671 1.04101,11.25781 1.04578,-0.56566 2.33774,-1.46639 3.5253,-0.70066 1.51549,1.05425 1.87293,3.0697 2.03697,4.78867 0.15817,2.3379 0.0155,5.04967 -1.77907,6.77918 -1.79827,1.61166 -4.43951,1.33868 -6.60922,0.79994 -5.35593,-1.2323 -10.97336,-0.64371 -16.21657,0.82776 -0.71249,0.14638 -1.40181,0.89174 -0.9496,1.61839 0.28522,0.58812 0.96726,1.07082 1.16407,1.60938 -1.97537,0.26049 -4.00777,0.006 -5.95714,0.52188 -1.55659,0.38697 -3.40073,0.99652 -4.09041,2.58978 -0.51787,1.34517 0.61354,2.6197 1.73684,3.20648 3.51607,2.00581 7.30664,3.49107 11.11785,4.83394 2.50074,0.89655 5.13206,1.32658 7.73262,1.81797 5.70771,0.74341 11.54035,-0.93223 16.41183,-3.8815 4.22363,-2.58224 8.02259,-6.42606 9.27302,-11.34441 0.77955,-3.18379 1.36701,-6.44822 1.39089,-9.73338 0.0198,-0.6028 -0.1329,-1.28766 -0.70601,-1.5582 -1.19348,-2.34039 -1.98008,-4.8654 -3.10195,-7.2416 -2.65128,-6.02601 -5.86027,-11.864088 -10.14329,-16.895992 -3.12257,-3.95887 -6.06308,-8.079816 -7.80426,-12.864592 -1.53414,-4.225698 -1.90846,-8.760411 -2.06507,-13.21991 -0.0614,-0.610937 0.0483,-1.177048 0.4414,-1.650391 0.44298,-0.830566 0.20738,-1.880912 -1.06836,-1.945313 z" /><path
         id="path1522"
         style="fill:#444549"
         d="m -333.03906,74.896484 c -3.20221,0.574238 -6.42802,1.076787 -9.61503,1.698625 -0.42656,0.269707 -1.70115,0.599892 -0.58828,0.759815 1.25392,0.473732 2.63624,0.214181 3.95071,0.342134 17.35031,0.484478 34.70691,0.712681 52.05619,1.241474 5.8017,0.13238 11.60623,0.362552 17.40941,0.270752 0.43633,0.111121 1.2396,-0.610762 0.72748,-0.8628 -1.00478,-0.698369 -2.31809,-0.637603 -3.48031,-0.860783 -8.646,-0.974224 -17.34407,-1.384951 -26.03079,-1.812148 -10.96328,-0.525866 -21.93933,-0.638191 -32.91268,-0.766597 -0.50515,9.16e-4 -1.0127,-0.02701 -1.5167,-0.01047 z m 95.83594,17.167969 c -2.65142,0.590164 -5.18672,1.619174 -7.7615,2.475058 -3.04159,1.131378 -6.14664,2.132566 -9.07249,3.544473 -2.47402,1.671712 -3.7058,4.546886 -4.81339,7.208806 -1.1881,3.0206 -2.04162,6.16217 -2.87802,9.29119 -0.0788,5.27151 -0.15878,10.54299 -0.24023,15.81446 1.49178,-1.43155 2.948,-3.01907 4.956,-3.71759 0.97239,-0.29822 1.9599,-0.71936 2.52973,-1.61437 0.84732,-1.12939 1.53701,-2.36475 2.49083,-3.33015 3.12387,-3.40128 7.79785,-4.7648 12.26122,-5.19988 2.13115,-0.22686 4.34097,-0.25707 6.54542,-0.38215 -0.0965,-6.3264 -0.84178,-12.62909 -1.93274,-18.855316 -0.39654,-1.754842 -0.50984,-3.694827 -1.64343,-5.172031 -0.14676,-0.01252 -0.29343,-0.0899 -0.4414,-0.0625 z m -130.48438,6.974609 c -1.15243,0.09446 -1.59028,1.386668 -2.10619,2.237368 -0.70021,1.4267 -1.47068,2.85503 -2.04811,4.31927 0.0859,1.89183 -0.22049,3.83915 0.2793,5.68946 0.57536,1.80703 2.60213,2.41205 4.27705,2.69872 4.36956,0.68482 8.81165,0.64301 13.22268,0.77306 11.49056,0.15191 22.97864,0.4407 34.46356,0.82895 9.21327,0.3211 18.43609,0.34697 27.64497,0.78615 1.94438,0.16123 3.89386,0.19615 5.83664,-0.003 2.81723,-0.22082 5.65109,-0.33577 8.45178,-0.70572 0.28877,-0.15718 1.82568,-0.17497 1.1978,-0.43451 -0.77208,-0.39568 -1.56288,-0.76011 -2.45223,-0.71658 -1.88366,-0.17668 -3.72782,-0.0767 -5.53873,-0.43769 -0.58968,-0.18591 -0.11514,-0.97494 -0.17431,-1.39984 0.43787,-3.22844 0.93304,-6.45229 1.58446,-9.64508 2.87058,-0.30134 5.88974,-0.23705 8.82788,-0.20109 1.15871,0.0606 2.35536,0.008 3.48657,0.2382 0.13679,1.0764 -0.31496,2.15313 -0.51126,3.207 -0.56822,2.32951 -1.15956,4.65317 -1.74459,6.97854 -0.48278,0.54949 -1.45916,1.01762 -1.26954,1.88282 0.51553,0.763 1.53661,0.19139 2.20119,-0.05 1.96916,-0.82934 3.67111,-2.14191 5.40233,-3.36796 1.09403,-3.27834 2.18792,-6.55672 3.28516,-9.83399 -6.11173,-0.47151 -12.24786,-0.46321 -18.37255,-0.6482 -15.42135,-0.33943 -30.8378,-0.87718 -46.26118,-1.12921 -12.3895,-0.261745 -24.78199,-0.430062 -37.16756,-0.84433 -0.84214,-0.04431 -1.69084,-0.05704 -2.51512,-0.222008 z m 5.78125,1.917968 c 0.65973,0.0439 0.92767,0.57725 0.75234,1.17769 -0.33039,2.93634 -1.01908,5.78298 -2.04369,8.55885 -0.20085,0.61831 -0.61046,1.42681 -1.40592,1.14237 -1.34202,-0.32409 -2.64985,-1.60713 -2.31065,-3.08626 0.12997,-2.04218 0.79883,-4.15846 1.87983,-5.74731 0.7087,-1.00768 1.76642,-2.20881 3.12809,-2.04534 z m 93.41406,29.85742 c -0.83576,0.5072 -1.05995,1.5977 -1.56766,2.38394 -0.33969,0.71018 -0.8935,1.36805 -0.71204,2.20473 0.0289,5.73573 -0.007,11.47688 0.0596,17.20923 0.54986,3.09754 0.93362,6.21766 1.55217,9.30367 0.0976,0.62802 0.98463,1.13613 1.3711,0.46093 0.48436,-1.34311 0.29573,-2.83093 0.41391,-4.2367 0.11672,-7.76659 0.16312,-15.5354 0.10279,-23.30262 -0.0698,-1.21825 0.0403,-2.49471 -0.36631,-3.6599 -0.14316,-0.31534 -0.52953,-0.51907 -0.85352,-0.36328 z" /><path
         id="path1521"
         style="fill:#683819"
         d="m -375.56641,-34.037109 c -2.45029,0.102673 -4.61387,1.860851 -5.43225,4.13742 -0.95981,2.483278 -0.81366,5.226237 -0.55657,7.82667 0.53236,4.533129 3.11059,8.454485 5.79319,12.014651 0.35828,0.3906575 0.68953,1.3846821 1.10291,0.5034671 0.81115,-0.8357651 1.47196,-1.8917341 2.51069,-2.4607241 1.07675,-0.09881 1.06152,-1.399065 1.30388,-2.187233 0.69683,-2.331385 2.35,-4.201352 3.37935,-6.379917 1.08462,-2.077646 2.07174,-4.232837 3.52905,-6.082864 0.65221,-0.911186 0.0931,-2.097762 -0.7206,-2.691103 -1.91823,-1.54918 -4.18053,-2.597682 -6.35474,-3.732257 -1.41938,-0.650514 -2.98509,-1.052579 -4.55491,-0.94811 z m 155.14063,2.673828 c -3.39804,0.358102 -6.18522,2.603409 -8.69643,4.741533 -0.21562,0.399446 0.26349,1.001753 0.32924,1.47917 1.68241,4.303382 3.79676,8.442345 5.11862,12.884796 0.51023,1.561778 0.87005,3.1749976 1.00863,4.8590422 0.0649,0.3484382 0.34995,1.3164474 0.69859,0.8651041 0.41494,-0.2156512 0.43636,-0.6397711 0.59604,-1.0073799 0.68663,-0.164665 1.37414,-0.520392 1.61731,-1.2401403 1.00554,-2.6250231 2.1256,-5.2075761 3.18209,-7.8127071 1.22555,-3.311664 2.20219,-6.928086 1.51409,-10.468429 -0.36414,-1.985956 -1.79705,-3.915132 -3.89062,-4.232025 -0.48592,-0.09085 -0.98513,-0.103979 -1.47756,-0.06896 z M -375.625,23.482422 c -0.86628,0.145059 -0.74383,1.283967 -0.80009,1.95496 0.0198,4.192887 0.49574,8.378624 0.40599,12.572338 -0.0386,0.643516 -0.27272,1.252177 -0.42035,1.875046 4.00815,3.666912 8.2769,7.026454 12.57001,10.349515 4.38803,3.491629 8.39876,7.558662 12.29714,11.628812 2.88438,2.959693 4.56744,6.782308 6.49653,10.374866 0.36275,0.69172 0.72628,1.383034 1.08944,2.074541 0.35792,-3.288871 0.82676,-6.605996 0.40184,-9.913549 -0.63766,-5.917592 -2.89816,-11.758436 -6.92104,-16.205302 -1.70721,-1.954829 -3.32643,-4.02566 -5.33208,-5.686791 -2.68712,-2.026076 -4.67426,-4.938783 -7.72696,-6.490651 -2.7391,-1.924527 -5.03105,-4.407224 -7.2982,-6.851089 -1.5211,-1.683561 -2.98012,-3.442134 -4.13918,-5.395587 -0.15396,-0.164819 -0.38665,-0.346606 -0.62305,-0.287109 z m 146.28125,22.291016 c -1.43159,0.709427 -2.6902,1.747643 -3.98756,2.678021 -5.51009,4.208606 -10.4414,9.554025 -12.9182,16.125344 -1.09681,2.834765 -1.4823,5.891654 -1.37175,8.918114 0.11338,0.478804 -0.34597,1.527063 0.49626,1.278521 0.9518,0.217996 1.60547,-0.606369 1.95696,-1.371084 1.90651,-3.965645 4.82728,-7.477482 8.44779,-9.991082 0.73817,-0.496576 1.53944,-0.885522 2.32767,-1.294084 -0.0673,-2.674288 0.0366,-5.4261 1.1237,-7.915748 1.01529,-2.203408 2.28708,-4.367772 3.66134,-6.43921 0.30752,-0.597357 1.0357,-0.993084 1.00598,-1.729027 -0.24919,-0.106093 -0.45188,-0.460645 -0.74219,-0.259765 z m -172.46484,59.548832 c -0.79599,0.1724 -0.91307,1.30432 -1.71485,1.43164 -0.57258,0.55853 -0.38971,1.51304 -0.67533,2.16578 -0.26303,1.26793 -0.80279,2.48904 -0.97023,3.76466 0.0527,5.53648 0.0669,11.12221 1.24502,16.55936 1.15948,5.49366 3.37132,11.06134 7.67643,14.84979 3.26367,2.90528 7.68423,4.30964 12.02216,4.16498 2.37122,-0.0665 4.82985,-0.2122 7.03468,-1.16035 0.71969,-0.24161 1.26037,-1.22746 0.55204,-1.79344 -1.03647,-0.76711 -2.41733,-0.83802 -3.50387,-1.53801 -0.64101,-0.39239 -1.4708,-0.77574 -1.73441,-1.51668 1.85973,-0.006 3.84831,0.31997 5.75284,0.0435 1.83314,-0.24864 3.92914,-0.71061 5.06747,-2.30717 0.59083,-0.87461 0.49366,-2.316 -0.59386,-2.75252 -2.11577,-1.21096 -4.29899,-2.35446 -6.60927,-3.14592 -2.84027,-0.16837 -5.52046,-1.34762 -8.02893,-2.51238 -2.99401,-1.50222 -5.99025,-3.17111 -8.37927,-5.55403 -2.45225,-2.83498 -3.79652,-6.44007 -4.80563,-10.00144 -0.86569,-3.0519 -1.21996,-6.21483 -1.39359,-9.37356 -0.0505,-0.54832 -0.18546,-1.47244 -0.9414,-1.32421 z m 190.53125,14.25781 c -0.153,3.06077 -0.49817,6.17148 -1.76909,8.99622 -2.10351,5.02318 -6.48146,9.0207 -11.53062,11.09408 -5.04852,2.13266 -10.9014,2.5477 -16.2714,1.48145 -3.36237,-0.62408 -6.47139,-1.89368 -9.54022,-3.36667 -2.07579,0.29843 -4.20152,0.35214 -6.23438,0.88867 -1.42334,0.53431 -2.49835,2.29993 -1.73047,3.75781 1.05375,1.96869 3.29725,2.87119 5.3116,3.52318 1.48833,0.51721 3.09231,0.54023 4.58489,1.01784 -1.02571,0.82583 -2.49152,0.9742 -3.4043,1.93945 -0.53709,0.8586 0.48381,1.57297 1.0573,2.06591 2.3233,1.75122 5.24107,2.46581 8.05794,2.96925 8.35412,1.29027 17.41346,-0.60604 23.97802,-6.09859 2.42729,-2.00388 4.41244,-4.53625 5.66664,-7.42993 2.17826,-4.86084 3.40971,-10.17174 3.48229,-15.50273 -0.002,-1.90522 -0.22523,-3.83367 -0.73166,-5.66262 -0.25223,-0.56427 -0.52426,-1.51685 -0.69029,-0.39122 -0.0788,0.2393 -0.1575,0.4786 -0.23625,0.7179 z" /><path
         id="path1520"
         style="fill:#323439"
         d="m -241.36719,80.400391 c -5.1135,1.623064 -10.21693,3.300489 -15.30745,5.004516 -0.56806,0.0495 -0.80714,0.426872 -0.71013,0.96814 0.14466,2.438141 0.30799,4.887075 0.69141,7.298828 0.033,0.774755 0.73632,0.353574 1.21333,0.252373 5.04758,-1.659848 10.06664,-3.411813 15.01459,-5.348703 0.74973,-0.345122 1.47482,-0.742388 2.21544,-1.106795 -0.11263,-1.592616 -0.52066,-3.144595 -1.22255,-4.579379 -0.4645,-0.85755 -0.7819,-1.968328 -1.67784,-2.46359 -0.0689,-0.04491 -0.14122,-0.03671 -0.2168,-0.02539 z m -131.11719,28.388669 c 0.15933,2.02132 -0.1904,4.27135 0.95774,6.0663 1.21025,1.67578 3.43169,1.99811 5.3186,2.37398 6.26401,0.95262 12.57962,1.61042 18.91433,1.83099 16.04773,0.57583 32.11032,0.64791 48.15417,1.3518 4.62492,0.2207 9.24333,0.33152 13.84101,0.77937 0.9394,0.021 0.85853,1.21551 0.98791,1.88206 0.35152,3.63871 0.11513,7.31227 0.50593,10.94597 0.13167,1.33707 0.95091,2.66141 2.31819,2.99832 2.38294,0.64194 4.88803,0.50798 7.33006,0.70837 0.7696,0.0405 1.53919,0.081 2.30878,0.12144 -0.082,0.52141 0.19634,1.52909 -0.60695,1.53843 -2.29514,0.12941 -4.59353,-0.18755 -6.88977,-0.23573 -1.50711,-0.0754 -3.01618,-0.0781 -4.52476,-0.0879 -0.079,2.57911 0.22318,5.20805 -0.35352,7.74609 -0.18297,1.00743 -1.04282,1.84672 -2.10406,1.77333 -0.65722,0.13349 -1.34795,-0.25177 -1.38617,-0.96864 -0.30288,-2.07655 -0.13574,-4.19294 -0.25276,-6.28542 -0.11912,-3.10034 -0.0926,-6.22301 -0.50176,-9.3004 -0.18716,-0.82156 -1.18698,-0.42764 -1.61071,-0.0255 -1.68822,1.62267 -2.58143,3.86586 -3.52748,5.9616 -2.04169,4.9651 -3.58593,10.20015 -3.93903,15.57853 -0.21208,2.77318 -0.67053,5.53417 -0.71904,8.31534 -0.0864,0.70214 0.76107,0.55319 1.23161,0.61 9.50372,0.24114 19.01246,0.11408 28.51839,0.14781 -0.3219,-3.40981 -1.00603,-6.77201 -1.46294,-10.15898 -0.002,-5.81419 -0.002,-11.62839 -0.002,-17.44258 0.70109,-1.34103 1.19487,-2.72156 2.1211,-3.92773 0.72586,-0.4137 0.50853,-1.44862 0.61226,-2.16356 0.10757,-5.39109 0.0402,-10.77849 0.60904,-16.13166 0.0665,-0.7603 0.13263,-1.52062 0.19862,-2.28095 -2.27306,1.66336 -4.45131,3.78693 -7.35524,4.21846 -1.92992,0.32632 -4.17923,0.39044 -6.24389,0.55553 -5.20452,0.3783 -10.46522,0.50379 -15.69594,0.20764 -10.8047,-0.39968 -21.61721,-0.53132 -32.42339,-0.88794 -9.30556,-0.30225 -18.61538,-0.44462 -27.92211,-0.69309 -4.4617,-0.18653 -8.93772,-0.30129 -13.35568,-1.06795 -0.47232,-0.1737 -1.34515,-0.0758 -1.34608,-0.77307 -0.34026,-1.16636 -0.38345,-2.41962 -0.75232,-3.56369 -0.30039,-0.54191 -0.63521,-1.41504 -0.76416,-0.30739 -0.0627,0.19693 -0.12538,0.39386 -0.18807,0.59079 z" /><path
         id="path1519"
         style="fill:#321510"
         d="m -300.54492,-68.751953 c -17.44658,0.2419 -34.9673,4.896882 -49.77314,14.241998 -4.20793,2.608062 -8.08717,5.698077 -11.84014,8.916205 -6.0669,-0.955709 -12.51833,-1.076863 -18.29298,1.290765 -4.20655,1.68046 -7.77158,5.068593 -9.31008,9.36968 -1.96914,5.335879 -1.194,11.261295 0.58743,16.534621 1.59956,4.803407 4.12151,9.2318596 6.89649,13.4436059 0.56964,0.841178 1.08964,1.9708299 0.69147,3.0381479 -1.06183,3.533028 -2.43111,7.0088943 -2.85681,10.7002029 -0.71949,4.8554413 0.4759,9.7332903 2.06762,14.2964633 0.85343,2.435887 1.58278,5.012257 1.19954,7.617181 -0.61722,4.714414 -1.57883,9.502327 -2.80973,14.141611 -1.89122,7.13807 -4.92271,13.97119 -9.0167,20.120456 -6.61782,10.053421 -12.65134,20.709358 -15.8123,32.403961 -1.7028,6.338045 -2.72957,12.867855 -3.00411,19.426115 -0.32253,9.21945 1.62983,18.6424 6.41336,26.59699 4.74538,8.02291 12.12164,14.24547 20.36364,18.46396 3.1903,1.67462 6.55386,2.97355 9.91831,4.24765 1.34799,1.74231 2.6788,3.763 4.90152,4.44735 2.99579,0.9758 6.17336,1.15017 9.27622,1.58585 14.79701,1.71548 29.68782,2.44389 44.56754,2.99709 17.45788,0.49003 34.93388,-0.26646 52.3268,-1.77064 9.56859,-0.90022 19.23794,-2.43917 28.06012,-6.42928 5.65373,-2.53316 10.96912,-5.78115 15.99622,-9.38701 6.28047,-4.62247 11.6791,-10.71693 14.51688,-18.05557 3.10974,-7.82728 3.24121,-16.51956 1.88969,-24.7392 -1.45916,-8.92355 -5.68829,-17.065128 -10.18158,-24.801712 -3.7956,-6.515741 -8.06682,-12.744217 -10.73079,-19.847883 -0.7593,-2.031885 -1.2677,-4.167957 -1.51594,-6.314369 0.48364,-2.86857 0.88707,-5.675261 1.96559,-8.401427 1.32551,-3.525911 3.58201,-6.784108 5.91889,-9.765858 3.08054,-4.101144 6.42778,-8.082626 8.57402,-12.784457 2.93056,-5.996433 4.39325,-12.825384 3.42466,-19.479195 -0.80186,-5.9994327 -3.38059,-11.5948639 -6.53481,-16.7033259 -0.62771,-0.8682485 -0.44958,-1.9849663 0.0453,-2.8664833 1.4393,-2.8407523 3.1368,-5.5585868 4.27522,-8.5454148 2.15405,-5.392494 3.33301,-11.473894 1.76636,-17.18162 -1.11313,-4.186507 -4.09036,-7.858455 -8.06179,-9.63945 -4.56791,-2.137805 -9.81892,-2.023523 -14.67311,-1.090114 -0.90113,0.254819 -1.82792,-0.05627 -2.46907,-0.714334 -4.64726,-4.169664 -9.63893,-7.969946 -15.01002,-11.163792 -16.11258,-9.663232 -34.99867,-14.448774 -53.74981,-14.198768 z m 0.0644,8.037109 c 8.31041,0.04609 16.58226,0.941016 24.72891,2.572481 4.81352,0.968305 9.48459,2.338578 13.95028,4.363633 7.13073,3.194355 13.9885,7.101172 20.0916,12.000576 2.81479,2.562344 5.45766,5.308394 8.19601,7.951982 1.69547,-1.161411 3.52461,-2.186554 5.56772,-2.569387 3.69213,-0.768738 7.81076,-0.5036 11.19595,1.35259 2.74901,1.531436 4.66948,4.419298 4.95257,7.560354 0.47866,4.710252 -1.50042,9.323141 -3.81195,13.258006 -1.26458,2.079652 -2.67851,4.150492 -4.4707,5.7890621 -0.88153,-0.036516 -1.89001,0.5053207 -1.90426,1.4899401 -0.0738,1.9639514 0.95929,3.7773328 1.98441,5.3831747 0.7569,1.23574986 1.90299,2.13482258 2.8481,3.2067287 1.52056,2.0001085 2.73325,4.1819042 3.4645,6.5759227 0.46355,2.1100597 1.50088,4.0504947 1.53965,6.2530477 0.0301,0.757074 0.0548,1.54845 -0.20388,2.270874 -1.48178,-1.846686 -3.64376,-2.968247 -5.65652,-4.139008 -4.03022,-2.259267 -8.5173,-3.7492397 -13.1425,-4.0564662 -4.80553,-0.3829334 -9.68096,0.4825741 -14.08965,2.4239892 0.0985,1.584701 -0.10081,3.215552 -0.92338,4.604039 -1.95526,3.515648 -5.38982,6.010145 -8.8141,7.867264 -4.13338,2.188014 -8.80301,3.478648 -13.50236,3.265827 -1.35673,-0.08012 -2.76933,0.218438 -4.05813,-0.322008 -3.82502,-1.108644 -7.78375,-2.552165 -10.78016,-5.311606 -0.81295,-0.77469 -1.53099,-1.847627 -1.25086,-3.024161 0.12406,-0.556803 0.98336,-0.653221 1.40068,-1.026393 5.69057,-3.348028 11.59505,-6.559345 16.29745,-11.2736649 1.58365,-1.6472827 2.64159,-4.118137 1.7869,-6.37088436 -1.04126,-2.77244524 -3.72338,-4.46563294 -6.28841,-5.66757934 -5.45961,-2.4162454 -11.52395,-3.1406849 -17.44949,-3.0244475 -5.05785,0.15613 -10.14175,0.9283993 -14.90741,2.666756 -2.37478,0.9385209 -4.93885,2.3146606 -5.93205,4.8181032 -0.91027,2.34010962 0.24217,4.8674161 1.70914,6.6985044 3.61411,4.4776934 8.82434,7.1693225 13.60943,10.1806835 1.37756,0.857669 2.75822,1.710401 4.12228,2.589489 0.20195,1.58209 -0.69227,3.043847 -1.90114,3.986799 -2.67876,2.10993 -6.15137,3.075081 -9.33969,3.692565 -3.82256,0.707348 -7.75077,0.830811 -11.58144,0.388996 -1.38909,-0.175402 -2.96237,-0.454784 -4.30946,-0.845215 -5.75302,-1.670875 -11.08493,-5.206718 -14.36608,-10.282798 -1.15892,-1.723907 -2.0211,-3.620321 -2.97876,-5.457925 -2.77779,-0.9981147 -5.62209,-1.8864549 -8.58183,-2.1117002 -6.41123,-0.5763151 -12.94538,0.2939344 -19.01769,2.4143146 -3.58121,1.3300636 -7.27148,3.1376716 -9.47203,6.3951616 -0.42168,0.581345 -0.81626,1.182024 -1.22727,1.770974 3.42904,-1.55453 6.72387,-3.425193 10.30986,-4.616218 7.11875,-2.555699 14.89881,-3.2552411 22.29756,-1.788079 1.29977,0.24886 2.68493,0.602238 4.01172,0.916016 0.0221,1.228663 0.15739,2.452023 0.35547,3.664062 -4.52118,-0.06726 -8.89578,1.449463 -12.9766,3.26109 -3.21917,1.525496 -6.45561,3.283681 -8.87249,5.956723 -0.45828,0.63049 -1.15307,1.280021 -1.08646,2.116172 0.41423,0.423971 0.92811,0.191751 1.34939,-0.100329 2.67601,-1.669318 5.33246,-3.31305 8.18014,-4.52263 4.3173,-1.93255 9.02534,-2.88264 13.74363,-3.013449 0.67336,-0.146883 1.24524,-0.02858 1.62904,0.581212 2.69281,2.803113 5.55843,5.51857 9.00986,7.37124 3.39454,1.903608 7.13071,3.049819 10.80474,4.273799 2.49721,3.83074 4.97129,7.775897 8.47641,10.784251 3.07317,2.750291 6.88882,4.577041 10.89311,5.508842 0.94664,0.306541 1.90772,0.504334 2.90702,0.416806 4.42676,0.07404 8.98649,0.09949 13.1891,-1.491195 4.54726,-1.614474 8.14254,-5.139492 10.71111,-9.136937 0.96332,-1.303074 1.52033,-2.907612 2.70215,-4.038798 1.55716,-1.077746 3.47046,-1.447269 5.20473,-2.148533 4.42846,-1.568986 8.70271,-3.800588 12.05308,-7.148342 1.12083,-1.086985 2.15493,-2.257556 3.17383,-3.439453 3.30111,0.119217 6.6133,0.485345 9.76977,1.503358 4.77031,1.448204 9.21192,3.904165 13.03599,7.095232 0.37725,0.172837 1.34396,1.064942 1.3229,0.751744 -0.72261,-2.013213 -1.82341,-3.92225 -3.48886,-5.301294 -3.53662,-3.07821 -7.87768,-5.11405 -12.32925,-6.494352 -2.12261,-0.647791 -4.31499,-1.04265 -6.52539,-1.222657 0.098,-1.107036 0.26333,-2.294296 -0.11328,-3.351562 1.03466,-0.898006 2.51419,-1.001424 3.80987,-1.270426 4.40566,-0.600546 8.88984,-0.597915 13.26196,0.159696 3.7794,0.772072 7.5212,2.266217 10.96567,4.111846 1.09899,0.663184 2.34174,1.254493 3.11679,2.311384 0.61586,2.440558 -0.23606,4.961701 -1.11914,7.230469 -1.54438,3.71444 -3.8964,7.227592 -6.53034,10.307759 -3.43125,3.99771 -7.68493,7.247625 -10.81851,11.506606 -1.31038,1.885063 -2.37187,3.942696 -3.29108,6.04168 -1.2165,3.571838 -0.78022,7.454838 -0.0655,11.083932 1.36813,6.512926 4.22494,12.64707 7.93943,18.145661 4.36758,6.866452 8.76653,13.789118 11.85786,21.345604 1.33772,3.17912 2.1504,6.5409 2.76229,9.92605 0.71078,2.64775 0.83827,5.29429 1.09324,8.04182 0.23392,2.2792 0.24237,4.48428 -0.21274,6.73915 -0.61404,3.12749 -1.41687,6.17867 -2.38048,9.22813 -1.19432,3.42726 -3.67645,6.35937 -6.43269,8.75308 -3.022,2.52512 -6.72353,4.1095 -10.46532,5.24045 -3.74904,1.09081 -7.64276,1.09525 -11.5167,0.70648 -3.03722,-0.39421 -6.17648,-0.94866 -8.82942,-2.56203 -0.61159,-0.38036 -1.5516,-1.21198 -0.88152,-1.95359 1.04753,-0.98741 2.48417,-1.41987 3.70712,-2.14878 0.9773,-0.36701 0.63016,-0.48246 -0.2272,-0.501 -3.3253,-0.24935 -6.90657,-0.98291 -9.48773,-3.29944 -0.76242,-0.71527 -1.6713,-1.95302 -0.92969,-2.97266 1.29825,-1.34359 3.30268,-1.14301 4.98603,-1.45659 0.56293,-0.14218 1.32441,-0.13337 1.67797,-0.63087 0.32054,-0.51815 -0.20532,-0.84189 -0.69545,-0.83674 -1.64082,-0.34071 -3.07407,-1.32328 -4.46595,-2.21649 -0.83544,-0.46309 -1.57912,-1.42918 -1.1279,-2.41243 0.79639,-1.50328 2.64687,-1.95154 4.18479,-2.27717 2.25612,-0.40315 4.55851,-0.20241 6.83699,-0.25174 -1.01184,-1.16189 -2.63773,-2.11012 -2.7562,-3.79913 0.0145,-1.77342 1.69234,-2.92202 3.09511,-3.68666 3.22621,-1.64189 6.90179,-2.16816 10.44545,-2.24369 1.82671,-0.10303 3.63549,0.29308 5.45197,0.0596 1.1939,-0.16238 1.5128,-1.48325 1.59961,-2.49023 0.45877,-4.32599 -0.1048,-8.68008 -0.62948,-12.97347 -0.97384,-7.093122 -2.3316,-14.133697 -3.99357,-21.096846 -0.7451,-2.681596 -1.48486,-5.636005 -3.69335,-7.517578 -2.28744,-1.812837 -5.35673,-1.890934 -8.13582,-2.138422 -4.69556,-0.330219 -9.28339,-1.4762 -13.9141,-2.258435 -25.26217,-4.439612 -51.20676,-4.173592 -76.5682,-0.67907 -8.39461,1.139326 -16.71106,2.754787 -25.0239,4.369405 -2.51624,0.534777 -5.20897,1.547763 -6.58493,3.874722 -1.65641,2.793596 -1.9309,6.122492 -2.3949,9.268073 -0.10762,1.370876 -0.39848,2.788387 -1.36771,3.827812 -3.66017,4.379038 -7.92112,8.356489 -10.67011,13.419889 -2.08601,3.78169 -2.39174,8.23064 -2.1187,12.4582 0.16959,2.6832 1.12272,5.52536 3.40109,7.14013 2.8317,2.14251 6.76187,2.08175 9.4898,4.39893 0.71486,0.68014 1.25892,1.80934 0.92263,2.78361 -0.90947,0.88139 -2.30283,0.90769 -3.476,1.20152 -1.45718,0.26813 -2.91745,0.51968 -4.37556,0.78285 1.99552,0.97737 4.10126,1.75375 6.01172,2.89063 0.50939,0.52711 0.35903,1.43582 0.14463,2.07647 -0.72026,1.4625 -2.55282,1.72587 -4.00421,1.92956 -2.50899,0.24586 -5.03324,0.0311 -7.54863,0.035 0.68147,0.85621 1.35116,1.7619 2.38672,2.21485 1.24302,0.74427 2.62462,1.1978 3.93946,1.77734 0.54036,0.25799 -0.22829,0.62528 -0.4611,0.77202 -2.50496,1.16609 -5.36105,1.36825 -8.0881,1.20681 -4.58238,-0.23971 -9.13939,-2.17148 -12.17077,-5.67665 -3.74911,-4.25758 -5.4046,-9.90408 -6.24275,-15.40773 -0.71743,-4.67667 -0.73889,-9.43055 -0.7345,-14.14546 0.65289,-2.69836 1.60216,-5.33379 1.91019,-8.10486 0.24928,-1.00967 0.70106,-1.9677 0.93244,-2.99346 1.23796,-4.714079 2.60946,-9.424039 4.6183,-13.884699 3.07184,-7.018515 7.18946,-13.505631 11.16958,-20.053705 4.83122,-8.114016 8.39341,-17.038163 9.97333,-26.370427 0.45205,-2.528391 1.00934,-5.107095 0.553,-7.679265 -0.50795,-3.333429 -0.17773,-6.732101 -0.6123,-10.069009 -0.25897,-1.46565 -1.24895,-2.704605 -1.32209,-4.221676 -0.73142,-3.67426 -0.57377,-7.482134 -0.12029,-11.2024442 0.27507,-1.5089159 0.56313,-3.0149572 0.85027,-4.5329774 0.78833,-2.64056892 2.06464,-5.0829842 3.10117,-7.6280902 1.1023,-2.5287408 2.01494,-5.2517224 1.82241,-8.0482162 0.005,-0.620358 0.12767,-1.535412 -0.49041,-0.600369 -1.07059,1.189619 -2.34347,2.235363 -3.19229,3.6031011 -0.19009,0.6013478 -0.94927,0.071229 -1.27285,-0.1302838 -2.09494,-1.5096023 -2.91548,-4.0779133 -4.13653,-6.2414863 -1.59287,-3.03655 -2.97346,-6.286 -3.12137,-9.759569 -0.10312,-1.763648 -0.18832,-3.554657 -0.15301,-5.308441 0.78272,-1.990728 1.66265,-4.0236 3.29317,-5.479021 3.72838,-3.493752 9.1268,-4.675792 14.105,-4.192549 2.70645,0.241229 5.33127,1.094645 7.74262,2.322288 1.00654,0.148607 1.69458,-0.839155 2.39907,-1.398112 3.1006,-3.065148 6.436,-5.828752 10.11898,-8.192033 3.64473,-2.301062 7.35617,-4.557591 11.37062,-6.159855 6.63209,-2.574803 13.5061,-4.36811 20.52194,-5.516597 2.37695,-0.349228 4.8199,-0.641117 7.15922,-0.981662 2.30512,-0.256934 4.57307,-0.326118 6.89892,-0.335726 z m -30.33594,28.554688 c -6.93562,0.129054 -13.24013,6.150136 -13.57005,13.1005 -0.3935,5.442537 2.77853,10.8551561 7.58799,13.3666414 4.188,2.2657354 9.60222,2.6147286 13.76049,0.089664 4.18259,-2.4492165 6.47109,-7.3220854 6.56533,-12.0660084 0.17179,-4.715021 -2.22536,-9.405104 -6.14549,-12.029588 -2.39208,-1.640981 -5.29378,-2.535436 -8.19827,-2.461209 z m 76.69532,2.533203 c -4.93354,0.285427 -9.69507,3.49558 -11.43069,8.187162 -2.35342,6.040521 -0.17084,13.6973903 5.39343,17.1939402 3.1061,1.94718 7.03683,2.3408432 10.5632,1.5078235 4.08879,-1.0729447 7.51423,-4.2615907 9.10262,-8.1497637 1.84604,-4.515775 0.60736,-9.86355 -2.47155,-13.5333 -2.67571,-3.302371 -6.85666,-5.456807 -11.15701,-5.205862 z m -71.55079,2.777344 c 2.64226,0.410399 4.50799,3.312947 3.79883,5.890625 -0.36725,1.752605 -2.09199,3.117196 -3.90431,2.870289 -2.49153,-0.07265 -4.5972,-2.455942 -4.36685,-4.933427 0.1652,-2.191111 2.21289,-4.162213 4.47233,-3.827487 z m 75.99219,2.421875 c 2.3789,-0.0402 4.4284,2.262682 4.17245,4.622058 -0.0368,1.661068 -1.04076,3.483068 -2.80923,3.754622 -2.1788,0.55542 -4.4469,-1.138834 -4.80895,-3.29848 -0.46456,-1.935074 0.4358,-4.323936 2.46721,-4.915817 0.31652,-0.09926 0.64697,-0.153412 0.97852,-0.162383 z m -38.7207,17.7675778 c 5.34302,-0.05162 10.7248,0.9485656 15.6344,3.0734439 1.06492,0.5392815 2.28882,1.0369832 2.9574,2.0769467 0.0347,0.63070836 -0.89107,0.60137942 -1.34046,0.63623386 -4.29794,0.22620662 -8.57267,0.16855333 -12.83284,-0.23182626 -4.73946,-0.4293663 -9.50844,-0.7059958 -14.19586,-1.5606069 -1.03056,-0.2405846 -1.98423,-0.4130017 -2.92784,-1.0764216 -0.49084,-0.3643982 0.35139,-0.7332467 0.62172,-0.9048192 2.61947,-1.217992 5.55036,-1.5399583 8.39416,-1.8376742 1.24185,-0.1090112 2.43658,-0.1578782 3.68932,-0.1752763 z m 2.92969,35.2089842 c 3.99884,0.71479 7.80692,2.305779 11.60742,3.587891 0.539,0.131282 0.96844,0.544386 0.8402,1.135155 0.15146,3.137368 -2.01614,5.848369 -4.45713,7.569437 -2.43344,1.798637 -5.55592,2.568994 -8.45924,2.77783 -3.83764,0.286791 -7.68596,-0.217685 -11.29764,-1.633729 -3.3625,-1.343897 -6.72661,-3.573328 -8.11613,-7.06156 -0.36712,-0.968064 -0.53692,-2.020091 -0.45342,-3.052758 1.59536,-0.465581 3.29915,-0.467041 4.91992,-0.853516 4.30373,-0.85482 8.57632,-1.867534 12.83594,-2.912109 0.86002,0.147786 1.72005,0.295573 2.58008,0.443359 z m -13.12891,44.320313 c 14.10902,0.04156 28.21357,1.082811 42.01481,4.11536 0.88693,0.21205 2.0431,0.377016 2.77035,0.673702 -2.9364,0.563242 -5.93179,0.689177 -8.91287,0.869263 -11.23991,0.43006 -22.48483,-0.144664 -33.72126,-0.429111 -13.48646,-0.417237 -26.97816,-0.610955 -40.46759,-0.898388 -1.71734,-0.04428 -3.47596,-0.09711 -5.16,-0.188248 6.19404,-1.039093 12.40497,-2.209254 18.63867,-2.839844 8.25492,-0.891869 16.53577,-1.296749 24.83789,-1.302734 z m 54.56055,6.416015 c 1.11553,-0.119016 2.19043,0.474422 2.7227,1.453269 0.94517,1.602357 2.02414,3.256566 2.22847,5.146341 0.0811,1.483195 -1.46567,2.231767 -2.63399,2.690805 -1.05911,0.428881 -2.23215,0.680881 -3.18242,1.305288 -0.91966,0.104671 -1.79786,0.459357 -2.69261,0.702679 -2.81945,0.930097 -5.60978,1.948021 -8.42457,2.893024 -0.53182,-2.154384 -0.45943,-4.405232 -0.84428,-6.587605 -0.12257,-1.428762 -0.56947,-2.821836 -0.63815,-4.248332 0.4238,-0.679868 1.40102,-0.693494 2.09766,-0.958984 3.42119,-0.787007 6.81985,-1.745229 10.29492,-2.306641 0.35736,-0.03291 0.71297,-0.08476 1.07227,-0.08984 z m -104.25586,2.621094 c 22.54433,0.510072 45.08978,0.966904 67.63678,1.342062 5.82204,0.131042 11.69947,0.161599 17.48236,0.480204 0.33834,0.08367 1.10025,-0.08118 1.05629,0.529382 0.48256,2.695363 0.39093,5.474842 0.17027,8.238196 -13.63129,-0.111881 -27.26244,-0.267025 -40.89018,-0.60947 -17.0765,-0.404817 -34.15171,-0.862985 -51.2284,-1.260856 -3.07789,-0.115316 -6.18082,-0.100891 -9.2115,-0.436315 -0.35103,-0.490204 -0.1817,-1.30632 -0.19763,-1.921988 0.18254,-2.032606 0.47688,-4.015266 1.35281,-5.881577 0.30301,-0.595064 0.94679,-0.886098 1.59387,-0.736298 4.07844,0.08555 8.15688,0.171107 12.23533,0.25666 z m 110.97265,10.619141 c 0.6294,0.354262 0.70924,1.252862 0.94676,1.887872 1.17107,4.828397 1.80098,9.774317 2.28371,14.713687 0.12659,1.98496 0.35544,3.96883 0.41016,5.95508 -0.21438,0.54703 -1.01333,0.42197 -1.50788,0.52667 -2.85778,0.17427 -5.73028,0.4009 -8.49784,1.18382 -3.00093,0.83275 -6.06847,1.86786 -8.506,3.87154 -0.60907,0.5381 -1.17571,1.24571 -1.25586,2.06836 -0.89483,0.70814 -1.03136,2.0534 -2.09967,2.61371 -1.44808,0.91629 -3.21125,1.29978 -4.48236,2.50934 -0.37877,0.34217 -0.71317,0.73023 -1.09375,1.07031 -0.27358,-2.66176 -0.0854,-5.35105 -0.12539,-8.02381 0.0448,-2.05332 -0.0488,-4.12569 0.0828,-6.16707 0.59314,-2.02234 1.05761,-4.08724 1.70083,-6.09037 0.57743,-1.20106 0.89563,-2.50897 1.43525,-3.73045 0.44802,-1.03142 0.58972,-2.16741 1.31866,-3.05861 0.93124,-1.30781 1.81632,-2.771958 3.32969,-3.473477 1.27033,-0.880907 2.83012,-1.088722 4.22304,-1.708165 1.22291,-0.625173 2.60236,-0.825265 3.84496,-1.415924 2.52894,-0.902983 5.02849,-1.894581 7.59254,-2.691498 0.13186,-0.02503 0.26546,-0.05136 0.40039,-0.04102 z m -122.82031,3.152343 c 23.06958,0.29934 46.13691,0.752255 69.20527,1.13218 10.02846,0.152787 20.05625,0.391861 30.08575,0.451805 -0.28821,1.286669 -1.12261,2.401078 -1.86796,3.469091 -0.8743,1.01291 -1.86014,1.96723 -2.38229,3.23043 -1.51746,3.45065 -1.79965,7.2761 -2.11875,10.98707 -0.70296,10.37554 -0.50769,20.78419 -0.54367,31.17669 -0.0121,5.14914 -6.7e-4,10.29953 -0.1303,15.44727 -5.49958,0.32185 -11.01385,0.2893 -16.52109,0.33735 -4.38116,-0.0207 -8.77047,0.0731 -13.14493,-0.19478 -0.1195,-1.45027 0.21301,-2.91358 0.28286,-4.36722 0.39732,-5.38078 0.98155,-10.82023 2.85513,-15.91701 1.13001,-3.13616 2.74197,-6.28072 4.93037,-8.88373 0.47671,-0.67682 0.52129,0.42831 0.59534,0.77043 0.49926,4.67082 0.10906,9.39084 0.58677,14.0655 0.11551,0.50455 -0.14211,1.26957 0.55505,1.37126 0.73043,0.42971 1.66009,0.7527 2.43486,0.22871 1.0084,-0.38498 1.71207,-1.32791 1.77565,-2.40796 0.31344,-2.10295 0.10568,-4.25597 0.44882,-6.35021 0.29083,-0.74946 1.28945,-0.50884 1.92841,-0.55815 2.93759,0.076 5.87524,0.44995 8.81377,0.31596 0.80445,4.8e-4 1.32674,-0.75956 1.1836,-1.51992 0.002,-0.61441 0.19025,-1.40414 -0.69771,-1.17718 -3.63275,-0.20044 -7.23834,-0.41896 -10.78408,-1.23038 -0.61985,-0.31746 -0.46466,-1.2257 -0.59911,-1.8137 -0.28683,-3.13969 -0.17653,-6.33742 -0.39897,-9.50604 -0.0823,-1.4975 -0.93983,-2.95718 -2.35854,-3.53976 -2.61752,-1.11536 -5.52647,-1.15122 -8.32005,-1.38233 -9.44778,-0.45248 -18.91003,-0.44666 -28.36425,-0.69138 -11.49606,-0.25893 -23.00736,-0.47925 -34.4658,-1.3401 -3.75452,-0.33167 -7.53479,-0.65399 -11.21042,-1.51637 -2.07038,-0.54873 -3.58758,-2.61485 -3.42217,-4.76331 0.0628,-2.15865 0.12688,-4.36245 0.66797,-6.45898 1.11187,-1.71023 1.7497,-3.70262 2.99496,-5.339629 1.02172,-1.470099 2.30649,-2.726213 3.52457,-4.029513 1.48698,0.0013 2.97396,0.0026 4.46094,0.0039 z m 14.84375,28.999996 c 17.85808,0.82019 35.71615,1.64056 53.57422,2.46094 -1.54009,1.09682 -2.9556,2.39684 -4.03028,3.96697 -3.13385,4.47218 -4.6415,9.83545 -5.78639,15.10957 -1.39388,6.6303 -1.92083,13.39741 -2.36249,20.1467 -0.16017,0.43713 0.17024,1.40507 -0.43835,1.39507 -6.38223,0.0818 -12.76241,-0.23986 -19.1403,-0.44253 -12.83294,-0.52064 -25.65953,-1.0589 -38.46422,-1.94249 -1.57784,-0.12715 -3.12991,-0.21099 -4.68227,-0.45008 -0.31482,-2.71879 -0.0395,-5.46981 0.10031,-8.17809 0.37434,-5.47034 1.06937,-10.95122 2.70742,-16.20172 1.44239,-4.68548 3.22057,-9.41473 5.93819,-13.55701 0.79052,-1.0543 1.586,-2.36344 2.92987,-2.73115 3.21794,0.12788 6.43626,0.28478 9.65429,0.42382 z m -5.89648,9.75196 c -0.78637,-0.0397 -0.80177,0.98173 -0.97071,1.54492 -0.142,0.84799 -0.23788,1.70291 -0.35546,2.55469 6.57008,0.10406 13.13015,0.53721 19.69492,0.80407 7.62479,0.3515 15.24833,0.73056 22.87344,1.07483 0.22037,-1.38211 0.44757,-2.75812 0.66601,-4.14062 -4.92912,-0.54688 -9.89541,-0.6234 -14.84504,-0.89013 -8.91144,-0.36868 -17.82308,-0.78374 -26.7409,-0.95362 -0.10742,0.002 -0.21484,0.004 -0.32226,0.006 z m -4.93164,12.59961 c 0.0621,1.26295 0.12074,2.52606 0.18164,3.78906 13.62243,0.5587 27.24141,1.22382 40.86908,1.64071 0.8334,0.005 1.66674,-0.0302 2.50006,-0.043 0,-1.39974 0,-2.79948 0,-4.19922 -13.80514,-0.58439 -27.60799,-1.23753 -41.41679,-1.72657 -0.72045,-0.007 -1.4409,-0.0138 -2.16134,-0.0215 0.009,0.18685 0.0182,0.3737 0.0273,0.56055 z" /><path
         id="path1518"
         style="fill:#000000"
         d="m 6.4863281,16.974609 c -8.3952988,0.331293 -16.5033941,3.867718 -22.7721241,9.404195 -7.930834,6.938029 -13.08613,16.620526 -15.653697,26.751793 -2.495771,9.583822 -3.400393,19.799737 -1.099408,29.515593 1.733587,7.429961 5.673652,14.541772 11.854327,19.16239 5.615864,4.29478 12.7834372,6.16586 19.7857329,6.08273 9.169188,0.0185 18.2578501,-3.25918 25.3977481,-8.992687 8.843496,-7.008749 14.746396,-17.259604 17.498929,-28.115813 1.576469,-6.02268 2.119111,-12.268686 2.044779,-18.481969 -0.04605,-0.77121 0.213612,-1.62378 -0.359479,-2.256415 -3.105995,-5.449075 -6.47672,-10.992275 -11.519539,-14.875178 -3.70907,-2.893923 -8.406338,-4.278502 -13.069407,-4.412886 -3.46852,-0.123858 -7.064306,-8.75e-4 -10.2758306,1.462388 -2.0490462,0.914279 -4.0918337,1.912142 -5.8945313,3.257812 -0.4560425,0.306175 0.019052,1.132164 0.4863281,0.910157 1.6140888,-0.660917 3.2437512,-1.390765 5.0030325,-1.588392 3.2742663,-0.523928 6.7184093,0.688972 8.9822903,3.100732 2.943178,3.036545 4.341947,7.329483 4.944427,11.486269 0.717566,5.274173 0.264967,10.640854 -0.61725,15.866625 -1.162006,6.263371 -3.380974,12.591046 -7.501953,17.455078 -1.935345,2.282905 -4.3910661,4.216345 -7.0827317,5.325112 -2.5673523,1.116666 -5.5275505,1.425289 -8.3561337,1.176181 -0.7749628,0.0053 -1.5353155,-0.04588 -2.1900609,-0.504874 -2.1425176,-0.882662 -3.9492694,-2.468659 -5.1374694,-4.454167 -2.5907523,-4.274171 -3.2871643,-9.432507 -3.3652433,-14.310904 -0.03385,-6.855801 1.346227,-13.802772 4.035936,-20.116113 1.5720346,-3.644482 3.6718122,-7.104879 6.4082031,-10.039063 1.37481006,-1.645129 1.58694658,-3.87658 2.69944417,-5.671126 2.33956993,-4.186952 6.10093833,-7.293416 9.33611673,-10.745373 0.167113,-0.377038 1.253046,-1.418416 0.297227,-0.983535 -1.6394936,0.434102 -3.0895789,1.372022 -4.5698862,2.175461 -3.622654,2.089844 -6.30430699,5.431635 -8.3998397,8.988061 -2.1516799,3.455044 -3.6876843,7.270512 -6.0130326,10.617685 -0.8175168,1.247204 -2.1658775,2.123443 -3.6750735,2.187153 -1.885388,0.298377 -4.194843,-0.185896 -5.100565,-2.051724 -1.121523,-2.363002 -0.388538,-5.101419 0.553641,-7.397254 1.52734,-3.417908 3.77955,-6.527456 6.266276,-9.253884 4.6766256,-5.085472 11.00585081,-8.778288 17.9120728,-9.51943 0.9493621,-0.132811 1.9633749,-0.06734 2.7468992,-0.70878 0.399838,-0.229888 -0.8937141,-0.566182 -1.2533865,-0.548032 -0.7822561,0.03406 -1.5645123,0.06812 -2.3467684,0.102184 z m 70.9433599,9.496094 c -5.939098,0.851012 -11.859043,1.842354 -17.774068,2.846836 -0.454166,0.05413 -0.916256,0.130224 -0.882182,0.69418 -1.100969,5.821763 -1.983185,11.685664 -3.080079,17.507812 -2.464843,0 -4.929687,0 -7.394531,0 -0.900189,4.302475 -1.460636,8.669932 -2.257482,12.992675 -0.09458,0.615236 -0.248625,1.218502 -0.383143,1.825685 2.401693,0 4.803386,0 7.205078,0 -0.214233,2.741234 -0.768946,5.552547 -1.176614,8.301088 -1.197699,7.417485 -2.640511,14.867039 -2.487083,22.413472 0.125207,3.648603 0.730873,7.608029 3.294719,10.399289 2.473014,2.67718 6.176493,3.70108 9.666915,4.2201 3.881956,0.33843 7.801497,-0.15632 11.592927,-0.9918 1.594624,-0.44316 3.376627,-0.75782 4.614996,-1.93785 0.474626,-0.94403 0.519147,-2.0723 0.774172,-3.09879 0.679763,-3.718395 1.38937,-7.439471 1.823484,-11.196134 0.10976,-0.599981 -0.337393,-0.855825 -0.882813,-0.69336 -3.013025,0.702629 -6.004912,2.179203 -9.169922,1.691406 -1.52139,-0.208455 -2.483619,-1.64601 -2.638878,-3.086307 -0.463585,-3.311825 0.438617,-6.555777 0.955485,-9.83563 0.841803,-4.59466 1.590833,-9.207448 2.447856,-13.798174 0.19369,-0.951474 0.50133,-2.272698 1.691911,-2.345866 2.223449,-0.182374 4.462572,0.02544 6.692455,-0.04144 1.398307,0 2.796614,0 4.194921,0 0.696847,-2.363597 0.910986,-4.839308 1.382697,-7.253885 0.438136,-2.522469 0.807312,-5.05796 1.332147,-7.564475 -3.560694,-0.01745 -7.12201,0.01415 -10.68164,0.03906 -0.62399,0.02504 -1.407827,-0.246498 -1.3382,-1.009826 -0.02343,-2.308978 0.615308,-4.565892 0.947324,-6.839435 0.758478,-4.427946 1.548905,-8.851674 2.19361,-13.297224 -0.221354,0.01953 -0.442708,0.03906 -0.664062,0.05859 z m 40.486332,0.146485 c -2.40945,0.145892 -4.78374,0.674788 -7.17459,1.002674 -3.84424,0.601382 -7.68448,1.22803 -11.526586,1.843029 -0.928439,5.316764 -1.76179,10.650864 -2.736328,15.958984 -0.223903,0.786394 -0.319591,2.085417 -1.384766,2.121094 -2.16947,-0.006 -4.341066,-0.04008 -6.511719,-0.02344 -0.780895,4.758877 -1.621437,9.509202 -2.33789,14.277344 0.563134,0.679755 1.581216,0.390536 2.356028,0.513715 1.410578,0.117009 2.842177,-0.119757 4.239675,0.07222 0.515781,0.455857 0.250809,1.300408 0.242621,1.919299 -0.597511,4.486648 -1.508268,8.926137 -2.218141,13.396183 -0.673064,4.378917 -1.604094,8.744759 -1.723699,13.18569 0.03,2.577071 0.373542,5.175423 1.148437,7.6375 1.130273,3.52987 3.851205,6.48438 7.28366,7.88821 3.366458,1.51716 7.149018,1.50233 10.756708,1.19559 3.07939,-0.32191 6.22716,-0.71678 9.091,-1.95767 0.87107,-0.35725 1.65731,-1.06972 1.67063,-2.07641 0.80481,-4.441208 1.61941,-8.888947 2.25855,-13.35636 0.29464,-0.72583 -0.39658,-0.624934 -0.89258,-0.509766 -2.96707,0.841161 -6.00762,2.217301 -9.15625,1.580078 -1.58607,-0.283525 -2.75116,-1.702421 -2.90625,-3.277344 -0.29223,-2.341072 0.44503,-4.642961 0.7473,-6.946602 1.07559,-6.108749 2.09966,-12.270947 3.29891,-18.318261 0.17378,-0.586295 1.15092,-0.151181 1.67086,-0.297347 2.78092,-0.08105 5.56761,0.01944 8.34541,-0.113966 1.14742,1.88e-4 2.25872,-0.724457 2.54198,-1.869563 0.67171,-2.431185 0.87529,-4.965723 1.36692,-7.437154 0.31638,-1.835095 0.63083,-3.670524 0.94854,-5.505388 -4.06119,0 -8.12239,0 -12.18359,0 0.29032,-2.976628 0.89084,-5.91935 1.35588,-8.874189 0.68121,-4.014752 1.37943,-8.026667 2.0699,-12.039873 -0.21354,0.0039 -0.42708,0.0078 -0.64062,0.01172 z m 39.86718,18.798828 c -7.04157,0.127045 -14.0218,2.680143 -19.40702,7.234325 -7.64924,6.408817 -12.24462,16.106933 -13.02273,25.996675 -0.55501,7.032013 0.94377,14.472637 5.32321,20.137456 3.48871,4.598068 8.84397,7.555258 14.48022,8.576488 5.7804,1.11978 11.72665,0.32798 17.42696,-0.86948 3.34063,-0.78827 6.74577,-1.644 9.73109,-3.39423 0.94307,-0.56381 2.01604,-1.49062 1.74381,-2.72056 -0.42528,-3.662145 -0.98007,-7.316732 -1.76835,-10.91905 -0.0809,-0.498238 -0.48601,-0.928421 -0.97594,-0.576781 -2.25957,1.014056 -4.4648,2.186541 -6.86852,2.843704 -2.38694,0.719285 -4.75294,1.125148 -7.18302,1.199963 -3.83421,0.08976 -8.0032,-0.660163 -10.884,-3.379604 -1.41853,-1.360779 -2.25383,-3.241685 -2.36828,-5.14416 -0.3616,-0.880733 0.71948,-0.498501 1.24186,-0.605364 7.50336,-0.165575 15.18291,-0.596031 22.24693,-3.360712 4.47892,-1.746009 8.69742,-4.765597 10.84069,-9.180555 2.53393,-5.197421 2.57995,-11.739676 -0.5076,-16.721522 -2.89424,-4.761288 -8.16538,-7.621175 -13.53865,-8.602074 -2.14159,-0.418728 -4.33128,-0.557266 -6.51066,-0.514519 z m 63.76953,0.11914 c -6.34654,0.277033 -12.1499,4.202094 -15.4991,9.488087 -0.17623,0.182662 -0.76083,1.299978 -0.70095,0.663597 0.1699,-2.908552 0.45359,-5.812547 0.86998,-8.696606 -6.06381,0 -12.12761,0 -18.19141,0 -0.51038,2.278427 -0.3268,4.624956 -0.67578,6.923828 -1.14959,8.928199 -2.68427,17.840209 -4.15299,26.736682 -1.43337,8.569353 -2.95122,17.12432 -4.39975,25.691056 2.41336,0.25043 4.85169,0.11713 7.27539,0.17459 3.9629,-0.0163 7.93532,0.0675 11.89063,-0.19022 0.67939,-0.0281 0.45961,-0.74932 0.56255,-1.21429 1.08101,-7.247542 2.45587,-14.430325 3.80778,-21.624636 0.64469,-3.143297 1.13527,-6.329036 2.02329,-9.41537 1.35736,-4.355942 4.30567,-8.480128 8.6625,-10.196366 3.05668,-1.273081 6.51847,-1.110498 9.6411,-0.203856 0.39412,0.06768 0.99048,0.298608 1.281,0.07973 0.63947,-2.657964 0.96148,-5.38535 1.43257,-8.077902 0.45784,-3.057297 1.02468,-6.10707 1.33281,-9.183581 0.0419,-0.524342 -0.78154,-0.491883 -1.15766,-0.624667 -1.32049,-0.236275 -2.6584,-0.38947 -4.00196,-0.330078 z m -63.09765,13.550782 c 2.3433,0.255631 4.36566,2.297648 4.64258,4.625 0.1475,2.34609 -1.8297,4.117659 -3.71094,5.15625 -3.37989,1.858961 -7.31723,2.339025 -11.09277,2.403602 -1.08626,0.03994 -2.17253,0.07989 -3.25879,0.119835 0.72659,-5.097938 4.42429,-9.548652 9.0957,-11.589844 1.36253,-0.559419 2.84764,-0.888272 4.32422,-0.714843 z" /></g></g><path
     d="m 232.33947,196.82688 c -2.79294,0 -5.40173,1.21375 -7.27393,3.25978 -2.48601,2.70494 -3.86715,7.07444 -3.86715,11.23588 0,5.23647 2.79295,9.64066 8.1333,9.64066 3.00778,0 5.5245,-1.21376 7.39669,-3.29448 2.42465,-2.70492 3.74438,-7.00508 3.74438,-11.16651 0,-5.3405 -2.60878,-9.67533 -8.13329,-9.67533 z m -0.42968,3.3985 c 3.80576,0 4.75721,3.32914 4.75721,6.41554 0,2.94769 -1.01282,6.93572 -2.79294,8.94708 -1.07421,1.24844 -2.51673,1.97669 -4.02062,1.97669 -3.46815,0 -4.87997,-2.913 -4.87997,-6.45022 0,-3.01704 1.04352,-6.83169 2.85433,-8.87773 1.1049,-1.24844 2.48602,-2.01136 4.08199,-2.01136 z m 12.00041,27.22271 1.19697,-7.21315 h 0.0613 c 0.55245,0.38147 1.59597,0.72826 2.97709,0.72826 5.09482,0 8.71644,-5.47923 8.71644,-11.37459 0,-3.29447 -1.50389,-6.27684 -4.72652,-6.27684 -1.93357,0 -3.77508,1.1444 -5.06413,3.15576 h -0.0613 l 0.33761,-2.77429 h -3.22263 c -0.18415,1.73393 -0.52176,4.26547 -0.85936,6.27684 l -2.91571,17.47801 z m 2.42464,-14.56501 c 0.64453,-3.95336 2.60879,-6.27683 4.41961,-6.27683 1.74942,0 2.36325,1.73393 2.36325,3.29447 0,3.77997 -2.27118,7.9414 -5.03344,7.9414 -1.04352,0 -1.8415,-0.31211 -2.39394,-0.83229 z m 23.50981,3.77997 c -1.07421,0.62421 -2.42464,1.10971 -4.11269,1.10971 -1.4118,0 -2.48601,-0.58954 -3.06916,-1.73393 -0.3376,-0.65889 -0.46037,-1.80328 -0.39899,-2.39283 5.77004,0.13872 9.79064,-1.24842 9.79064,-5.58325 0,-2.80897 -1.87219,-4.75098 -4.81859,-4.75098 -5.1562,0 -8.4709,5.54859 -8.4709,10.64634 0,4.12676 1.99496,6.97041 6.13834,6.97041 1.8108,0 3.80576,-0.45083 5.27896,-1.31779 z m -1.16628,-8.56562 c 0,2.01135 -2.36327,2.6009 -6.04626,2.53154 0.42968,-2.04604 1.90289,-4.30015 4.14338,-4.30015 1.13559,0 1.90288,0.65889 1.90288,1.76861 z m 8.04122,12.4843 1.28905,-7.80268 c 0.64453,-3.95337 2.73156,-6.1728 4.35822,-6.1728 1.41182,0 1.87219,1.04036 1.87219,2.4275 0,0.65889 -0.0921,1.38714 -0.18414,2.01136 l -1.59598,9.53662 h 3.56024 l 1.65735,-9.81405 c 0.15345,-0.86696 0.27622,-2.04604 0.27622,-2.80897 0,-3.19043 -1.68804,-4.64694 -3.80576,-4.64694 -2.08703,0 -3.98992,1.1444 -5.37104,3.43319 h -0.0614 l 0.30691,-3.05172 h -3.16124 c -0.18415,1.4565 -0.399,3.22511 -0.76729,5.23648 l -1.93358,11.65201 z m 21.23864,6.86636 1.19696,-7.21315 h 0.0613 c 0.55245,0.38147 1.59597,0.72826 2.9771,0.72826 5.09481,0 8.71643,-5.47923 8.71643,-11.37459 0,-3.29447 -1.50389,-6.27684 -4.72652,-6.27684 -1.93357,0 -3.77507,1.1444 -5.06412,3.15576 h -0.0613 l 0.33761,-2.77429 h -3.22262 c -0.18416,1.73393 -0.52177,4.26547 -0.85937,6.27684 l -2.91571,17.47801 z m 2.42464,-14.56501 c 0.64452,-3.95336 2.60879,-6.27683 4.41959,-6.27683 1.74943,0 2.36327,1.73393 2.36327,3.29447 0,3.77997 -2.27119,7.9414 -5.03344,7.9414 -1.04352,0 -1.8415,-0.31211 -2.39395,-0.83229 z m 15.56068,7.69865 1.13558,-6.79701 c 0.58315,-3.60658 2.2098,-6.51958 4.75721,-6.51958 0.24554,0 0.49107,0.0346 0.67522,0.0693 l 0.7059,-3.95336 c -0.24553,-0.0346 -0.52175,-0.0693 -0.76728,-0.0693 -2.05634,0 -3.68301,1.66458 -4.69583,3.95337 h -0.0921 c 0.15346,-1.24843 0.24553,-2.4275 0.3376,-3.5719 H 314.9 c -0.18416,1.52586 -0.3683,4.09208 -0.7673,6.4849 l -1.74942,10.40359 z m 10.65,0 2.85433,-16.88849 h -3.59092 l -2.82364,16.88849 z m 1.68804,-19.31599 c 1.19698,0 2.17911,-0.93633 2.2098,-2.4275 0,-1.28311 -0.79798,-2.18475 -1.90288,-2.18475 -1.16629,0 -2.14841,1.00567 -2.14841,2.46217 -0.0307,1.24844 0.73659,2.15008 1.84149,2.15008 z m 5.95421,19.31599 1.28905,-7.80268 c 0.64452,-3.95337 2.73156,-6.1728 4.35822,-6.1728 1.41181,0 1.8722,1.04036 1.8722,2.4275 0,0.65889 -0.0921,1.38714 -0.18416,2.01136 l -1.59596,9.53662 h 3.56022 l 1.65736,-9.81405 c 0.15346,-0.86696 0.27623,-2.04604 0.27623,-2.80897 0,-3.19043 -1.68805,-4.64694 -3.80578,-4.64694 -2.08703,0 -3.98991,1.1444 -5.37104,3.43319 h -0.0613 l 0.30691,-3.05172 h -3.16124 c -0.18414,1.4565 -0.39899,3.22511 -0.76729,5.23648 l -1.93358,11.65201 z m 17.31007,-20.52974 -0.61383,3.64125 h -2.02565 l -0.52176,3.12108 h 2.02565 l -1.28905,7.52526 c -0.24553,1.24842 -0.33761,2.18475 -0.33761,3.15575 0,1.942 1.1049,3.46787 3.56023,3.46787 0.85937,0 1.81082,-0.13872 2.33257,-0.34679 l 0.33761,-3.15575 c -0.3683,0.0693 -0.79798,0.0693 -1.22766,0.0693 -0.95145,0 -1.31975,-0.58953 -1.31975,-1.49117 0,-0.72825 0.12277,-1.59522 0.24553,-2.39283 l 1.19698,-6.83168 h 3.34539 l 0.55245,-3.12108 h -3.37608 l 0.76729,-4.64694 z m 9.79066,20.52974 2.85433,-16.88849 h -3.59093 l -2.82363,16.88849 z m 1.68804,-19.31599 c 1.19697,0 2.17911,-0.93633 2.2098,-2.4275 0,-1.28311 -0.79798,-2.18475 -1.90288,-2.18475 -1.16629,0 -2.14842,1.00567 -2.14842,2.46217 -0.0307,1.24844 0.7366,2.15008 1.8415,2.15008 z m 5.9542,19.31599 1.28905,-7.80268 c 0.64452,-3.95337 2.73155,-6.1728 4.35821,-6.1728 1.41182,0 1.87219,1.04036 1.87219,2.4275 0,0.65889 -0.0921,1.38714 -0.18415,2.01136 l -1.59597,9.53662 h 3.56024 l 1.65735,-9.81405 c 0.15345,-0.86696 0.27622,-2.04604 0.27622,-2.80897 0,-3.19043 -1.68804,-4.64694 -3.80576,-4.64694 -2.08704,0 -3.98992,1.1444 -5.37104,3.43319 h -0.0613 l 0.30692,-3.05172 h -3.16124 c -0.18416,1.4565 -0.399,3.22511 -0.7673,5.23648 l -1.93357,11.65201 z m 13.04393,6.10344 c 0.98214,0.69358 2.76225,1.14439 4.66514,1.14439 1.87219,0 3.98992,-0.41614 5.5552,-1.87264 1.65734,-1.59522 2.51671,-4.2308 3.06916,-7.52526 l 2.27118,-13.94081 c -1.38112,-0.69357 -3.25331,-1.17908 -5.18689,-1.17908 -6.19972,0 -9.79064,5.61795 -9.79064,11.23588 0.0307,3.19043 1.71873,5.96472 4.69582,5.96472 1.90289,0 3.46816,-0.971 4.69583,-2.98236 h 0.0614 l -0.3683,1.90732 c -0.73661,3.91869 -2.51671,5.16712 -4.84929,5.16712 -1.41181,0 -3.06916,-0.41614 -3.95923,-1.00568 z m 10.83416,-14.77309 c -0.52175,3.05172 -2.30187,5.44454 -4.08199,5.44454 -1.78012,0 -2.42464,-1.66457 -2.39395,-3.43318 0,-3.64126 2.2098,-7.45591 5.34035,-7.45591 0.82868,0 1.59597,0.20807 1.96427,0.41614 z m 15.71414,8.66965 2.30188,-13.76741 h 3.09986 l 0.52175,-3.12108 h -3.09985 l 0.12277,-0.79761 c 0.3376,-2.18475 1.28905,-3.95336 2.97708,-3.95336 0.58314,0 1.07421,0.10406 1.44251,0.27742 l 0.67522,-3.19042 c -0.399,-0.24275 -1.16628,-0.45083 -2.2098,-0.45083 -1.38112,0 -2.82364,0.4855 -3.92854,1.56055 -1.41181,1.38714 -2.14841,3.53722 -2.48602,5.68728 l -0.15346,0.86697 h -1.93357 l -0.52176,3.12108 h 1.93358 l -2.30189,13.76741 z m 14.45579,-17.26996 c -5.09482,0 -8.62436,4.95905 -8.62436,10.68103 0,4.02271 2.33257,6.9704 6.10764,6.9704 5.09482,0 8.65505,-4.92437 8.65505,-10.64634 0,-3.74529 -2.11772,-7.00509 -6.13833,-7.00509 z m -0.42968,3.12108 c 2.1791,0 2.85432,2.15008 2.85432,3.88401 0,3.36383 -1.78012,7.52526 -4.4503,7.52526 -1.8108,0 -2.9157,-1.6299 -2.9157,-3.95337 0,-3.15575 1.65735,-7.4559 4.51168,-7.4559 z m 11.6628,14.14888 1.13559,-6.79701 c 0.58314,-3.60658 2.2098,-6.51958 4.75722,-6.51958 0.24552,0 0.49106,0.0346 0.67521,0.0693 l 0.70591,-3.95336 c -0.24553,-0.0346 -0.52176,-0.0693 -0.7673,-0.0693 -2.05633,0 -3.68299,1.66458 -4.69582,3.95337 h -0.0921 c 0.15346,-1.24843 0.24554,-2.4275 0.33762,-3.5719 h -3.09986 c -0.18415,1.52586 -0.3683,4.09208 -0.76729,6.4849 l -1.74943,10.40359 z m 23.26432,-3.71062 c -0.7673,0.38147 -1.81081,0.79761 -3.19194,0.79761 -1.99495,0 -3.28401,-1.42181 -3.28401,-3.95336 0,-3.50253 2.17911,-7.10911 5.64728,-7.10911 0.98212,0 1.68803,0.24275 2.24049,0.52017 l 0.92075,-3.15575 c -0.55246,-0.27743 -1.71874,-0.6589 -3.03848,-0.6589 -5.5552,0 -9.51442,4.99373 -9.51442,10.88909 0,4.02272 2.30187,6.72766 6.04626,6.72766 1.90288,0 3.43747,-0.45083 4.29684,-0.93633 z m 6.23041,3.71062 4.14338,-24.62182 h -3.56023 l -4.17407,24.62182 z m 13.04399,-17.26996 c -5.09482,0 -8.62436,4.95905 -8.62436,10.68103 0,4.02271 2.33256,6.9704 6.10764,6.9704 5.09482,0 8.65505,-4.92437 8.65505,-10.64634 0,-3.74529 -2.11772,-7.00509 -6.13833,-7.00509 z m -0.42969,3.12108 c 2.17911,0 2.85433,2.15008 2.85433,3.88401 0,3.36383 -1.78012,7.52526 -4.45029,7.52526 -1.81081,0 -2.91571,-1.6299 -2.91571,-3.95337 0,-3.15575 1.65735,-7.4559 4.51167,-7.4559 z m 7.55013,13.28192 c 0.79798,0.65889 2.42464,1.21375 4.17407,1.21375 3.59092,0 6.35318,-2.04604 6.35318,-5.75666 0,-2.15006 -1.47321,-3.53722 -3.09987,-4.54289 -1.25835,-0.72825 -1.93357,-1.38715 -1.93357,-2.32347 0,-1.1444 0.92075,-1.97668 2.27118,-1.97668 1.22767,0 2.24049,0.41614 2.79294,0.76293 l 0.92075,-2.91301 c -0.67521,-0.45082 -1.96426,-0.86697 -3.52953,-0.86697 -3.52955,0 -6.04627,2.2888 -6.04627,5.54859 0,1.942 1.22767,3.3985 2.9464,4.40419 1.47321,0.86695 1.96427,1.52585 1.96427,2.60089 0,1.10972 -0.85936,2.04603 -2.30187,2.08072 -1.35043,0 -2.82364,-0.6589 -3.59093,-1.1444 z m 24.12362,-3.05172 c -1.0742,0.62421 -2.42464,1.10971 -4.11268,1.10971 -1.41182,0 -2.48603,-0.58954 -3.06917,-1.73393 -0.33761,-0.65889 -0.46037,-1.80328 -0.39899,-2.39283 5.77003,0.13872 9.79064,-1.24842 9.79064,-5.58325 0,-2.80897 -1.87219,-4.75098 -4.81859,-4.75098 -5.1562,0 -8.4709,5.54859 -8.4709,10.64634 0,4.12676 1.99496,6.97041 6.13834,6.97041 1.8108,0 3.80576,-0.45083 5.27896,-1.31779 z m -1.16629,-8.56562 c 0,2.01135 -2.36325,2.6009 -6.04625,2.53154 0.42968,-2.04604 1.90288,-4.30015 4.14338,-4.30015 1.13559,0 1.90287,0.65889 1.90287,1.76861 z m 17.80121,-12.13752 -1.31974,7.83737 c -0.64452,-0.31211 -1.53459,-0.48551 -2.30188,-0.48551 -5.49381,0 -9.33026,5.44455 -9.33026,11.37459 0,3.81465 1.87219,6.27684 4.54236,6.27684 1.93357,0 3.77507,-1.07504 5.12551,-3.39851 h 0.0613 l -0.30692,3.01704 h 3.28401 c 0.0921,-1.83797 0.3376,-4.0574 0.67521,-5.9994 l 3.13056,-18.62242 z m -2.73156,16.26428 c -0.61384,3.50253 -2.51671,5.47922 -4.11269,5.47922 -1.68803,0 -2.39394,-1.59522 -2.39394,-3.64127 0,-3.77996 2.27118,-7.62929 5.34035,-7.62929 0.89006,0 1.62665,0.31211 2.05634,0.6589 z m 25.04444,-16.26428 -1.31975,7.83737 c -0.64453,-0.31211 -1.53458,-0.48551 -2.30187,-0.48551 -5.49381,0 -9.33027,5.44455 -9.33027,11.37459 0,3.81465 1.87218,6.27684 4.54237,6.27684 1.93357,0 3.77507,-1.07504 5.12551,-3.39851 h 0.0613 l -0.30692,3.01704 h 3.28401 c 0.0921,-1.83797 0.33761,-4.0574 0.67522,-5.9994 l 3.13054,-18.62242 z m -2.73157,16.26428 c -0.61383,3.50253 -2.51671,5.47922 -4.11268,5.47922 -1.68804,0 -2.39395,-1.59522 -2.39395,-3.64127 0,-3.77996 2.27118,-7.62929 5.34035,-7.62929 0.89006,0 1.62666,0.31211 2.05634,0.6589 z m 17.58633,4.43886 c -1.0742,0.62421 -2.42464,1.10971 -4.11268,1.10971 -1.41182,0 -2.48603,-0.58954 -3.06917,-1.73393 -0.3376,-0.65889 -0.46037,-1.80328 -0.39899,-2.39283 5.77003,0.13872 9.79065,-1.24842 9.79065,-5.58325 0,-2.80897 -1.87219,-4.75098 -4.8186,-4.75098 -5.1562,0 -8.4709,5.54859 -8.4709,10.64634 0,4.12676 1.99496,6.97041 6.13834,6.97041 1.8108,0 3.80576,-0.45083 5.27897,-1.31779 z m -1.16629,-8.56562 c 0,2.01135 -2.36325,2.6009 -6.04625,2.53154 0.42969,-2.04604 1.90288,-4.30015 4.14338,-4.30015 1.13559,0 1.90287,0.65889 1.90287,1.76861 z m 5.34037,-4.40419 2.54741,16.88849 h 3.59092 l 8.31744,-16.88849 h -3.95922 l -3.71369,8.49626 c -0.82868,2.01136 -1.25837,3.22511 -1.62666,4.30016 h -0.0921 c -0.0613,-1.10972 -0.24554,-2.39283 -0.42969,-4.40419 l -0.95145,-8.39223 z m 17.61701,16.88849 2.85432,-16.88849 h -3.59092 l -2.82363,16.88849 z m 1.68804,-19.31599 c 1.19698,0 2.17912,-0.93633 2.20981,-2.4275 0,-1.28311 -0.79799,-2.18475 -1.90289,-2.18475 -1.16628,0 -2.14842,1.00567 -2.14842,2.46217 -0.0307,1.24844 0.73661,2.15008 1.8415,2.15008 z m 12.95191,15.60537 c -0.76729,0.38147 -1.8108,0.79761 -3.19193,0.79761 -1.99496,0 -3.28401,-1.42181 -3.28401,-3.95336 0,-3.50253 2.17911,-7.10911 5.64727,-7.10911 0.98213,0 1.68804,0.24275 2.24049,0.52017 l 0.92075,-3.15575 c -0.55245,-0.27743 -1.71874,-0.6589 -3.03848,-0.6589 -5.55519,0 -9.51441,4.99373 -9.51441,10.88909 0,4.02272 2.30187,6.72766 6.04625,6.72766 1.90289,0 3.43748,-0.45083 4.29684,-0.93633 z m 13.71918,-0.20806 c -1.07421,0.62421 -2.42464,1.10971 -4.11268,1.10971 -1.41182,0 -2.48603,-0.58954 -3.06917,-1.73393 -0.33761,-0.65889 -0.46038,-1.80328 -0.39899,-2.39283 5.77003,0.13872 9.79064,-1.24842 9.79064,-5.58325 0,-2.80897 -1.87219,-4.75098 -4.81859,-4.75098 -5.1562,0 -8.4709,5.54859 -8.4709,10.64634 0,4.12676 1.99496,6.97041 6.13833,6.97041 1.81082,0 3.80578,-0.45083 5.27897,-1.31779 z m -1.16628,-8.56562 c 0,2.01135 -2.36326,2.6009 -6.04626,2.53154 0.42968,-2.04604 1.90288,-4.30015 4.14337,-4.30015 1.1356,0 1.90289,0.65889 1.90289,1.76861 z m 3.92854,11.61734 c 0.79798,0.65889 2.42465,1.21375 4.17407,1.21375 3.59092,0 6.35317,-2.04604 6.35317,-5.75666 0,-2.15006 -1.4732,-3.53722 -3.09985,-4.54289 -1.25837,-0.72825 -1.93358,-1.38715 -1.93358,-2.32347 0,-1.1444 0.92075,-1.97668 2.27118,-1.97668 1.22767,0 2.2405,0.41614 2.79295,0.76293 l 0.92074,-2.91301 c -0.67521,-0.45082 -1.96426,-0.86697 -3.52954,-0.86697 -3.52954,0 -6.04626,2.2888 -6.04626,5.54859 0,1.942 1.22767,3.3985 2.94641,4.40419 1.47319,0.86695 1.96426,1.52585 1.96426,2.60089 0,1.10972 -0.85937,2.04603 -2.30187,2.08072 -1.35044,0 -2.82364,-0.6589 -3.59093,-1.1444 z"
     id="text2291"
     style="font-size:32.6243px;font-family:'Myriad Pro';-inkscape-font-specification:'Myriad Pro, Normal';fill:#854924;stroke-width:0.19687"
     aria-label="Open printing for closed devices"
     inkscape:label="text2291" /></svg>
